<?xml version="1.0" encoding="utf-8" standalone="no"?>
<!DOCTYPE svg PUBLIC "-//W3C//DTD SVG 1.1//EN" "http://www.w3.org/Graphics/SVG/1.1/DTD/svg11.dtd">
<svg version="1.1" class="svg-plot" xmlns="http://www.w3.org/2000/svg" width="266.65pt" height="184pt" viewBox="-35.37 -14.5 266.65 184" preserveAspectRatio="xMidYMid"><rect x="-35.37" y="-14.5" width="266.65" height="184" class="svg-plot-bg"/><g class="svg-plot-group"><rect x="0" y="0" width="180" height="130" class="svg-plot-axis"/><line x1="0" x2="0" y1="0" y2="130" class="svg-plot-major"/><line x1="0" x2="180" y1="65" y2="65" class="svg-plot-major"/><line x1="0" x2="180" y1="130" y2="130" class="svg-plot-minor"/><line x1="0" x2="180" y1="0" y2="0" class="svg-plot-minor"/><clipPath id="clip0"><rect x="-1" y="-1" width="182" height="132"/></clipPath><g clip-path="url(#clip0)"><path class="svg-plot-fill svg-plot-f1 svg-plot-h1" d="M 0 0 0.54 0.03 1.08 0.12 1.62 0.26 2.16 0.47 2.7 0.73 3.24 1.05 3.78 1.43 4.32 1.86 4.86 2.35 5.4 2.9 5.94 3.51 6.48 4.17 7.02 4.88 7.56 5.65 8.28 6.76 9 7.96 9.72 9.25 10.44 10.63 11.16 12.1 11.88 13.65 12.6 15.29 13.5 17.44 14.4 19.71 15.3 22.1 16.2 24.6 17.28 27.72 18.36 30.98 19.44 34.36 20.7 38.45 22.14 43.27 23.76 48.87 25.74 55.88 30.24 72.08 32.4 79.77 34.02 85.4 35.46 90.26 36.72 94.39 37.98 98.37 39.06 101.66 40.14 104.81 41.04 107.33 41.94 109.74 42.84 112.04 43.74 114.23 44.64 116.29 45.36 117.84 46.08 119.31 46.8 120.7 47.52 121.99 48.24 123.2 48.96 124.31 49.5 125.08 50.04 125.8 50.58 126.46 51.12 127.07 51.66 127.62 52.2 128.11 52.74 128.55 53.28 128.93 53.82 129.25 54.36 129.52 54.9 129.73 55.44 129.88 55.98 129.97 56.52 130 57.06 129.97 57.6 129.89 58.14 129.75 58.68 129.54 59.22 129.29 59.76 128.97 60.3 128.59 60.84 128.16 61.38 127.67 61.92 127.13 62.46 126.53 63 125.87 63.54 125.16 64.08 124.39 64.8 123.29 65.52 122.09 66.24 120.8 66.96 119.43 67.68 117.96 68.4 116.41 69.12 114.78 70.02 112.63 70.92 110.36 71.82 107.98 72.72 105.49 73.8 102.36 74.88 99.11 75.96 95.73 77.22 91.65 78.66 86.82 80.28 81.23 82.26 74.22 86.76 58.02 88.92 50.33 90.54 44.7 91.98 39.83 93.24 35.7 94.5 31.71 95.58 28.43 96.66 25.27 97.56 22.75 98.46 20.33 99.36 18.03 100.26 15.84 101.16 13.78 101.88 12.22 102.6 10.74 103.32 9.36 104.04 8.06 104.76 6.85 105.48 5.73 106.02 4.96 106.56 4.24 107.1 3.57 107.64 2.96 108.18 2.41 108.72 1.91 109.26 1.47 109.8 1.09 110.34 0.76 110.88 0.49 111.42 0.28 111.96 0.13 112.5 0.04 113.04 0 113.58 0.02 114.12 0.1 114.66 0.24 115.2 0.44 115.74 0.7 116.28 1.01 116.82 1.39 117.36 1.81 117.9 2.3 118.44 2.84 118.98 3.44 119.52 4.09 120.06 4.8 120.6 5.57 121.32 6.66 122.04 7.86 122.76 9.14 123.48 10.52 124.2 11.98 124.92 13.52 125.64 15.15 126.54 17.3 127.44 19.57 128.34 21.95 129.24 24.43 130.32 27.55 131.4 30.8 132.48 34.18 133.74 38.26 135.18 43.08 136.8 48.67 138.78 55.67 143.28 71.88 145.44 79.57 147.06 85.2 148.5 90.07 149.76 94.21 151.02 98.2 152.1 101.49 153.18 104.65 154.08 107.17 154.98 109.59 155.88 111.9 156.78 114.09 157.68 116.16 158.4 117.72 159.12 119.2 159.84 120.59 160.56 121.89 161.28 123.1 162 124.22 162.54 125 163.08 125.72 163.62 126.39 164.16 127 164.7 127.56 165.24 128.06 165.78 128.51 166.32 128.89 166.86 129.22 167.4 129.49 167.94 129.71 168.48 129.86 169.02 129.96 169.56 130 170.1 129.98 170.64 129.9 171.18 129.76 171.72 129.57 172.26 129.32 172.8 129 173.34 128.64 173.88 128.21 174.42 127.73 174.96 127.19 175.5 126.59 176.04 125.94 176.58 125.24 177.12 124.48 177.84 123.38 178.56 122.19 179.28 120.91 180 119.54 180 65 0 65"/><path class="svg-plot-line svg-plot-s1 svg-plot-d1" d="M 0 0 0.54 0.03 1.08 0.12 1.62 0.26 2.16 0.47 2.7 0.73 3.24 1.05 3.78 1.43 4.32 1.86 4.86 2.35 5.4 2.9 5.94 3.51 6.48 4.17 7.02 4.88 7.56 5.65 8.28 6.76 9 7.96 9.72 9.25 10.44 10.63 11.16 12.1 11.88 13.65 12.6 15.29 13.5 17.44 14.4 19.71 15.3 22.1 16.2 24.6 17.28 27.72 18.36 30.98 19.44 34.36 20.7 38.45 22.14 43.27 23.76 48.87 25.74 55.88 30.24 72.08 32.4 79.77 34.02 85.4 35.46 90.26 36.72 94.39 37.98 98.37 39.06 101.66 40.14 104.81 41.04 107.33 41.94 109.74 42.84 112.04 43.74 114.23 44.64 116.29 45.36 117.84 46.08 119.31 46.8 120.7 47.52 121.99 48.24 123.2 48.96 124.31 49.5 125.08 50.04 125.8 50.58 126.46 51.12 127.07 51.66 127.62 52.2 128.11 52.74 128.55 53.28 128.93 53.82 129.25 54.36 129.52 54.9 129.73 55.44 129.88 55.98 129.97 56.52 130 57.06 129.97 57.6 129.89 58.14 129.75 58.68 129.54 59.22 129.29 59.76 128.97 60.3 128.59 60.84 128.16 61.38 127.67 61.92 127.13 62.46 126.53 63 125.87 63.54 125.16 64.08 124.39 64.8 123.29 65.52 122.09 66.24 120.8 66.96 119.43 67.68 117.96 68.4 116.41 69.12 114.78 70.02 112.63 70.92 110.36 71.82 107.98 72.72 105.49 73.8 102.36 74.88 99.11 75.96 95.73 77.22 91.65 78.66 86.82 80.28 81.23 82.26 74.22 86.76 58.02 88.92 50.33 90.54 44.7 91.98 39.83 93.24 35.7 94.5 31.71 95.58 28.43 96.66 25.27 97.56 22.75 98.46 20.33 99.36 18.03 100.26 15.84 101.16 13.78 101.88 12.22 102.6 10.74 103.32 9.36 104.04 8.06 104.76 6.85 105.48 5.73 106.02 4.96 106.56 4.24 107.1 3.57 107.64 2.96 108.18 2.41 108.72 1.91 109.26 1.47 109.8 1.09 110.34 0.76 110.88 0.49 111.42 0.28 111.96 0.13 112.5 0.04 113.04 0 113.58 0.02 114.12 0.1 114.66 0.24 115.2 0.44 115.74 0.7 116.28 1.01 116.82 1.39 117.36 1.81 117.9 2.3 118.44 2.84 118.98 3.44 119.52 4.09 120.06 4.8 120.6 5.57 121.32 6.66 122.04 7.86 122.76 9.14 123.48 10.52 124.2 11.98 124.92 13.52 125.64 15.15 126.54 17.3 127.44 19.57 128.34 21.95 129.24 24.43 130.32 27.55 131.4 30.8 132.48 34.18 133.74 38.26 135.18 43.08 136.8 48.67 138.78 55.67 143.28 71.88 145.44 79.57 147.06 85.2 148.5 90.07 149.76 94.21 151.02 98.2 152.1 101.49 153.18 104.65 154.08 107.17 154.98 109.59 155.88 111.9 156.78 114.09 157.68 116.16 158.4 117.72 159.12 119.2 159.84 120.59 160.56 121.89 161.28 123.1 162 124.22 162.54 125 163.08 125.72 163.62 126.39 164.16 127 164.7 127.56 165.24 128.06 165.78 128.51 166.32 128.89 166.86 129.22 167.4 129.49 167.94 129.71 168.48 129.86 169.02 129.96 169.56 130 170.1 129.98 170.64 129.9 171.18 129.76 171.72 129.57 172.26 129.32 172.8 129 173.34 128.64 173.88 128.21 174.42 127.73 174.96 127.19 175.5 126.59 176.04 125.94 176.58 125.24 177.12 124.48 177.84 123.38 178.56 122.19 179.28 120.91 180 119.54"/><path class="svg-plot-fill svg-plot-f0 svg-plot-h0" d="M 0 65 3.06 54 4.86 47.66 6.48 42.1 7.74 37.9 9 33.84 10.08 30.47 11.16 27.23 12.24 24.13 13.14 21.65 14.04 19.29 14.94 17.03 15.84 14.9 16.56 13.29 17.28 11.75 18 10.3 18.72 8.94 19.44 7.67 20.16 6.49 20.88 5.41 21.42 4.66 21.96 3.96 22.5 3.32 23.04 2.73 23.58 2.2 24.12 1.72 24.66 1.31 25.2 0.95 25.74 0.64 26.28 0.4 26.82 0.21 27.36 0.08 27.9 0.01 28.44 0 28.98 0.05 29.52 0.16 30.06 0.32 30.6 0.54 31.14 0.82 31.68 1.16 32.22 1.56 32.76 2.01 33.3 2.52 33.84 3.08 34.38 3.7 34.92 4.38 35.46 5.11 36 5.9 36.72 7.02 37.44 8.25 38.16 9.56 38.88 10.96 39.6 12.45 40.32 14.02 41.22 16.1 42.12 18.3 43.02 20.62 43.92 23.05 44.82 25.58 45.9 28.75 46.98 32.05 48.24 36.05 49.5 40.19 50.94 45.07 52.56 50.71 54.72 58.41 59.22 74.61 61.2 81.61 62.82 87.19 64.26 92 65.52 96.07 66.6 99.44 67.68 102.68 68.76 105.79 69.66 108.27 70.56 110.64 71.46 112.9 72.36 115.03 73.08 116.65 73.8 118.19 74.52 119.64 75.24 121 75.96 122.28 76.68 123.46 77.4 124.55 77.94 125.31 78.48 126.01 79.02 126.65 79.56 127.24 80.1 127.78 80.64 128.25 81.18 128.67 81.72 129.04 82.26 129.34 82.8 129.59 83.34 129.78 83.88 129.91 84.42 129.98 84.96 130 85.5 129.95 86.04 129.85 86.58 129.69 87.12 129.47 87.66 129.19 88.2 128.86 88.74 128.47 89.28 128.02 89.82 127.51 90.36 126.95 90.9 126.33 91.44 125.66 91.98 124.93 92.52 124.15 93.24 123.02 93.96 121.8 94.68 120.5 95.4 119.1 96.12 117.61 96.84 116.04 97.56 114.39 98.46 112.22 99.36 109.93 100.26 107.53 101.16 105.02 102.24 101.87 103.32 98.6 104.4 95.2 105.66 91.1 107.1 86.26 108.72 80.65 110.7 73.63 115.38 56.78 117.36 49.75 118.98 44.13 120.42 39.28 121.68 35.17 122.76 31.76 123.84 28.47 124.92 25.31 125.82 22.79 126.72 20.37 127.62 18.06 128.52 15.88 129.42 13.81 130.14 12.25 130.86 10.77 131.58 9.38 132.3 8.08 133.02 6.87 133.74 5.76 134.28 4.98 134.82 4.26 135.36 3.59 135.9 2.98 136.44 2.42 136.98 1.93 137.52 1.48 138.06 1.1 138.6 0.77 139.14 0.5 139.68 0.29 140.22 0.13 140.76 0.04 141.3 0 141.84 0.02 142.38 0.1 142.92 0.24 143.46 0.44 144 0.69 144.54 1 145.08 1.37 145.62 1.8 146.16 2.29 146.7 2.83 147.24 3.42 147.78 4.08 148.32 4.78 148.86 5.54 149.58 6.64 150.3 7.83 151.02 9.12 151.74 10.49 152.46 11.95 153.18 13.49 153.9 15.12 154.8 17.26 155.7 19.53 156.6 21.91 157.5 24.39 158.58 27.51 159.66 30.76 160.74 34.14 162 38.21 163.44 43.03 165.06 48.62 167.04 55.62 171.54 71.83 173.7 79.52 175.32 85.15 176.76 90.03 178.02 94.16 179.28 98.15 180 100.36 180 65 0 65"/><path class="svg-plot-line svg-plot-s0 svg-plot-d0" d="M 0 65 3.06 54 4.86 47.66 6.48 42.1 7.74 37.9 9 33.84 10.08 30.47 11.16 27.23 12.24 24.13 13.14 21.65 14.04 19.29 14.94 17.03 15.84 14.9 16.56 13.29 17.28 11.75 18 10.3 18.72 8.94 19.44 7.67 20.16 6.49 20.88 5.41 21.42 4.66 21.96 3.96 22.5 3.32 23.04 2.73 23.58 2.2 24.12 1.72 24.66 1.31 25.2 0.95 25.74 0.64 26.28 0.4 26.82 0.21 27.36 0.08 27.9 0.01 28.44 0 28.98 0.05 29.52 0.16 30.06 0.32 30.6 0.54 31.14 0.82 31.68 1.16 32.22 1.56 32.76 2.01 33.3 2.52 33.84 3.08 34.38 3.7 34.92 4.38 35.46 5.11 36 5.9 36.72 7.02 37.44 8.25 38.16 9.56 38.88 10.96 39.6 12.45 40.32 14.02 41.22 16.1 42.12 18.3 43.02 20.62 43.92 23.05 44.82 25.58 45.9 28.75 46.98 32.05 48.24 36.05 49.5 40.19 50.94 45.07 52.56 50.71 54.72 58.41 59.22 74.61 61.2 81.61 62.82 87.19 64.26 92 65.52 96.07 66.6 99.44 67.68 102.68 68.76 105.79 69.66 108.27 70.56 110.64 71.46 112.9 72.36 115.03 73.08 116.65 73.8 118.19 74.52 119.64 75.24 121 75.96 122.28 76.68 123.46 77.4 124.55 77.94 125.31 78.48 126.01 79.02 126.65 79.56 127.24 80.1 127.78 80.64 128.25 81.18 128.67 81.72 129.04 82.26 129.34 82.8 129.59 83.34 129.78 83.88 129.91 84.42 129.98 84.96 130 85.5 129.95 86.04 129.85 86.58 129.69 87.12 129.47 87.66 129.19 88.2 128.86 88.74 128.47 89.28 128.02 89.82 127.51 90.36 126.95 90.9 126.33 91.44 125.66 91.98 124.93 92.52 124.15 93.24 123.02 93.96 121.8 94.68 120.5 95.4 119.1 96.12 117.61 96.84 116.04 97.56 114.39 98.46 112.22 99.36 109.93 100.26 107.53 101.16 105.02 102.24 101.87 103.32 98.6 104.4 95.2 105.66 91.1 107.1 86.26 108.72 80.65 110.7 73.63 115.38 56.78 117.36 49.75 118.98 44.13 120.42 39.28 121.68 35.17 122.76 31.76 123.84 28.47 124.92 25.31 125.82 22.79 126.72 20.37 127.62 18.06 128.52 15.88 129.42 13.81 130.14 12.25 130.86 10.77 131.58 9.38 132.3 8.08 133.02 6.87 133.74 5.76 134.28 4.98 134.82 4.26 135.36 3.59 135.9 2.98 136.44 2.42 136.98 1.93 137.52 1.48 138.06 1.1 138.6 0.77 139.14 0.5 139.68 0.29 140.22 0.13 140.76 0.04 141.3 0 141.84 0.02 142.38 0.1 142.92 0.24 143.46 0.44 144 0.69 144.54 1 145.08 1.37 145.62 1.8 146.16 2.29 146.7 2.83 147.24 3.42 147.78 4.08 148.32 4.78 148.86 5.54 149.58 6.64 150.3 7.83 151.02 9.12 151.74 10.49 152.46 11.95 153.18 13.49 153.9 15.12 154.8 17.26 155.7 19.53 156.6 21.91 157.5 24.39 158.58 27.51 159.66 30.76 160.74 34.14 162 38.21 163.44 43.03 165.06 48.62 167.04 55.62 171.54 71.83 173.7 79.52 175.32 85.15 176.76 90.03 178.02 94.16 179.28 98.15 180 100.36"/></g></g><g class="svg-plot-group"><text class="svg-plot-label svg-plot-t" x="0" y="0" transform="rotate(-90) translate(-64.1 -20.87)">signal</text><text class="svg-plot-value" style="text-anchor:end" x="-5" y="-0.9">1</text><text class="svg-plot-value" style="text-anchor:end" x="-5" y="129.1">-1</text><text class="svg-plot-value" style="text-anchor:end" x="-5" y="64.1">0</text><text class="svg-plot-label svg-plot-t" x="90" y="154.1">time</text><text class="svg-plot-value" x="180" y="138.6">10</text><text class="svg-plot-value" x="0" y="138.6">0</text><text class="svg-plot-label svg-plot-t1" style="text-anchor:start" x="183" y="118.34">cos(x)</text><text class="svg-plot-label svg-plot-t0" style="text-anchor:start" x="183" y="99.1614">sin(x)</text></g><defs><g id="svg-plot-marker0" class="svg-plot-marker"><circle cx="0" cy="0" r="1" stroke="none"/></g><g id="svg-plot-marker1" class="svg-plot-marker"><path d="M0 0.9 -0.9 0 0 -0.9 0.9 0Z" fill="#FFFA" stroke-linejoin="miter" stroke-width="0.5"/></g><g id="svg-plot-marker2" class="svg-plot-marker"><path fill="none" d="M0 -1.2 0 1.2 M -1.2 0 1.2 0" stroke-width="0.6"/></g><g id="svg-plot-marker3" class="svg-plot-marker"><circle cx="0" cy="0" fill="#FFFA" r="0.82" stroke-width="0.55"/></g><g id="svg-plot-marker4" class="svg-plot-marker"><path stroke="none" d="M0 -1.25 1.25 0.9 -1.25 0.9Z"/></g><mask id="svg-plot-hatch0"><rect x="-313" y="-313" width="626" height="626" fill="url(#svg-plot-hatch0-pattern)" style="transform:rotate(30deg)"/></mask><pattern patternUnits="userSpaceOnUse" id="svg-plot-hatch0-pattern" class="svg-plot-hatch" x="0" y="0" width="10" height="2.4"><line x1="-1" x2="11" y1="1.2" y2="1.2" stroke="#FFF" fill="none"/><rect x="-1" y="-1" width="12" height="12" fill="#FFF2" stroke="none"/></pattern><mask id="svg-plot-hatch1"><rect x="-313" y="-313" width="626" height="626" fill="url(#svg-plot-hatch1-pattern)" style="transform:rotate(-50deg)"/></mask><pattern patternUnits="userSpaceOnUse" id="svg-plot-hatch1-pattern" class="svg-plot-hatch" x="0" y="0" width="10" height="3"><line x1="-1" x2="11" y1="1.5" y2="1.5" stroke="#FFF" fill="none"/><rect x="-1" y="-1" width="12" height="12" fill="#FFF2" stroke="none"/></pattern><mask id="svg-plot-hatch3"><rect x="-313" y="-313" width="626" height="626" fill="url(#svg-plot-hatch3-pattern)" style="transform:rotate(8deg)"/><rect x="-313" y="-313" width="626" height="626" fill="url(#svg-plot-hatch3-pattern)" style="transform:rotate(93deg)"/></mask><pattern patternUnits="userSpaceOnUse" id="svg-plot-hatch3-pattern" class="svg-plot-hatch" x="0" y="0" width="10" height="3"><line x1="-1" x2="11" y1="1.5" y2="1.5" stroke="#FFF" fill="none"/><rect x="-1" y="-1" width="12" height="12" fill="#FFF2" stroke="none"/></pattern></defs><style>.svg-plot{stroke-linecap:butt;stroke-linejoin:round;}.svg-plot-bg{fill:#FFF;stroke:none;}.svg-plot-axis{stroke:none;fill:#FFFFFFD9;}.svg-plot-legend{stroke:none;fill:#FFFFFFE4;}.svg-plot-line{stroke:blue;fill:none;stroke-width:2px;stroke-linejoin:round;}.svg-plot-fill{stroke:none;opacity:0.6;}.svg-plot-dot .svg-plot-fill{opacity:0.6;}.svg-plot-major{stroke:#000;stroke-width:1px;stroke-linecap:square;fill:none;}.svg-plot-minor{stroke:#0000004D;stroke-width:0.5px;stroke-dasharray:0.5 1.5;stroke-linecap:round;fill:none;}.svg-plot-tick{stroke:#000;fill:none;stroke-width:1px;stroke-linecap:butt;}.svg-plot-value,.svg-plot-label,.svg-plot-title{font-family:Arial,sans-serif;fill:#000;stroke:#FFFFFF48;stroke-width:2.5px;paint-order:stroke fill;text-anchor:middle;dominant-baseline:central;alignment-baseline:baseline;}.svg-plot-label{font-size:12px;}.svg-plot-value{font-size:9px;}.svg-plot-title{font-size:13px;}.svg-plot-hatch{stroke:#FFF;stroke-width:1px;}.svg-plot-marker{transform:scale(3.25);}.svg-plot-s{stroke:#000;}.svg-plot-f,.svg-plot-t{fill:#000;}.svg-plot-s0{stroke:#CC0000}.svg-plot-f0,.svg-plot-t0{fill:#CC0000}.svg-plot-s1{stroke:#0073E6}.svg-plot-f1,.svg-plot-t1{fill:#0073E6}.svg-plot-s2{stroke:#00B300}.svg-plot-f2,.svg-plot-t2{fill:#00B300}.svg-plot-s3{stroke:#806600}.svg-plot-f3,.svg-plot-t3{fill:#806600}.svg-plot-s4{stroke:#E69900}.svg-plot-f4,.svg-plot-t4{fill:#E69900}.svg-plot-s5{stroke:#CC00CC}.svg-plot-f5,.svg-plot-t5{fill:#CC00CC}.svg-plot-d0{stroke-width:1.8px}.svg-plot-d1{stroke-dasharray:5.6 3.2}.svg-plot-d2{stroke-dasharray:2.4 2.4}.svg-plot-d3{stroke-dasharray:10 8}.svg-plot-d4{stroke-dasharray:8 2 2 2 2 2}.svg-plot-d5{stroke-dasharray:20 6}.svg-plot-d6{stroke-dasharray:8 4 2 4}.svg-plot-h0{mask:url(#svg-plot-hatch0)}.svg-plot-h1{mask:url(#svg-plot-hatch1)}.svg-plot-h2{opacity:0.3}.svg-plot-h3{mask:url(#svg-plot-hatch3)}#svg-plot-hatch0-pattern{stroke-width:0.9px}#svg-plot-hatch3-pattern{stroke-width:0.7px}</style><style>.svg-plot-value,.svg-plot-label{font-family:Verdana,sans-serif;}.svg-plot-axis{fill:#EEE;}.svg-plot-tick{stroke:#666;stroke-width:0.75px;}.svg-plot-value{fill:#666;opacity:0.8;font-weight:bold;}.svg-plot-major{stroke:#FFF;stroke-width:1.5px;}.svg-plot-minor{stroke:#FFF;stroke-width:0.75px;stroke-dasharray:none;}</style><script>!function(t,a,o){Array.from(t.querySelectorAll(&quot;style&quot;)).pop().textContent+=' .svg-plot-value,.svg-plot-label{font-family:&quot;Geraint Dense&quot;,&quot;Comic Sans MS&quot;,Arial,sans-serif}';t.querySelectorAll(&quot;path&quot;).forEach(function(e){function v(){return 2*(o()-.5)}var r=e.getAttribute(&quot;d&quot;);function n(){var l,i,u=40*o(),f=!0,s=v(),c=v(),p=v(),m=v(),t=r.replace(/(-?[0-9\.]+) (-?[0-9\.]+)/g,function(t,e,r){let o=&quot;&quot;;return function t(e,r){if(e=parseFloat(e),r=parseFloat(r),!f){var n=e-l,a=r-i;if(20&lt;(n=Math.sqrt(n*n+a*a)))return t(.5*(l+e),.5*(i+r)),t(e,r);40&lt;(u+=n)&amp;&amp;(u=0,s=c,p=m,c=v(),m=v())}f=!1,l=e,i=r;a=u/40;e+=s+(c-s)*a,r+=p+(m-p)*a,o+=&quot; &quot;+e+&quot; &quot;+r}(e,r),o});e.setAttribute(&quot;d&quot;,t),a(n,240*(.9+0*o()))}a(n,240*o())})}(document,setTimeout,Math.random);</script></svg>