<?xml version="1.0" encoding="utf-8" standalone="no"?>
<!DOCTYPE svg PUBLIC "-//W3C//DTD SVG 1.1//EN" "http://www.w3.org/Graphics/SVG/1.1/DTD/svg11.dtd">
<svg version="1.1" class="svg-plot" xmlns="http://www.w3.org/2000/svg" width="326.65pt" height="184pt" viewBox="-35.37 -14.5 326.65 184" preserveAspectRatio="xMidYMid"><rect x="-25.37" y="-4.5" width="306.65" height="164" class="svg-plot-bg"/><rect x="0" y="0" width="240" height="130" class="svg-plot-axis"/><line x1="0" x2="0" y1="0" y2="130" class="svg-plot-major"/><line x1="0" x2="240" y1="65" y2="65" class="svg-plot-major"/><line x1="0" x2="240" y1="130" y2="130" class="svg-plot-minor"/><line x1="0" x2="240" y1="0" y2="0" class="svg-plot-minor"/><clipPath id="clip0"><rect x="-1" y="-1" width="242" height="132"/></clipPath><g clip-path="url(#clip0)"><path class="svg-plot-fill svg-plot-f1 svg-plot-h1" d="M 0 0 0.72 0.03 1.44 0.12 2.16 0.26 2.88 0.47 3.6 0.73 4.32 1.05 5.04 1.43 5.76 1.86 6.48 2.35 7.2 2.9 7.92 3.51 8.64 4.17 9.36 4.88 10.08 5.65 10.8 6.47 11.52 7.35 12.24 8.27 13.2 9.59 14.16 10.99 15.12 12.48 16.08 14.05 17.04 15.71 18 17.44 18.96 19.25 19.92 21.13 21.12 23.59 22.32 26.14 23.52 28.79 24.72 31.54 26.16 34.94 27.6 38.45 29.28 42.66 30.96 46.99 33.12 52.67 35.76 59.75 41.04 74.02 43.44 80.4 45.36 85.4 47.04 89.66 48.48 93.23 49.92 96.69 51.36 100.03 52.56 102.73 53.76 105.32 54.96 107.82 56.16 110.21 57.12 112.04 58.08 113.8 59.04 115.48 60 117.07 60.96 118.59 61.92 120.02 62.88 121.36 63.6 122.3 64.32 123.2 65.04 124.04 65.76 124.83 66.48 125.56 67.2 126.24 67.92 126.87 68.64 127.44 69.36 127.95 70.08 128.41 70.8 128.81 71.52 129.15 72.24 129.44 72.96 129.66 73.68 129.83 74.4 129.94 75.12 130 75.84 129.99 76.56 129.92 77.28 129.8 78 129.62 78.72 129.38 79.44 129.08 80.16 128.72 80.88 128.31 81.6 127.84 82.32 127.32 83.04 126.73 83.76 126.09 84.48 125.4 85.2 124.65 85.92 123.85 86.64 123 87.36 122.09 88.08 121.13 89.04 119.78 90 118.34 90.96 116.81 91.92 115.2 92.88 113.51 93.84 111.74 94.8 109.89 96 107.49 97.2 104.98 98.4 102.36 99.6 99.66 101.04 96.3 102.48 92.83 103.92 89.25 105.6 84.98 107.52 79.97 109.92 73.58 115.44 58.67 118.08 51.6 120 46.56 121.68 42.25 123.36 38.04 124.8 34.55 126.24 31.16 127.44 28.43 128.64 25.79 129.84 23.24 131.04 20.81 132 18.94 132.96 17.14 133.92 15.42 134.88 13.78 135.84 12.22 136.8 10.74 137.76 9.36 138.72 8.06 139.44 7.14 140.16 6.28 140.88 5.47 141.6 4.71 142.32 4.01 143.04 3.37 143.76 2.77 144.48 2.24 145.2 1.76 145.92 1.34 146.64 0.97 147.36 0.67 148.08 0.42 148.8 0.22 149.52 0.09 150.24 0.02 150.96 0 151.68 0.04 152.4 0.15 153.12 0.3 153.84 0.52 154.56 0.8 155.28 1.13 156 1.52 156.72 1.97 157.44 2.47 158.16 3.04 158.88 3.65 159.6 4.32 160.32 5.05 161.04 5.83 161.76 6.66 162.48 7.55 163.2 8.49 164.16 9.82 165.12 11.24 166.08 12.74 167.04 14.33 168 16 168.96 17.74 169.92 19.57 170.88 21.46 172.08 23.93 173.28 26.5 174.48 29.16 175.68 31.92 177.12 35.33 178.56 38.85 180.24 43.08 182.16 48.04 184.32 53.75 187.2 61.49 192 74.46 194.4 80.83 196.32 85.82 198 90.07 199.44 93.62 200.88 97.07 202.32 100.4 203.52 103.08 204.72 105.67 205.92 108.15 207.12 110.53 208.08 112.35 209.04 114.09 210 115.75 210.96 117.34 211.92 118.84 212.88 120.25 213.84 121.58 214.56 122.51 215.28 123.39 216 124.22 216.72 125 217.44 125.72 218.16 126.39 218.88 127 219.6 127.56 220.32 128.06 221.04 128.51 221.76 128.89 222.48 129.22 223.2 129.49 223.92 129.71 224.64 129.86 225.36 129.96 226.08 130 226.8 129.98 227.52 129.9 228.24 129.76 228.96 129.57 229.68 129.32 230.4 129 231.12 128.64 231.84 128.21 232.56 127.73 233.28 127.19 234 126.59 234.72 125.94 235.44 125.24 236.16 124.48 236.88 123.66 237.6 122.8 238.32 121.88 239.04 120.91 240 119.54 240 65 0 65"/><path class="svg-plot-line svg-plot-s1 svg-plot-d1" d="M 0 0 0.72 0.03 1.44 0.12 2.16 0.26 2.88 0.47 3.6 0.73 4.32 1.05 5.04 1.43 5.76 1.86 6.48 2.35 7.2 2.9 7.92 3.51 8.64 4.17 9.36 4.88 10.08 5.65 10.8 6.47 11.52 7.35 12.24 8.27 13.2 9.59 14.16 10.99 15.12 12.48 16.08 14.05 17.04 15.71 18 17.44 18.96 19.25 19.92 21.13 21.12 23.59 22.32 26.14 23.52 28.79 24.72 31.54 26.16 34.94 27.6 38.45 29.28 42.66 30.96 46.99 33.12 52.67 35.76 59.75 41.04 74.02 43.44 80.4 45.36 85.4 47.04 89.66 48.48 93.23 49.92 96.69 51.36 100.03 52.56 102.73 53.76 105.32 54.96 107.82 56.16 110.21 57.12 112.04 58.08 113.8 59.04 115.48 60 117.07 60.96 118.59 61.92 120.02 62.88 121.36 63.6 122.3 64.32 123.2 65.04 124.04 65.76 124.83 66.48 125.56 67.2 126.24 67.92 126.87 68.64 127.44 69.36 127.95 70.08 128.41 70.8 128.81 71.52 129.15 72.24 129.44 72.96 129.66 73.68 129.83 74.4 129.94 75.12 130 75.84 129.99 76.56 129.92 77.28 129.8 78 129.62 78.72 129.38 79.44 129.08 80.16 128.72 80.88 128.31 81.6 127.84 82.32 127.32 83.04 126.73 83.76 126.09 84.48 125.4 85.2 124.65 85.92 123.85 86.64 123 87.36 122.09 88.08 121.13 89.04 119.78 90 118.34 90.96 116.81 91.92 115.2 92.88 113.51 93.84 111.74 94.8 109.89 96 107.49 97.2 104.98 98.4 102.36 99.6 99.66 101.04 96.3 102.48 92.83 103.92 89.25 105.6 84.98 107.52 79.97 109.92 73.58 115.44 58.67 118.08 51.6 120 46.56 121.68 42.25 123.36 38.04 124.8 34.55 126.24 31.16 127.44 28.43 128.64 25.79 129.84 23.24 131.04 20.81 132 18.94 132.96 17.14 133.92 15.42 134.88 13.78 135.84 12.22 136.8 10.74 137.76 9.36 138.72 8.06 139.44 7.14 140.16 6.28 140.88 5.47 141.6 4.71 142.32 4.01 143.04 3.37 143.76 2.77 144.48 2.24 145.2 1.76 145.92 1.34 146.64 0.97 147.36 0.67 148.08 0.42 148.8 0.22 149.52 0.09 150.24 0.02 150.96 0 151.68 0.04 152.4 0.15 153.12 0.3 153.84 0.52 154.56 0.8 155.28 1.13 156 1.52 156.72 1.97 157.44 2.47 158.16 3.04 158.88 3.65 159.6 4.32 160.32 5.05 161.04 5.83 161.76 6.66 162.48 7.55 163.2 8.49 164.16 9.82 165.12 11.24 166.08 12.74 167.04 14.33 168 16 168.96 17.74 169.92 19.57 170.88 21.46 172.08 23.93 173.28 26.5 174.48 29.16 175.68 31.92 177.12 35.33 178.56 38.85 180.24 43.08 182.16 48.04 184.32 53.75 187.2 61.49 192 74.46 194.4 80.83 196.32 85.82 198 90.07 199.44 93.62 200.88 97.07 202.32 100.4 203.52 103.08 204.72 105.67 205.92 108.15 207.12 110.53 208.08 112.35 209.04 114.09 210 115.75 210.96 117.34 211.92 118.84 212.88 120.25 213.84 121.58 214.56 122.51 215.28 123.39 216 124.22 216.72 125 217.44 125.72 218.16 126.39 218.88 127 219.6 127.56 220.32 128.06 221.04 128.51 221.76 128.89 222.48 129.22 223.2 129.49 223.92 129.71 224.64 129.86 225.36 129.96 226.08 130 226.8 129.98 227.52 129.9 228.24 129.76 228.96 129.57 229.68 129.32 230.4 129 231.12 128.64 231.84 128.21 232.56 127.73 233.28 127.19 234 126.59 234.72 125.94 235.44 125.24 236.16 124.48 236.88 123.66 237.6 122.8 238.32 121.88 239.04 120.91 240 119.54"/><path class="svg-plot-fill svg-plot-f0 svg-plot-h0" d="M 0 65 3.84 54.64 6 48.92 7.92 43.94 9.6 39.69 11.04 36.14 12.48 32.7 13.68 29.92 14.88 27.23 16.08 24.64 17.28 22.14 18.48 19.75 19.44 17.92 20.4 16.17 21.36 14.49 22.32 12.89 23.28 11.38 24.24 9.96 25.2 8.62 25.92 7.67 26.64 6.78 27.36 5.94 28.08 5.15 28.8 4.42 29.52 3.74 30.24 3.11 30.96 2.55 31.68 2.03 32.4 1.58 33.12 1.18 33.84 0.84 34.56 0.56 35.28 0.33 36 0.16 36.72 0.05 37.44 0 38.16 0.01 38.88 0.08 39.6 0.2 40.32 0.39 41.04 0.63 41.76 0.93 42.48 1.29 43.2 1.7 43.92 2.17 44.64 2.7 45.36 3.28 46.08 3.92 46.8 4.62 47.52 5.37 48.24 6.17 48.96 7.02 49.68 7.93 50.4 8.89 51.36 10.25 52.32 11.69 53.28 13.22 54.24 14.84 55.2 16.53 56.16 18.3 57.12 20.15 58.32 22.55 59.52 25.07 60.72 27.68 61.92 30.39 63.36 33.75 64.8 37.22 66.24 40.79 67.92 45.07 69.84 50.08 72.24 56.47 77.76 71.39 80.4 78.45 82.32 83.49 84 87.8 85.68 92 87.12 95.5 88.56 98.89 89.76 101.62 90.96 104.25 92.16 106.79 93.36 109.23 94.32 111.1 95.28 112.9 96.24 114.61 97.2 116.25 98.16 117.81 99.12 119.28 100.08 120.67 100.8 121.65 101.52 122.58 102.24 123.46 102.96 124.29 103.68 125.06 104.4 125.78 105.12 126.44 105.84 127.05 106.56 127.6 107.28 128.1 108 128.54 108.72 128.92 109.44 129.25 110.16 129.51 110.88 129.72 111.6 129.87 112.32 129.97 113.04 130 113.76 129.98 114.48 129.89 115.2 129.75 115.92 129.55 116.64 129.29 117.36 128.98 118.08 128.6 118.8 128.17 119.52 127.69 120.24 127.14 120.96 126.54 121.68 125.89 122.4 125.18 123.12 124.41 123.84 123.6 124.56 122.73 125.28 121.8 126 120.83 126.96 119.46 127.92 117.99 128.88 116.44 129.84 114.81 130.8 113.11 131.76 111.32 132.72 109.46 133.92 107.03 135.12 104.5 136.32 101.87 137.52 99.15 138.96 95.77 140.4 92.28 142.08 88.09 143.76 83.79 145.68 78.75 148.08 72.34 153.84 56.78 156.24 50.38 158.16 45.37 159.84 41.08 161.28 37.5 162.72 34.02 164.16 30.65 165.36 27.93 166.56 25.31 167.76 22.79 168.96 20.37 169.92 18.52 170.88 16.74 171.84 15.03 172.8 13.41 173.76 11.87 174.72 10.42 175.68 9.05 176.4 8.08 177.12 7.17 177.84 6.3 178.56 5.49 179.28 4.73 180 4.03 180.72 3.38 181.44 2.79 182.16 2.25 182.88 1.77 183.6 1.35 184.32 0.98 185.04 0.67 185.76 0.42 186.48 0.23 187.2 0.09 187.92 0.02 188.64 0 189.36 0.04 190.08 0.14 190.8 0.3 191.52 0.52 192.24 0.79 192.96 1.12 193.68 1.51 194.4 1.96 195.12 2.46 195.84 3.02 196.56 3.64 197.28 4.31 198 5.03 198.72 5.81 199.44 6.64 200.16 7.53 200.88 8.46 201.84 9.79 202.8 11.21 203.76 12.71 204.72 14.3 205.68 15.96 206.64 17.71 207.6 19.53 208.56 21.42 209.76 23.89 210.96 26.46 212.16 29.12 213.36 31.87 214.8 35.29 216.24 38.81 217.92 43.03 219.84 47.99 222 53.7 224.88 61.44 229.68 74.41 232.08 80.78 234 85.77 235.68 90.03 237.12 93.58 238.56 97.03 240 100.36 240 65 0 65"/><path class="svg-plot-line svg-plot-s0 svg-plot-d0" d="M 0 65 3.84 54.64 6 48.92 7.92 43.94 9.6 39.69 11.04 36.14 12.48 32.7 13.68 29.92 14.88 27.23 16.08 24.64 17.28 22.14 18.48 19.75 19.44 17.92 20.4 16.17 21.36 14.49 22.32 12.89 23.28 11.38 24.24 9.96 25.2 8.62 25.92 7.67 26.64 6.78 27.36 5.94 28.08 5.15 28.8 4.42 29.52 3.74 30.24 3.11 30.96 2.55 31.68 2.03 32.4 1.58 33.12 1.18 33.84 0.84 34.56 0.56 35.28 0.33 36 0.16 36.72 0.05 37.44 0 38.16 0.01 38.88 0.08 39.6 0.2 40.32 0.39 41.04 0.63 41.76 0.93 42.48 1.29 43.2 1.7 43.92 2.17 44.64 2.7 45.36 3.28 46.08 3.92 46.8 4.62 47.52 5.37 48.24 6.17 48.96 7.02 49.68 7.93 50.4 8.89 51.36 10.25 52.32 11.69 53.28 13.22 54.24 14.84 55.2 16.53 56.16 18.3 57.12 20.15 58.32 22.55 59.52 25.07 60.72 27.68 61.92 30.39 63.36 33.75 64.8 37.22 66.24 40.79 67.92 45.07 69.84 50.08 72.24 56.47 77.76 71.39 80.4 78.45 82.32 83.49 84 87.8 85.68 92 87.12 95.5 88.56 98.89 89.76 101.62 90.96 104.25 92.16 106.79 93.36 109.23 94.32 111.1 95.28 112.9 96.24 114.61 97.2 116.25 98.16 117.81 99.12 119.28 100.08 120.67 100.8 121.65 101.52 122.58 102.24 123.46 102.96 124.29 103.68 125.06 104.4 125.78 105.12 126.44 105.84 127.05 106.56 127.6 107.28 128.1 108 128.54 108.72 128.92 109.44 129.25 110.16 129.51 110.88 129.72 111.6 129.87 112.32 129.97 113.04 130 113.76 129.98 114.48 129.89 115.2 129.75 115.92 129.55 116.64 129.29 117.36 128.98 118.08 128.6 118.8 128.17 119.52 127.69 120.24 127.14 120.96 126.54 121.68 125.89 122.4 125.18 123.12 124.41 123.84 123.6 124.56 122.73 125.28 121.8 126 120.83 126.96 119.46 127.92 117.99 128.88 116.44 129.84 114.81 130.8 113.11 131.76 111.32 132.72 109.46 133.92 107.03 135.12 104.5 136.32 101.87 137.52 99.15 138.96 95.77 140.4 92.28 142.08 88.09 143.76 83.79 145.68 78.75 148.08 72.34 153.84 56.78 156.24 50.38 158.16 45.37 159.84 41.08 161.28 37.5 162.72 34.02 164.16 30.65 165.36 27.93 166.56 25.31 167.76 22.79 168.96 20.37 169.92 18.52 170.88 16.74 171.84 15.03 172.8 13.41 173.76 11.87 174.72 10.42 175.68 9.05 176.4 8.08 177.12 7.17 177.84 6.3 178.56 5.49 179.28 4.73 180 4.03 180.72 3.38 181.44 2.79 182.16 2.25 182.88 1.77 183.6 1.35 184.32 0.98 185.04 0.67 185.76 0.42 186.48 0.23 187.2 0.09 187.92 0.02 188.64 0 189.36 0.04 190.08 0.14 190.8 0.3 191.52 0.52 192.24 0.79 192.96 1.12 193.68 1.51 194.4 1.96 195.12 2.46 195.84 3.02 196.56 3.64 197.28 4.31 198 5.03 198.72 5.81 199.44 6.64 200.16 7.53 200.88 8.46 201.84 9.79 202.8 11.21 203.76 12.71 204.72 14.3 205.68 15.96 206.64 17.71 207.6 19.53 208.56 21.42 209.76 23.89 210.96 26.46 212.16 29.12 213.36 31.87 214.8 35.29 216.24 38.81 217.92 43.03 219.84 47.99 222 53.7 224.88 61.44 229.68 74.41 232.08 80.78 234 85.77 235.68 90.03 237.12 93.58 238.56 97.03 240 100.36"/></g><g><text class="svg-plot-label svg-plot-t" x="0" y="0" transform="rotate(-90) translate(-64.1 -20.87)">signal</text><text class="svg-plot-value" style="text-anchor:end" x="-5" y="-0.9">1</text><text class="svg-plot-value" style="text-anchor:end" x="-5" y="129.1">-1</text><text class="svg-plot-value" style="text-anchor:end" x="-5" y="64.1">0</text><text class="svg-plot-label svg-plot-t" x="120" y="154.1">time</text><text class="svg-plot-value" x="240" y="138.6">10</text><text class="svg-plot-value" x="0" y="138.6">0</text><text class="svg-plot-label svg-plot-t1" style="text-anchor:start" x="243" y="118.34">cos(x)</text><text class="svg-plot-label svg-plot-t0" style="text-anchor:start" x="243" y="99.1614">sin(x)</text></g><defs><g id="svg-plot-marker0" class="svg-plot-marker"><circle cx="0" cy="0" r="1" stroke="none"/></g><g id="svg-plot-marker1" class="svg-plot-marker"><path d="M0 0.9 -0.9 0 0 -0.9 0.9 0Z" fill="#FFFA" stroke-linejoin="miter" stroke-width="0.5"/></g><g id="svg-plot-marker2" class="svg-plot-marker"><path fill="none" d="M0 -1.2 0 1.2 M -1.2 0 1.2 0" stroke-width="0.6"/></g><g id="svg-plot-marker3" class="svg-plot-marker"><circle cx="0" cy="0" fill="#FFFA" r="0.82" stroke-width="0.55"/></g><g id="svg-plot-marker4" class="svg-plot-marker"><path stroke="none" d="M0 -1.25 1.25 0.9 -1.25 0.9Z"/></g><mask id="svg-plot-hatch0"><rect x="-398" y="-398" width="796" height="796" fill="url(#svg-plot-hatch0-pattern)" style="transform:rotate(30deg)"/></mask><pattern patternUnits="userSpaceOnUse" id="svg-plot-hatch0-pattern" class="svg-plot-hatch" x="0" y="0" width="10" height="2.4"><line x1="-1" x2="11" y1="1.2" y2="1.2" stroke="#FFF" fill="none"/><rect x="-1" y="-1" width="12" height="12" fill="#FFF2" stroke="none"/></pattern><mask id="svg-plot-hatch1"><rect x="-398" y="-398" width="796" height="796" fill="url(#svg-plot-hatch1-pattern)" style="transform:rotate(-50deg)"/></mask><pattern patternUnits="userSpaceOnUse" id="svg-plot-hatch1-pattern" class="svg-plot-hatch" x="0" y="0" width="10" height="3"><line x1="-1" x2="11" y1="1.5" y2="1.5" stroke="#FFF" fill="none"/><rect x="-1" y="-1" width="12" height="12" fill="#FFF2" stroke="none"/></pattern><mask id="svg-plot-hatch3"><rect x="-398" y="-398" width="796" height="796" fill="url(#svg-plot-hatch3-pattern)" style="transform:rotate(8deg)"/><rect x="-398" y="-398" width="796" height="796" fill="url(#svg-plot-hatch3-pattern)" style="transform:rotate(93deg)"/></mask><pattern patternUnits="userSpaceOnUse" id="svg-plot-hatch3-pattern" class="svg-plot-hatch" x="0" y="0" width="10" height="3"><line x1="-1" x2="11" y1="1.5" y2="1.5" stroke="#FFF" fill="none"/><rect x="-1" y="-1" width="12" height="12" fill="#FFF2" stroke="none"/></pattern></defs><style>.svg-plot{stroke-linecap:butt;stroke-linejoin:round;}.svg-plot-bg{fill:none;stroke:none;}.svg-plot-axis{stroke:none;fill:#FFFFFFD9;}.svg-plot-legend{stroke:none;fill:#FFFFFFE4;}.svg-plot-line{stroke:blue;fill:none;stroke-width:2px;stroke-linejoin:round;}.svg-plot-fill{stroke:none;opacity:0.6;}.svg-plot-major{stroke:#000;stroke-width:1px;stroke-linecap:square;fill:none;}.svg-plot-minor{stroke:#0000004D;stroke-width:0.5px;stroke-dasharray:0.5 1.5;stroke-linecap:round;fill:none;}.svg-plot-tick{stroke:#000;fill:none;stroke-width:1px;stroke-linecap:butt;}.svg-plot-value,.svg-plot-label{font-family:Arial,sans-serif;fill:#000;stroke:#FFFFFF48;stroke-width:2.5px;paint-order:stroke fill;text-anchor:middle;dominant-baseline:central;alignment-baseline:baseline;}.svg-plot-label{font-size:12px;}.svg-plot-value{font-size:9px;}.svg-plot-hatch{stroke:#FFF;stroke-width:1px;}.svg-plot-marker{transform:scale(3.25);}.svg-plot-s{stroke:#000;}.svg-plot-f,.svg-plot-t{fill:#000;}.svg-plot-s0{stroke:#CC0000}.svg-plot-f0,.svg-plot-t0{fill:#CC0000}.svg-plot-s1{stroke:#0073E6}.svg-plot-f1,.svg-plot-t1{fill:#0073E6}.svg-plot-s2{stroke:#00B300}.svg-plot-f2,.svg-plot-t2{fill:#00B300}.svg-plot-s3{stroke:#806600}.svg-plot-f3,.svg-plot-t3{fill:#806600}.svg-plot-s4{stroke:#E69900}.svg-plot-f4,.svg-plot-t4{fill:#E69900}.svg-plot-s5{stroke:#CC00CC}.svg-plot-f5,.svg-plot-t5{fill:#CC00CC}.svg-plot-d0{stroke-width:1.8px}.svg-plot-d1{stroke-dasharray:5.6 3.2}.svg-plot-d2{stroke-dasharray:2.4 2.4}.svg-plot-d3{stroke-dasharray:10 8}.svg-plot-d4{stroke-dasharray:8 2 2 2 2 2}.svg-plot-d5{stroke-dasharray:20 6}.svg-plot-d6{stroke-dasharray:8 4 2 4}.svg-plot-h0{mask:url(#svg-plot-hatch0)}.svg-plot-h1{mask:url(#svg-plot-hatch1)}.svg-plot-h2{opacity:0.2}.svg-plot-h3{mask:url(#svg-plot-hatch3)}#svg-plot-hatch0-pattern{stroke-width:0.9px}#svg-plot-hatch3-pattern{stroke-width:0.7px}.svg-plot-value,.svg-plot-label{font-family:Verdana,sans-serif;}.svg-plot-axis{fill:#EEE;}.svg-plot-tick{stroke:#666;stroke-width:0.75px;}.svg-plot-value{fill:#666;opacity:0.8;font-weight:bold;}.svg-plot-major{stroke:#FFF;stroke-width:1.5px;}.svg-plot-minor{stroke:#FFF;stroke-width:0.75px;stroke-dasharray:none;}</style><script>var q=document,x=setTimeout,a=Math.random,r=q.querySelector(&quot;style&quot;);r.textContent='@import &quot;/style/article/dist.css&quot;;'+r.textContent+'.svg-plot-value,.svg-plot-label{font-family:&quot;Geraint Dense&quot;,Arial,sans-serif}';var t=[];q.querySelectorAll(&quot;path&quot;).forEach(function(e){var y=e.getAttribute(&quot;d&quot;);t.push(function(){var f=40*a(),u=!0,g=2*(a()-.5),h=2*(a()-.5),k=2*(a()-.5),l=2*(a()-.5),m,n,B=y.replace(/([0-9\.]+) ([0-9\.]+)/g,function(C,z,A){function p(b,c){b=parseFloat(b);c=parseFloat(c);if(!u){var d=b-m,v=c-n;d=Math.sqrt(d*
d+v*v);if(20&lt;d)return p(.5*(m+b),.5*(n+c)),p(b,c);f+=d;40&lt;f&amp;&amp;(f=0,g=h,k=l,h=2*(a()-.5),l=2*(a()-.5))}u=!1;m=b;n=c;d=f/40;b+=g+(h-g)*d;c+=k+(l-k)*d;result+=&quot; &quot;+b+&quot; &quot;+c}result=&quot;&quot;;p(z,A);return result});e.setAttribute(&quot;d&quot;,B)})});var w=function(){t.forEach(function(e){e()});x(w,240*(.9+.2*a()))};w()
</script></svg>