<?xml version="1.0" encoding="utf-8" standalone="no"?>
<!DOCTYPE svg PUBLIC "-//W3C//DTD SVG 1.1//EN" "http://www.w3.org/Graphics/SVG/1.1/DTD/svg11.dtd">
<svg version="1.1" class="svg-plot" xmlns="http://www.w3.org/2000/svg" width="326.65pt" height="184pt" viewBox="-35.37 -14.5 326.65 184" preserveAspectRatio="xMidYMid"><rect x="-25.37" y="-4.5" width="306.65" height="164" class="svg-plot-bg"/><rect x="0" y="0" width="240" height="130" class="svg-plot-axis"/><line x1="0" x2="0" y1="0" y2="130" class="svg-plot-major"/><line x1="0" x2="240" y1="65" y2="65" class="svg-plot-major"/><line x1="0" x2="240" y1="130" y2="130" class="svg-plot-minor"/><line x1="0" x2="240" y1="0" y2="0" class="svg-plot-minor"/><clipPath id="clip0"><rect x="-1" y="-1" width="242" height="132"/></clipPath><g clip-path="url(#clip0)"><path class="svg-plot-fill svg-plot-f1 svg-plot-h1" d="M 0 0 0.24 0 0.48 0.01 0.72 0.03 0.96 0.05 1.2 0.08 1.44 0.12 1.68 0.16 1.92 0.21 2.16 0.26 2.4 0.32 2.64 0.39 2.88 0.47 3.12 0.55 3.36 0.64 3.6 0.73 3.84 0.83 4.08 0.94 4.32 1.05 4.56 1.17 4.8 1.3 5.04 1.43 5.28 1.57 5.52 1.71 5.76 1.86 6 2.02 6.24 2.18 6.48 2.35 6.72 2.53 6.96 2.71 7.2 2.9 7.44 3.1 7.68 3.3 7.92 3.51 8.16 3.72 8.4 3.94 8.64 4.17 8.88 4.4 9.12 4.64 9.36 4.88 9.6 5.13 9.84 5.39 10.08 5.65 10.32 5.92 10.56 6.19 10.8 6.47 11.04 6.76 11.28 7.05 11.52 7.35 11.76 7.65 12 7.96 12.24 8.27 12.48 8.59 12.72 8.92 12.96 9.25 13.2 9.59 13.44 9.93 13.68 10.28 13.92 10.63 14.16 10.99 14.4 11.35 14.64 11.72 14.88 12.1 15.12 12.48 15.36 12.86 15.6 13.25 15.84 13.65 16.08 14.05 16.32 14.46 16.56 14.87 16.8 15.29 17.04 15.71 17.28 16.13 17.52 16.56 17.76 17 18 17.44 18.24 17.89 18.48 18.34 18.72 18.79 18.96 19.25 19.2 19.71 19.44 20.18 19.68 20.66 19.92 21.13 20.16 21.61 20.4 22.1 20.64 22.59 20.88 23.09 21.12 23.59 21.36 24.09 21.6 24.6 21.84 25.11 22.08 25.62 22.32 26.14 22.56 26.66 22.8 27.19 23.04 27.72 23.28 28.26 23.52 28.79 23.76 29.34 24 29.88 24.24 30.43 24.48 30.98 24.72 31.54 24.96 32.1 25.2 32.66 25.44 33.22 25.68 33.79 25.92 34.36 26.16 34.94 26.4 35.52 26.64 36.1 26.88 36.68 27.12 37.27 27.36 37.86 27.6 38.45 27.84 39.04 28.08 39.64 28.32 40.24 28.56 40.84 28.8 41.45 29.04 42.05 29.28 42.66 29.52 43.27 29.76 43.89 30 44.5 30.24 45.12 30.48 45.74 30.72 46.36 30.96 46.99 31.2 47.61 31.44 48.24 31.68 48.87 31.92 49.5 32.16 50.13 32.4 50.76 32.64 51.4 32.88 52.04 33.12 52.67 33.36 53.31 33.6 53.95 33.84 54.59 34.08 55.24 34.32 55.88 34.56 56.52 34.8 57.17 35.04 57.81 35.28 58.46 35.52 59.11 35.76 59.75 36 60.4 36.24 61.05 36.48 61.7 36.72 62.35 36.96 63 37.2 63.65 37.44 64.3 37.68 64.95 37.92 65.6 38.16 66.25 38.4 66.9 38.64 67.55 38.88 68.2 39.12 68.85 39.36 69.49 39.6 70.14 39.84 70.79 40.08 71.44 40.32 72.08 40.56 72.73 40.8 73.37 41.04 74.02 41.28 74.66 41.52 75.3 41.76 75.95 42 76.59 42.24 77.22 42.48 77.86 42.72 78.5 42.96 79.13 43.2 79.77 43.44 80.4 43.68 81.03 43.92 81.66 44.16 82.29 44.4 82.91 44.64 83.54 44.88 84.16 45.12 84.78 45.36 85.4 45.6 86.01 45.84 86.63 46.08 87.24 46.32 87.85 46.56 88.46 46.8 89.06 47.04 89.66 47.28 90.26 47.52 90.86 47.76 91.46 48 92.05 48.24 92.64 48.48 93.23 48.72 93.81 48.96 94.39 49.2 94.97 49.44 95.55 49.68 96.12 49.92 96.69 50.16 97.25 50.4 97.81 50.64 98.37 50.88 98.93 51.12 99.48 51.36 100.03 51.6 100.58 51.84 101.12 52.08 101.66 52.32 102.19 52.56 102.73 52.8 103.25 53.04 103.78 53.28 104.3 53.52 104.81 53.76 105.32 54 105.83 54.24 106.33 54.48 106.83 54.72 107.33 54.96 107.82 55.2 108.31 55.44 108.79 55.68 109.27 55.92 109.74 56.16 110.21 56.4 110.68 56.64 111.14 56.88 111.59 57.12 112.04 57.36 112.49 57.6 112.93 57.84 113.37 58.08 113.8 58.32 114.23 58.56 114.65 58.8 115.07 59.04 115.48 59.28 115.88 59.52 116.29 59.76 116.68 60 117.07 60.24 117.46 60.48 117.84 60.72 118.22 60.96 118.59 61.2 118.95 61.44 119.31 61.68 119.67 61.92 120.02 62.16 120.36 62.4 120.7 62.64 121.03 62.88 121.36 63.12 121.68 63.36 121.99 63.6 122.3 63.84 122.61 64.08 122.9 64.32 123.2 64.56 123.48 64.8 123.76 65.04 124.04 65.28 124.31 65.52 124.57 65.76 124.83 66 125.08 66.24 125.32 66.48 125.56 66.72 125.8 66.96 126.02 67.2 126.24 67.44 126.46 67.68 126.67 67.92 126.87 68.16 127.07 68.4 127.26 68.64 127.44 68.88 127.62 69.12 127.79 69.36 127.95 69.6 128.11 69.84 128.26 70.08 128.41 70.32 128.55 70.56 128.68 70.8 128.81 71.04 128.93 71.28 129.05 71.52 129.15 71.76 129.25 72 129.35 72.24 129.44 72.48 129.52 72.72 129.6 72.96 129.66 73.2 129.73 73.44 129.78 73.68 129.83 73.92 129.88 74.16 129.91 74.4 129.94 74.64 129.97 74.88 129.98 75.12 130 75.36 130 75.6 130 75.84 129.99 76.08 129.97 76.32 129.95 76.56 129.92 76.8 129.89 77.04 129.85 77.28 129.8 77.52 129.75 77.76 129.69 78 129.62 78.24 129.54 78.48 129.46 78.72 129.38 78.96 129.29 79.2 129.19 79.44 129.08 79.68 128.97 79.92 128.85 80.16 128.72 80.4 128.59 80.64 128.46 80.88 128.31 81.12 128.16 81.36 128 81.6 127.84 81.84 127.67 82.08 127.5 82.32 127.32 82.56 127.13 82.8 126.93 83.04 126.73 83.28 126.53 83.52 126.31 83.76 126.09 84 125.87 84.24 125.64 84.48 125.4 84.72 125.16 84.96 124.91 85.2 124.65 85.44 124.39 85.68 124.13 85.92 123.85 86.16 123.57 86.4 123.29 86.64 123 86.88 122.7 87.12 122.4 87.36 122.09 87.6 121.78 87.84 121.46 88.08 121.13 88.32 120.8 88.56 120.47 88.8 120.13 89.04 119.78 89.28 119.43 89.52 119.07 89.76 118.71 90 118.34 90.24 117.96 90.48 117.58 90.72 117.2 90.96 116.81 91.2 116.41 91.44 116.01 91.68 115.61 91.92 115.2 92.16 114.78 92.4 114.36 92.64 113.94 92.88 113.51 93.12 113.07 93.36 112.63 93.6 112.19 93.84 111.74 94.08 111.28 94.32 110.82 94.56 110.36 94.8 109.89 95.04 109.42 95.28 108.94 95.52 108.46 95.76 107.98 96 107.49 96.24 106.99 96.48 106.49 96.72 105.99 96.96 105.49 97.2 104.98 97.44 104.46 97.68 103.94 97.92 103.42 98.16 102.89 98.4 102.36 98.64 101.83 98.88 101.29 99.12 100.75 99.36 100.21 99.6 99.66 99.84 99.11 100.08 98.55 100.32 97.99 100.56 97.43 100.8 96.87 101.04 96.3 101.28 95.73 101.52 95.15 101.76 94.58 102 94 102.24 93.41 102.48 92.83 102.72 92.24 102.96 91.65 103.2 91.05 103.44 90.46 103.68 89.86 103.92 89.25 104.16 88.65 104.4 88.04 104.64 87.43 104.88 86.82 105.12 86.21 105.36 85.59 105.6 84.98 105.84 84.36 106.08 83.74 106.32 83.11 106.56 82.49 106.8 81.86 107.04 81.23 107.28 80.6 107.52 79.97 107.76 79.34 108 78.7 108.24 78.07 108.48 77.43 108.72 76.79 108.96 76.15 109.2 75.51 109.44 74.87 109.68 74.22 109.92 73.58 110.16 72.94 110.4 72.29 110.64 71.64 110.88 71 111.12 70.35 111.36 69.7 111.6 69.05 111.84 68.4 112.08 67.75 112.32 67.1 112.56 66.46 112.8 65.81 113.04 65.16 113.28 64.51 113.52 63.86 113.76 63.21 114 62.56 114.24 61.91 114.48 61.26 114.72 60.61 114.96 59.96 115.2 59.31 115.44 58.67 115.68 58.02 115.92 57.37 116.16 56.73 116.4 56.08 116.64 55.44 116.88 54.8 117.12 54.16 117.36 53.52 117.6 52.88 117.84 52.24 118.08 51.6 118.32 50.97 118.56 50.33 118.8 49.7 119.04 49.07 119.28 48.44 119.52 47.81 119.76 47.19 120 46.56 120.24 45.94 120.48 45.32 120.72 44.7 120.96 44.08 121.2 43.47 121.44 42.86 121.68 42.25 121.92 41.64 122.16 41.03 122.4 40.43 122.64 39.83 122.88 39.23 123.12 38.64 123.36 38.04 123.6 37.45 123.84 36.87 124.08 36.28 124.32 35.7 124.56 35.12 124.8 34.55 125.04 33.97 125.28 33.4 125.52 32.84 125.76 32.27 126 31.71 126.24 31.16 126.48 30.6 126.72 30.05 126.96 29.51 127.2 28.97 127.44 28.43 127.68 27.89 127.92 27.36 128.16 26.83 128.4 26.31 128.64 25.79 128.88 25.27 129.12 24.76 129.36 24.25 129.6 23.74 129.84 23.24 130.08 22.75 130.32 22.26 130.56 21.77 130.8 21.29 131.04 20.81 131.28 20.33 131.52 19.86 131.76 19.4 132 18.94 132.24 18.48 132.48 18.03 132.72 17.58 132.96 17.14 133.2 16.7 133.44 16.27 133.68 15.84 133.92 15.42 134.16 15 134.4 14.59 134.64 14.18 134.88 13.78 135.12 13.38 135.36 12.99 135.6 12.6 135.84 12.22 136.08 11.84 136.32 11.47 136.56 11.1 136.8 10.74 137.04 10.39 137.28 10.04 137.52 9.69 137.76 9.36 138 9.02 138.24 8.69 138.48 8.37 138.72 8.06 138.96 7.75 139.2 7.44 139.44 7.14 139.68 6.85 139.92 6.56 140.16 6.28 140.4 6 140.64 5.73 140.88 5.47 141.12 5.21 141.36 4.96 141.6 4.71 141.84 4.47 142.08 4.24 142.32 4.01 142.56 3.79 142.8 3.57 143.04 3.37 143.28 3.16 143.52 2.96 143.76 2.77 144 2.59 144.24 2.41 144.48 2.24 144.72 2.07 144.96 1.91 145.2 1.76 145.44 1.61 145.68 1.47 145.92 1.34 146.16 1.21 146.4 1.09 146.64 0.97 146.88 0.86 147.12 0.76 147.36 0.67 147.6 0.58 147.84 0.49 148.08 0.42 148.32 0.35 148.56 0.28 148.8 0.22 149.04 0.17 149.28 0.13 149.52 0.09 149.76 0.06 150 0.04 150.24 0.02 150.48 0.01 150.72 0 150.96 0 151.2 0.01 151.44 0.02 151.68 0.04 151.92 0.07 152.16 0.1 152.4 0.15 152.64 0.19 152.88 0.24 153.12 0.3 153.36 0.37 153.6 0.44 153.84 0.52 154.08 0.61 154.32 0.7 154.56 0.8 154.8 0.9 155.04 1.01 155.28 1.13 155.52 1.25 155.76 1.39 156 1.52 156.24 1.66 156.48 1.81 156.72 1.97 156.96 2.13 157.2 2.3 157.44 2.47 157.68 2.66 157.92 2.84 158.16 3.04 158.4 3.23 158.64 3.44 158.88 3.65 159.12 3.87 159.36 4.09 159.6 4.32 159.84 4.56 160.08 4.8 160.32 5.05 160.56 5.3 160.8 5.57 161.04 5.83 161.28 6.1 161.52 6.38 161.76 6.66 162 6.95 162.24 7.25 162.48 7.55 162.72 7.86 162.96 8.17 163.2 8.49 163.44 8.81 163.68 9.14 163.92 9.48 164.16 9.82 164.4 10.16 164.64 10.52 164.88 10.87 165.12 11.24 165.36 11.6 165.6 11.98 165.84 12.36 166.08 12.74 166.32 13.13 166.56 13.52 166.8 13.92 167.04 14.33 167.28 14.74 167.52 15.15 167.76 15.57 168 16 168.24 16.43 168.48 16.86 168.72 17.3 168.96 17.74 169.2 18.19 169.44 18.65 169.68 19.1 169.92 19.57 170.16 20.03 170.4 20.5 170.64 20.98 170.88 21.46 171.12 21.95 171.36 22.43 171.6 22.93 171.84 23.43 172.08 23.93 172.32 24.43 172.56 24.94 172.8 25.46 173.04 25.98 173.28 26.5 173.52 27.02 173.76 27.55 174 28.08 174.24 28.62 174.48 29.16 174.72 29.71 174.96 30.25 175.2 30.8 175.44 31.36 175.68 31.92 175.92 32.48 176.16 33.04 176.4 33.61 176.64 34.18 176.88 34.76 177.12 35.33 177.36 35.91 177.6 36.49 177.84 37.08 178.08 37.67 178.32 38.26 178.56 38.85 178.8 39.45 179.04 40.05 179.28 40.65 179.52 41.25 179.76 41.86 180 42.47 180.24 43.08 180.48 43.69 180.72 44.31 180.96 44.92 181.2 45.54 181.44 46.17 181.68 46.79 181.92 47.41 182.16 48.04 182.4 48.67 182.64 49.3 182.88 49.93 183.12 50.56 183.36 51.2 183.6 51.83 183.84 52.47 184.08 53.11 184.32 53.75 184.56 54.39 184.8 55.03 185.04 55.67 185.28 56.32 185.52 56.96 185.76 57.61 186 58.25 186.24 58.9 186.48 59.55 186.72 60.2 186.96 60.84 187.2 61.49 187.44 62.14 187.68 62.79 187.92 63.44 188.16 64.09 188.4 64.74 188.64 65.39 188.88 66.04 189.12 66.69 189.36 67.34 189.6 67.99 189.84 68.64 190.08 69.29 190.32 69.94 190.56 70.58 190.8 71.23 191.04 71.88 191.28 72.52 191.52 73.17 191.76 73.81 192 74.46 192.24 75.1 192.48 75.74 192.72 76.38 192.96 77.02 193.2 77.66 193.44 78.3 193.68 78.93 193.92 79.57 194.16 80.2 194.4 80.83 194.64 81.46 194.88 82.09 195.12 82.71 195.36 83.34 195.6 83.96 195.84 84.58 196.08 85.2 196.32 85.82 196.56 86.43 196.8 87.05 197.04 87.66 197.28 88.26 197.52 88.87 197.76 89.47 198 90.07 198.24 90.67 198.48 91.27 198.72 91.86 198.96 92.45 199.2 93.04 199.44 93.62 199.68 94.21 199.92 94.79 200.16 95.36 200.4 95.94 200.64 96.51 200.88 97.07 201.12 97.64 201.36 98.2 201.6 98.75 201.84 99.31 202.08 99.86 202.32 100.4 202.56 100.95 202.8 101.49 203.04 102.02 203.28 102.56 203.52 103.08 203.76 103.61 204 104.13 204.24 104.65 204.48 105.16 204.72 105.67 204.96 106.17 205.2 106.68 205.44 107.17 205.68 107.67 205.92 108.15 206.16 108.64 206.4 109.12 206.64 109.59 206.88 110.06 207.12 110.53 207.36 110.99 207.6 111.45 207.84 111.9 208.08 112.35 208.32 112.79 208.56 113.23 208.8 113.66 209.04 114.09 209.28 114.51 209.52 114.93 209.76 115.35 210 115.75 210.24 116.16 210.48 116.56 210.72 116.95 210.96 117.34 211.2 117.72 211.44 118.1 211.68 118.47 211.92 118.84 212.16 119.2 212.4 119.56 212.64 119.91 212.88 120.25 213.12 120.59 213.36 120.92 213.6 121.25 213.84 121.58 214.08 121.89 214.32 122.2 214.56 122.51 214.8 122.81 215.04 123.1 215.28 123.39 215.52 123.68 215.76 123.95 216 124.22 216.24 124.49 216.48 124.75 216.72 125 216.96 125.25 217.2 125.49 217.44 125.72 217.68 125.95 217.92 126.17 218.16 126.39 218.4 126.6 218.64 126.81 218.88 127 219.12 127.2 219.36 127.38 219.6 127.56 219.84 127.73 220.08 127.9 220.32 128.06 220.56 128.22 220.8 128.36 221.04 128.51 221.28 128.64 221.52 128.77 221.76 128.89 222 129.01 222.24 129.12 222.48 129.22 222.72 129.32 222.96 129.41 223.2 129.49 223.44 129.57 223.68 129.64 223.92 129.71 224.16 129.77 224.4 129.82 224.64 129.86 224.88 129.9 225.12 129.93 225.36 129.96 225.6 129.98 225.84 129.99 226.08 130 226.32 130 226.56 129.99 226.8 129.98 227.04 129.96 227.28 129.93 227.52 129.9 227.76 129.86 228 129.82 228.24 129.76 228.48 129.71 228.72 129.64 228.96 129.57 229.2 129.49 229.44 129.41 229.68 129.32 229.92 129.22 230.16 129.11 230.4 129 230.64 128.89 230.88 128.77 231.12 128.64 231.36 128.5 231.6 128.36 231.84 128.21 232.08 128.06 232.32 127.89 232.56 127.73 232.8 127.55 233.04 127.37 233.28 127.19 233.52 127 233.76 126.8 234 126.59 234.24 126.38 234.48 126.17 234.72 125.94 234.96 125.71 235.2 125.48 235.44 125.24 235.68 124.99 235.92 124.74 236.16 124.48 236.4 124.21 236.64 123.94 236.88 123.66 237.12 123.38 237.36 123.09 237.6 122.8 237.84 122.5 238.08 122.19 238.32 121.88 238.56 121.56 238.8 121.24 239.04 120.91 239.28 120.58 239.52 120.24 239.76 119.89 240 119.54 240 65 0 65"/><path class="svg-plot-line svg-plot-s1 svg-plot-d1" d="M 0 0 0.24 0 0.48 0.01 0.72 0.03 0.96 0.05 1.2 0.08 1.44 0.12 1.68 0.16 1.92 0.21 2.16 0.26 2.4 0.32 2.64 0.39 2.88 0.47 3.12 0.55 3.36 0.64 3.6 0.73 3.84 0.83 4.08 0.94 4.32 1.05 4.56 1.17 4.8 1.3 5.04 1.43 5.28 1.57 5.52 1.71 5.76 1.86 6 2.02 6.24 2.18 6.48 2.35 6.72 2.53 6.96 2.71 7.2 2.9 7.44 3.1 7.68 3.3 7.92 3.51 8.16 3.72 8.4 3.94 8.64 4.17 8.88 4.4 9.12 4.64 9.36 4.88 9.6 5.13 9.84 5.39 10.08 5.65 10.32 5.92 10.56 6.19 10.8 6.47 11.04 6.76 11.28 7.05 11.52 7.35 11.76 7.65 12 7.96 12.24 8.27 12.48 8.59 12.72 8.92 12.96 9.25 13.2 9.59 13.44 9.93 13.68 10.28 13.92 10.63 14.16 10.99 14.4 11.35 14.64 11.72 14.88 12.1 15.12 12.48 15.36 12.86 15.6 13.25 15.84 13.65 16.08 14.05 16.32 14.46 16.56 14.87 16.8 15.29 17.04 15.71 17.28 16.13 17.52 16.56 17.76 17 18 17.44 18.24 17.89 18.48 18.34 18.72 18.79 18.96 19.25 19.2 19.71 19.44 20.18 19.68 20.66 19.92 21.13 20.16 21.61 20.4 22.1 20.64 22.59 20.88 23.09 21.12 23.59 21.36 24.09 21.6 24.6 21.84 25.11 22.08 25.62 22.32 26.14 22.56 26.66 22.8 27.19 23.04 27.72 23.28 28.26 23.52 28.79 23.76 29.34 24 29.88 24.24 30.43 24.48 30.98 24.72 31.54 24.96 32.1 25.2 32.66 25.44 33.22 25.68 33.79 25.92 34.36 26.16 34.94 26.4 35.52 26.64 36.1 26.88 36.68 27.12 37.27 27.36 37.86 27.6 38.45 27.84 39.04 28.08 39.64 28.32 40.24 28.56 40.84 28.8 41.45 29.04 42.05 29.28 42.66 29.52 43.27 29.76 43.89 30 44.5 30.24 45.12 30.48 45.74 30.72 46.36 30.96 46.99 31.2 47.61 31.44 48.24 31.68 48.87 31.92 49.5 32.16 50.13 32.4 50.76 32.64 51.4 32.88 52.04 33.12 52.67 33.36 53.31 33.6 53.95 33.84 54.59 34.08 55.24 34.32 55.88 34.56 56.52 34.8 57.17 35.04 57.81 35.28 58.46 35.52 59.11 35.76 59.75 36 60.4 36.24 61.05 36.48 61.7 36.72 62.35 36.96 63 37.2 63.65 37.44 64.3 37.68 64.95 37.92 65.6 38.16 66.25 38.4 66.9 38.64 67.55 38.88 68.2 39.12 68.85 39.36 69.49 39.6 70.14 39.84 70.79 40.08 71.44 40.32 72.08 40.56 72.73 40.8 73.37 41.04 74.02 41.28 74.66 41.52 75.3 41.76 75.95 42 76.59 42.24 77.22 42.48 77.86 42.72 78.5 42.96 79.13 43.2 79.77 43.44 80.4 43.68 81.03 43.92 81.66 44.16 82.29 44.4 82.91 44.64 83.54 44.88 84.16 45.12 84.78 45.36 85.4 45.6 86.01 45.84 86.63 46.08 87.24 46.32 87.85 46.56 88.46 46.8 89.06 47.04 89.66 47.28 90.26 47.52 90.86 47.76 91.46 48 92.05 48.24 92.64 48.48 93.23 48.72 93.81 48.96 94.39 49.2 94.97 49.44 95.55 49.68 96.12 49.92 96.69 50.16 97.25 50.4 97.81 50.64 98.37 50.88 98.93 51.12 99.48 51.36 100.03 51.6 100.58 51.84 101.12 52.08 101.66 52.32 102.19 52.56 102.73 52.8 103.25 53.04 103.78 53.28 104.3 53.52 104.81 53.76 105.32 54 105.83 54.24 106.33 54.48 106.83 54.72 107.33 54.96 107.82 55.2 108.31 55.44 108.79 55.68 109.27 55.92 109.74 56.16 110.21 56.4 110.68 56.64 111.14 56.88 111.59 57.12 112.04 57.36 112.49 57.6 112.93 57.84 113.37 58.08 113.8 58.32 114.23 58.56 114.65 58.8 115.07 59.04 115.48 59.28 115.88 59.52 116.29 59.76 116.68 60 117.07 60.24 117.46 60.48 117.84 60.72 118.22 60.96 118.59 61.2 118.95 61.44 119.31 61.68 119.67 61.92 120.02 62.16 120.36 62.4 120.7 62.64 121.03 62.88 121.36 63.12 121.68 63.36 121.99 63.6 122.3 63.84 122.61 64.08 122.9 64.32 123.2 64.56 123.48 64.8 123.76 65.04 124.04 65.28 124.31 65.52 124.57 65.76 124.83 66 125.08 66.24 125.32 66.48 125.56 66.72 125.8 66.96 126.02 67.2 126.24 67.44 126.46 67.68 126.67 67.92 126.87 68.16 127.07 68.4 127.26 68.64 127.44 68.88 127.62 69.12 127.79 69.36 127.95 69.6 128.11 69.84 128.26 70.08 128.41 70.32 128.55 70.56 128.68 70.8 128.81 71.04 128.93 71.28 129.05 71.52 129.15 71.76 129.25 72 129.35 72.24 129.44 72.48 129.52 72.72 129.6 72.96 129.66 73.2 129.73 73.44 129.78 73.68 129.83 73.92 129.88 74.16 129.91 74.4 129.94 74.64 129.97 74.88 129.98 75.12 130 75.36 130 75.6 130 75.84 129.99 76.08 129.97 76.32 129.95 76.56 129.92 76.8 129.89 77.04 129.85 77.28 129.8 77.52 129.75 77.76 129.69 78 129.62 78.24 129.54 78.48 129.46 78.72 129.38 78.96 129.29 79.2 129.19 79.44 129.08 79.68 128.97 79.92 128.85 80.16 128.72 80.4 128.59 80.64 128.46 80.88 128.31 81.12 128.16 81.36 128 81.6 127.84 81.84 127.67 82.08 127.5 82.32 127.32 82.56 127.13 82.8 126.93 83.04 126.73 83.28 126.53 83.52 126.31 83.76 126.09 84 125.87 84.24 125.64 84.48 125.4 84.72 125.16 84.96 124.91 85.2 124.65 85.44 124.39 85.68 124.13 85.92 123.85 86.16 123.57 86.4 123.29 86.64 123 86.88 122.7 87.12 122.4 87.36 122.09 87.6 121.78 87.84 121.46 88.08 121.13 88.32 120.8 88.56 120.47 88.8 120.13 89.04 119.78 89.28 119.43 89.52 119.07 89.76 118.71 90 118.34 90.24 117.96 90.48 117.58 90.72 117.2 90.96 116.81 91.2 116.41 91.44 116.01 91.68 115.61 91.92 115.2 92.16 114.78 92.4 114.36 92.64 113.94 92.88 113.51 93.12 113.07 93.36 112.63 93.6 112.19 93.84 111.74 94.08 111.28 94.32 110.82 94.56 110.36 94.8 109.89 95.04 109.42 95.28 108.94 95.52 108.46 95.76 107.98 96 107.49 96.24 106.99 96.48 106.49 96.72 105.99 96.96 105.49 97.2 104.98 97.44 104.46 97.68 103.94 97.92 103.42 98.16 102.89 98.4 102.36 98.64 101.83 98.88 101.29 99.12 100.75 99.36 100.21 99.6 99.66 99.84 99.11 100.08 98.55 100.32 97.99 100.56 97.43 100.8 96.87 101.04 96.3 101.28 95.73 101.52 95.15 101.76 94.58 102 94 102.24 93.41 102.48 92.83 102.72 92.24 102.96 91.65 103.2 91.05 103.44 90.46 103.68 89.86 103.92 89.25 104.16 88.65 104.4 88.04 104.64 87.43 104.88 86.82 105.12 86.21 105.36 85.59 105.6 84.98 105.84 84.36 106.08 83.74 106.32 83.11 106.56 82.49 106.8 81.86 107.04 81.23 107.28 80.6 107.52 79.97 107.76 79.34 108 78.7 108.24 78.07 108.48 77.43 108.72 76.79 108.96 76.15 109.2 75.51 109.44 74.87 109.68 74.22 109.92 73.58 110.16 72.94 110.4 72.29 110.64 71.64 110.88 71 111.12 70.35 111.36 69.7 111.6 69.05 111.84 68.4 112.08 67.75 112.32 67.1 112.56 66.46 112.8 65.81 113.04 65.16 113.28 64.51 113.52 63.86 113.76 63.21 114 62.56 114.24 61.91 114.48 61.26 114.72 60.61 114.96 59.96 115.2 59.31 115.44 58.67 115.68 58.02 115.92 57.37 116.16 56.73 116.4 56.08 116.64 55.44 116.88 54.8 117.12 54.16 117.36 53.52 117.6 52.88 117.84 52.24 118.08 51.6 118.32 50.97 118.56 50.33 118.8 49.7 119.04 49.07 119.28 48.44 119.52 47.81 119.76 47.19 120 46.56 120.24 45.94 120.48 45.32 120.72 44.7 120.96 44.08 121.2 43.47 121.44 42.86 121.68 42.25 121.92 41.64 122.16 41.03 122.4 40.43 122.64 39.83 122.88 39.23 123.12 38.64 123.36 38.04 123.6 37.45 123.84 36.87 124.08 36.28 124.32 35.7 124.56 35.12 124.8 34.55 125.04 33.97 125.28 33.4 125.52 32.84 125.76 32.27 126 31.71 126.24 31.16 126.48 30.6 126.72 30.05 126.96 29.51 127.2 28.97 127.44 28.43 127.68 27.89 127.92 27.36 128.16 26.83 128.4 26.31 128.64 25.79 128.88 25.27 129.12 24.76 129.36 24.25 129.6 23.74 129.84 23.24 130.08 22.75 130.32 22.26 130.56 21.77 130.8 21.29 131.04 20.81 131.28 20.33 131.52 19.86 131.76 19.4 132 18.94 132.24 18.48 132.48 18.03 132.72 17.58 132.96 17.14 133.2 16.7 133.44 16.27 133.68 15.84 133.92 15.42 134.16 15 134.4 14.59 134.64 14.18 134.88 13.78 135.12 13.38 135.36 12.99 135.6 12.6 135.84 12.22 136.08 11.84 136.32 11.47 136.56 11.1 136.8 10.74 137.04 10.39 137.28 10.04 137.52 9.69 137.76 9.36 138 9.02 138.24 8.69 138.48 8.37 138.72 8.06 138.96 7.75 139.2 7.44 139.44 7.14 139.68 6.85 139.92 6.56 140.16 6.28 140.4 6 140.64 5.73 140.88 5.47 141.12 5.21 141.36 4.96 141.6 4.71 141.84 4.47 142.08 4.24 142.32 4.01 142.56 3.79 142.8 3.57 143.04 3.37 143.28 3.16 143.52 2.96 143.76 2.77 144 2.59 144.24 2.41 144.48 2.24 144.72 2.07 144.96 1.91 145.2 1.76 145.44 1.61 145.68 1.47 145.92 1.34 146.16 1.21 146.4 1.09 146.64 0.97 146.88 0.86 147.12 0.76 147.36 0.67 147.6 0.58 147.84 0.49 148.08 0.42 148.32 0.35 148.56 0.28 148.8 0.22 149.04 0.17 149.28 0.13 149.52 0.09 149.76 0.06 150 0.04 150.24 0.02 150.48 0.01 150.72 0 150.96 0 151.2 0.01 151.44 0.02 151.68 0.04 151.92 0.07 152.16 0.1 152.4 0.15 152.64 0.19 152.88 0.24 153.12 0.3 153.36 0.37 153.6 0.44 153.84 0.52 154.08 0.61 154.32 0.7 154.56 0.8 154.8 0.9 155.04 1.01 155.28 1.13 155.52 1.25 155.76 1.39 156 1.52 156.24 1.66 156.48 1.81 156.72 1.97 156.96 2.13 157.2 2.3 157.44 2.47 157.68 2.66 157.92 2.84 158.16 3.04 158.4 3.23 158.64 3.44 158.88 3.65 159.12 3.87 159.36 4.09 159.6 4.32 159.84 4.56 160.08 4.8 160.32 5.05 160.56 5.3 160.8 5.57 161.04 5.83 161.28 6.1 161.52 6.38 161.76 6.66 162 6.95 162.24 7.25 162.48 7.55 162.72 7.86 162.96 8.17 163.2 8.49 163.44 8.81 163.68 9.14 163.92 9.48 164.16 9.82 164.4 10.16 164.64 10.52 164.88 10.87 165.12 11.24 165.36 11.6 165.6 11.98 165.84 12.36 166.08 12.74 166.32 13.13 166.56 13.52 166.8 13.92 167.04 14.33 167.28 14.74 167.52 15.15 167.76 15.57 168 16 168.24 16.43 168.48 16.86 168.72 17.3 168.96 17.74 169.2 18.19 169.44 18.65 169.68 19.1 169.92 19.57 170.16 20.03 170.4 20.5 170.64 20.98 170.88 21.46 171.12 21.95 171.36 22.43 171.6 22.93 171.84 23.43 172.08 23.93 172.32 24.43 172.56 24.94 172.8 25.46 173.04 25.98 173.28 26.5 173.52 27.02 173.76 27.55 174 28.08 174.24 28.62 174.48 29.16 174.72 29.71 174.96 30.25 175.2 30.8 175.44 31.36 175.68 31.92 175.92 32.48 176.16 33.04 176.4 33.61 176.64 34.18 176.88 34.76 177.12 35.33 177.36 35.91 177.6 36.49 177.84 37.08 178.08 37.67 178.32 38.26 178.56 38.85 178.8 39.45 179.04 40.05 179.28 40.65 179.52 41.25 179.76 41.86 180 42.47 180.24 43.08 180.48 43.69 180.72 44.31 180.96 44.92 181.2 45.54 181.44 46.17 181.68 46.79 181.92 47.41 182.16 48.04 182.4 48.67 182.64 49.3 182.88 49.93 183.12 50.56 183.36 51.2 183.6 51.83 183.84 52.47 184.08 53.11 184.32 53.75 184.56 54.39 184.8 55.03 185.04 55.67 185.28 56.32 185.52 56.96 185.76 57.61 186 58.25 186.24 58.9 186.48 59.55 186.72 60.2 186.96 60.84 187.2 61.49 187.44 62.14 187.68 62.79 187.92 63.44 188.16 64.09 188.4 64.74 188.64 65.39 188.88 66.04 189.12 66.69 189.36 67.34 189.6 67.99 189.84 68.64 190.08 69.29 190.32 69.94 190.56 70.58 190.8 71.23 191.04 71.88 191.28 72.52 191.52 73.17 191.76 73.81 192 74.46 192.24 75.1 192.48 75.74 192.72 76.38 192.96 77.02 193.2 77.66 193.44 78.3 193.68 78.93 193.92 79.57 194.16 80.2 194.4 80.83 194.64 81.46 194.88 82.09 195.12 82.71 195.36 83.34 195.6 83.96 195.84 84.58 196.08 85.2 196.32 85.82 196.56 86.43 196.8 87.05 197.04 87.66 197.28 88.26 197.52 88.87 197.76 89.47 198 90.07 198.24 90.67 198.48 91.27 198.72 91.86 198.96 92.45 199.2 93.04 199.44 93.62 199.68 94.21 199.92 94.79 200.16 95.36 200.4 95.94 200.64 96.51 200.88 97.07 201.12 97.64 201.36 98.2 201.6 98.75 201.84 99.31 202.08 99.86 202.32 100.4 202.56 100.95 202.8 101.49 203.04 102.02 203.28 102.56 203.52 103.08 203.76 103.61 204 104.13 204.24 104.65 204.48 105.16 204.72 105.67 204.96 106.17 205.2 106.68 205.44 107.17 205.68 107.67 205.92 108.15 206.16 108.64 206.4 109.12 206.64 109.59 206.88 110.06 207.12 110.53 207.36 110.99 207.6 111.45 207.84 111.9 208.08 112.35 208.32 112.79 208.56 113.23 208.8 113.66 209.04 114.09 209.28 114.51 209.52 114.93 209.76 115.35 210 115.75 210.24 116.16 210.48 116.56 210.72 116.95 210.96 117.34 211.2 117.72 211.44 118.1 211.68 118.47 211.92 118.84 212.16 119.2 212.4 119.56 212.64 119.91 212.88 120.25 213.12 120.59 213.36 120.92 213.6 121.25 213.84 121.58 214.08 121.89 214.32 122.2 214.56 122.51 214.8 122.81 215.04 123.1 215.28 123.39 215.52 123.68 215.76 123.95 216 124.22 216.24 124.49 216.48 124.75 216.72 125 216.96 125.25 217.2 125.49 217.44 125.72 217.68 125.95 217.92 126.17 218.16 126.39 218.4 126.6 218.64 126.81 218.88 127 219.12 127.2 219.36 127.38 219.6 127.56 219.84 127.73 220.08 127.9 220.32 128.06 220.56 128.22 220.8 128.36 221.04 128.51 221.28 128.64 221.52 128.77 221.76 128.89 222 129.01 222.24 129.12 222.48 129.22 222.72 129.32 222.96 129.41 223.2 129.49 223.44 129.57 223.68 129.64 223.92 129.71 224.16 129.77 224.4 129.82 224.64 129.86 224.88 129.9 225.12 129.93 225.36 129.96 225.6 129.98 225.84 129.99 226.08 130 226.32 130 226.56 129.99 226.8 129.98 227.04 129.96 227.28 129.93 227.52 129.9 227.76 129.86 228 129.82 228.24 129.76 228.48 129.71 228.72 129.64 228.96 129.57 229.2 129.49 229.44 129.41 229.68 129.32 229.92 129.22 230.16 129.11 230.4 129 230.64 128.89 230.88 128.77 231.12 128.64 231.36 128.5 231.6 128.36 231.84 128.21 232.08 128.06 232.32 127.89 232.56 127.73 232.8 127.55 233.04 127.37 233.28 127.19 233.52 127 233.76 126.8 234 126.59 234.24 126.38 234.48 126.17 234.72 125.94 234.96 125.71 235.2 125.48 235.44 125.24 235.68 124.99 235.92 124.74 236.16 124.48 236.4 124.21 236.64 123.94 236.88 123.66 237.12 123.38 237.36 123.09 237.6 122.8 237.84 122.5 238.08 122.19 238.32 121.88 238.56 121.56 238.8 121.24 239.04 120.91 239.28 120.58 239.52 120.24 239.76 119.89 240 119.54"/><path class="svg-plot-fill svg-plot-f0 svg-plot-h0" d="M 0 65 0.24 64.35 0.48 63.7 0.72 63.05 0.96 62.4 1.2 61.75 1.44 61.1 1.68 60.45 1.92 59.81 2.16 59.16 2.4 58.51 2.64 57.86 2.88 57.22 3.12 56.57 3.36 55.93 3.6 55.29 3.84 54.64 4.08 54 4.32 53.36 4.56 52.72 4.8 52.09 5.04 51.45 5.28 50.82 5.52 50.18 5.76 49.55 6 48.92 6.24 48.29 6.48 47.66 6.72 47.04 6.96 46.41 7.2 45.79 7.44 45.17 7.68 44.55 7.92 43.94 8.16 43.32 8.4 42.71 8.64 42.1 8.88 41.49 9.12 40.89 9.36 40.29 9.6 39.69 9.84 39.09 10.08 38.5 10.32 37.9 10.56 37.31 10.8 36.73 11.04 36.14 11.28 35.56 11.52 34.98 11.76 34.41 12 33.84 12.24 33.27 12.48 32.7 12.72 32.14 12.96 31.58 13.2 31.03 13.44 30.47 13.68 29.92 13.92 29.38 14.16 28.84 14.4 28.3 14.64 27.76 14.88 27.23 15.12 26.71 15.36 26.18 15.6 25.66 15.84 25.15 16.08 24.64 16.32 24.13 16.56 23.63 16.8 23.13 17.04 22.63 17.28 22.14 17.52 21.65 17.76 21.17 18 20.69 18.24 20.22 18.48 19.75 18.72 19.29 18.96 18.83 19.2 18.37 19.44 17.92 19.68 17.48 19.92 17.03 20.16 16.6 20.4 16.17 20.64 15.74 20.88 15.32 21.12 14.9 21.36 14.49 21.6 14.08 21.84 13.68 22.08 13.29 22.32 12.89 22.56 12.51 22.8 12.13 23.04 11.75 23.28 11.38 23.52 11.02 23.76 10.66 24 10.3 24.24 9.96 24.48 9.61 24.72 9.28 24.96 8.94 25.2 8.62 25.44 8.3 25.68 7.98 25.92 7.67 26.16 7.37 26.4 7.07 26.64 6.78 26.88 6.49 27.12 6.21 27.36 5.94 27.6 5.67 27.84 5.41 28.08 5.15 28.32 4.9 28.56 4.66 28.8 4.42 29.04 4.18 29.28 3.96 29.52 3.74 29.76 3.52 30 3.32 30.24 3.11 30.48 2.92 30.72 2.73 30.96 2.55 31.2 2.37 31.44 2.2 31.68 2.03 31.92 1.88 32.16 1.72 32.4 1.58 32.64 1.44 32.88 1.31 33.12 1.18 33.36 1.06 33.6 0.95 33.84 0.84 34.08 0.74 34.32 0.64 34.56 0.56 34.8 0.47 35.04 0.4 35.28 0.33 35.52 0.27 35.76 0.21 36 0.16 36.24 0.12 36.48 0.08 36.72 0.05 36.96 0.03 37.2 0.01 37.44 0 37.68 0 37.92 0 38.16 0.01 38.4 0.03 38.64 0.05 38.88 0.08 39.12 0.11 39.36 0.16 39.6 0.2 39.84 0.26 40.08 0.32 40.32 0.39 40.56 0.46 40.8 0.54 41.04 0.63 41.28 0.72 41.52 0.82 41.76 0.93 42 1.04 42.24 1.16 42.48 1.29 42.72 1.42 42.96 1.56 43.2 1.7 43.44 1.85 43.68 2.01 43.92 2.17 44.16 2.34 44.4 2.52 44.64 2.7 44.88 2.89 45.12 3.08 45.36 3.28 45.6 3.49 45.84 3.7 46.08 3.92 46.32 4.15 46.56 4.38 46.8 4.62 47.04 4.86 47.28 5.11 47.52 5.37 47.76 5.63 48 5.9 48.24 6.17 48.48 6.45 48.72 6.73 48.96 7.02 49.2 7.32 49.44 7.62 49.68 7.93 49.92 8.25 50.16 8.57 50.4 8.89 50.64 9.22 50.88 9.56 51.12 9.9 51.36 10.25 51.6 10.6 51.84 10.96 52.08 11.32 52.32 11.69 52.56 12.07 52.8 12.45 53.04 12.83 53.28 13.22 53.52 13.62 53.76 14.02 54 14.43 54.24 14.84 54.48 15.25 54.72 15.67 54.96 16.1 55.2 16.53 55.44 16.96 55.68 17.4 55.92 17.85 56.16 18.3 56.4 18.75 56.64 19.21 56.88 19.68 57.12 20.15 57.36 20.62 57.6 21.09 57.84 21.58 58.08 22.06 58.32 22.55 58.56 23.05 58.8 23.55 59.04 24.05 59.28 24.55 59.52 25.07 59.76 25.58 60 26.1 60.24 26.62 60.48 27.15 60.72 27.68 60.96 28.21 61.2 28.75 61.44 29.29 61.68 29.84 61.92 30.39 62.16 30.94 62.4 31.49 62.64 32.05 62.88 32.61 63.12 33.18 63.36 33.75 63.6 34.32 63.84 34.89 64.08 35.47 64.32 36.05 64.56 36.63 64.8 37.22 65.04 37.81 65.28 38.4 65.52 39 65.76 39.59 66 40.19 66.24 40.79 66.48 41.4 66.72 42.01 66.96 42.61 67.2 43.23 67.44 43.84 67.68 44.45 67.92 45.07 68.16 45.69 68.4 46.31 68.64 46.94 68.88 47.56 69.12 48.19 69.36 48.82 69.6 49.45 69.84 50.08 70.08 50.71 70.32 51.35 70.56 51.99 70.8 52.62 71.04 53.26 71.28 53.9 71.52 54.54 71.76 55.18 72 55.83 72.24 56.47 72.48 57.12 72.72 57.76 72.96 58.41 73.2 59.05 73.44 59.7 73.68 60.35 73.92 61 74.16 61.65 74.4 62.3 74.64 62.95 74.88 63.6 75.12 64.25 75.36 64.9 75.6 65.55 75.84 66.2 76.08 66.85 76.32 67.5 76.56 68.15 76.8 68.79 77.04 69.44 77.28 70.09 77.52 70.74 77.76 71.39 78 72.03 78.24 72.68 78.48 73.32 78.72 73.97 78.96 74.61 79.2 75.25 79.44 75.89 79.68 76.54 79.92 77.17 80.16 77.81 80.4 78.45 80.64 79.08 80.88 79.72 81.12 80.35 81.36 80.98 81.6 81.61 81.84 82.24 82.08 82.86 82.32 83.49 82.56 84.11 82.8 84.73 83.04 85.35 83.28 85.96 83.52 86.58 83.76 87.19 84 87.8 84.24 88.41 84.48 89.01 84.72 89.62 84.96 90.22 85.2 90.81 85.44 91.41 85.68 92 85.92 92.59 86.16 93.18 86.4 93.76 86.64 94.35 86.88 94.92 87.12 95.5 87.36 96.07 87.6 96.64 87.84 97.21 88.08 97.77 88.32 98.33 88.56 98.89 88.8 99.44 89.04 99.99 89.28 100.53 89.52 101.08 89.76 101.62 90 102.15 90.24 102.68 90.48 103.21 90.72 103.73 90.96 104.25 91.2 104.77 91.44 105.28 91.68 105.79 91.92 106.3 92.16 106.79 92.4 107.29 92.64 107.78 92.88 108.27 93.12 108.75 93.36 109.23 93.6 109.7 93.84 110.17 94.08 110.64 94.32 111.1 94.56 111.56 94.8 112.01 95.04 112.45 95.28 112.9 95.52 113.33 95.76 113.76 96 114.19 96.24 114.61 96.48 115.03 96.72 115.44 96.96 115.85 97.2 116.25 97.44 116.65 97.68 117.04 97.92 117.43 98.16 117.81 98.4 118.19 98.64 118.56 98.88 118.92 99.12 119.28 99.36 119.64 99.6 119.99 99.84 120.33 100.08 120.67 100.32 121 100.56 121.33 100.8 121.65 101.04 121.97 101.28 122.28 101.52 122.58 101.76 122.88 102 123.17 102.24 123.46 102.48 123.74 102.72 124.02 102.96 124.29 103.2 124.55 103.44 124.81 103.68 125.06 103.92 125.31 104.16 125.54 104.4 125.78 104.64 126.01 104.88 126.23 105.12 126.44 105.36 126.65 105.6 126.85 105.84 127.05 106.08 127.24 106.32 127.43 106.56 127.6 106.8 127.78 107.04 127.94 107.28 128.1 107.52 128.25 107.76 128.4 108 128.54 108.24 128.67 108.48 128.8 108.72 128.92 108.96 129.04 109.2 129.14 109.44 129.25 109.68 129.34 109.92 129.43 110.16 129.51 110.4 129.59 110.64 129.66 110.88 129.72 111.12 129.78 111.36 129.83 111.6 129.87 111.84 129.91 112.08 129.94 112.32 129.97 112.56 129.98 112.8 130 113.04 130 113.28 130 113.52 129.99 113.76 129.98 114 129.95 114.24 129.93 114.48 129.89 114.72 129.85 114.96 129.8 115.2 129.75 115.44 129.69 115.68 129.62 115.92 129.55 116.16 129.47 116.4 129.39 116.64 129.29 116.88 129.19 117.12 129.09 117.36 128.98 117.6 128.86 117.84 128.73 118.08 128.6 118.32 128.47 118.56 128.32 118.8 128.17 119.04 128.02 119.28 127.86 119.52 127.69 119.76 127.51 120 127.33 120.24 127.14 120.48 126.95 120.72 126.75 120.96 126.54 121.2 126.33 121.44 126.11 121.68 125.89 121.92 125.66 122.16 125.42 122.4 125.18 122.64 124.93 122.88 124.67 123.12 124.41 123.36 124.15 123.6 123.87 123.84 123.6 124.08 123.31 124.32 123.02 124.56 122.73 124.8 122.42 125.04 122.12 125.28 121.8 125.52 121.49 125.76 121.16 126 120.83 126.24 120.5 126.48 120.15 126.72 119.81 126.96 119.46 127.2 119.1 127.44 118.73 127.68 118.37 127.92 117.99 128.16 117.61 128.4 117.23 128.64 116.84 128.88 116.44 129.12 116.04 129.36 115.64 129.6 115.23 129.84 114.81 130.08 114.39 130.32 113.97 130.56 113.54 130.8 113.11 131.04 112.67 131.28 112.22 131.52 111.77 131.76 111.32 132 110.86 132.24 110.4 132.48 109.93 132.72 109.46 132.96 108.98 133.2 108.5 133.44 108.02 133.68 107.53 133.92 107.03 134.16 106.53 134.4 106.03 134.64 105.53 134.88 105.02 135.12 104.5 135.36 103.98 135.6 103.46 135.84 102.94 136.08 102.41 136.32 101.87 136.56 101.34 136.8 100.79 137.04 100.25 137.28 99.7 137.52 99.15 137.76 98.6 138 98.04 138.24 97.48 138.48 96.91 138.72 96.34 138.96 95.77 139.2 95.2 139.44 94.62 139.68 94.04 139.92 93.46 140.16 92.87 140.4 92.28 140.64 91.69 140.88 91.1 141.12 90.5 141.36 89.9 141.6 89.3 141.84 88.7 142.08 88.09 142.32 87.48 142.56 86.87 142.8 86.26 143.04 85.64 143.28 85.03 143.52 84.41 143.76 83.79 144 83.16 144.24 82.54 144.48 81.91 144.72 81.28 144.96 80.65 145.2 80.02 145.44 79.39 145.68 78.75 145.92 78.12 146.16 77.48 146.4 76.84 146.64 76.2 146.88 75.56 147.12 74.92 147.36 74.28 147.6 73.63 147.84 72.99 148.08 72.34 148.32 71.7 148.56 71.05 148.8 70.4 149.04 69.75 149.28 69.1 149.52 68.46 149.76 67.81 150 67.16 150.24 66.51 150.48 65.86 150.72 65.21 150.96 64.56 151.2 63.91 151.44 63.26 151.68 62.61 151.92 61.96 152.16 61.31 152.4 60.66 152.64 60.01 152.88 59.36 153.12 58.72 153.36 58.07 153.6 57.42 153.84 56.78 154.08 56.13 154.32 55.49 154.56 54.85 154.8 54.21 155.04 53.57 155.28 52.93 155.52 52.29 155.76 51.65 156 51.02 156.24 50.38 156.48 49.75 156.72 49.12 156.96 48.49 157.2 47.86 157.44 47.24 157.68 46.61 157.92 45.99 158.16 45.37 158.4 44.75 158.64 44.13 158.88 43.52 159.12 42.91 159.36 42.3 159.6 41.69 159.84 41.08 160.08 40.48 160.32 39.88 160.56 39.28 160.8 38.68 161.04 38.09 161.28 37.5 161.52 36.91 161.76 36.33 162 35.75 162.24 35.17 162.48 34.59 162.72 34.02 162.96 33.45 163.2 32.88 163.44 32.32 163.68 31.76 163.92 31.2 164.16 30.65 164.4 30.1 164.64 29.55 164.88 29.01 165.12 28.47 165.36 27.93 165.6 27.4 165.84 26.87 166.08 26.35 166.32 25.83 166.56 25.31 166.8 24.8 167.04 24.29 167.28 23.78 167.52 23.28 167.76 22.79 168 22.3 168.24 21.81 168.48 21.32 168.72 20.85 168.96 20.37 169.2 19.9 169.44 19.43 169.68 18.97 169.92 18.52 170.16 18.06 170.4 17.62 170.64 17.17 170.88 16.74 171.12 16.3 171.36 15.88 171.6 15.45 171.84 15.03 172.08 14.62 172.32 14.21 172.56 13.81 172.8 13.41 173.04 13.02 173.28 12.63 173.52 12.25 173.76 11.87 174 11.5 174.24 11.13 174.48 10.77 174.72 10.42 174.96 10.07 175.2 9.72 175.44 9.38 175.68 9.05 175.92 8.72 176.16 8.4 176.4 8.08 176.64 7.77 176.88 7.47 177.12 7.17 177.36 6.87 177.6 6.58 177.84 6.3 178.08 6.03 178.32 5.76 178.56 5.49 178.8 5.23 179.04 4.98 179.28 4.73 179.52 4.49 179.76 4.26 180 4.03 180.24 3.81 180.48 3.59 180.72 3.38 180.96 3.18 181.2 2.98 181.44 2.79 181.68 2.6 181.92 2.42 182.16 2.25 182.4 2.09 182.64 1.93 182.88 1.77 183.12 1.62 183.36 1.48 183.6 1.35 183.84 1.22 184.08 1.1 184.32 0.98 184.56 0.87 184.8 0.77 185.04 0.67 185.28 0.58 185.52 0.5 185.76 0.42 186 0.35 186.24 0.29 186.48 0.23 186.72 0.18 186.96 0.13 187.2 0.09 187.44 0.06 187.68 0.04 187.92 0.02 188.16 0.01 188.4 0 188.64 0 188.88 0.01 189.12 0.02 189.36 0.04 189.6 0.07 189.84 0.1 190.08 0.14 190.32 0.19 190.56 0.24 190.8 0.3 191.04 0.36 191.28 0.44 191.52 0.52 191.76 0.6 192 0.69 192.24 0.79 192.48 0.89 192.72 1 192.96 1.12 193.2 1.24 193.44 1.37 193.68 1.51 193.92 1.65 194.16 1.8 194.4 1.96 194.64 2.12 194.88 2.29 195.12 2.46 195.36 2.64 195.6 2.83 195.84 3.02 196.08 3.22 196.32 3.42 196.56 3.64 196.8 3.85 197.04 4.08 197.28 4.31 197.52 4.54 197.76 4.78 198 5.03 198.24 5.28 198.48 5.54 198.72 5.81 198.96 6.08 199.2 6.36 199.44 6.64 199.68 6.93 199.92 7.23 200.16 7.53 200.4 7.83 200.64 8.15 200.88 8.46 201.12 8.79 201.36 9.12 201.6 9.45 201.84 9.79 202.08 10.14 202.32 10.49 202.56 10.85 202.8 11.21 203.04 11.58 203.28 11.95 203.52 12.33 203.76 12.71 204 13.1 204.24 13.49 204.48 13.89 204.72 14.3 204.96 14.7 205.2 15.12 205.44 15.54 205.68 15.96 205.92 16.39 206.16 16.83 206.4 17.26 206.64 17.71 206.88 18.16 207.12 18.61 207.36 19.07 207.6 19.53 207.84 20 208.08 20.47 208.32 20.94 208.56 21.42 208.8 21.91 209.04 22.4 209.28 22.89 209.52 23.39 209.76 23.89 210 24.39 210.24 24.9 210.48 25.42 210.72 25.93 210.96 26.46 211.2 26.98 211.44 27.51 211.68 28.04 211.92 28.58 212.16 29.12 212.4 29.66 212.64 30.21 212.88 30.76 213.12 31.32 213.36 31.87 213.6 32.43 213.84 33 214.08 33.57 214.32 34.14 214.56 34.71 214.8 35.29 215.04 35.87 215.28 36.45 215.52 37.03 215.76 37.62 216 38.21 216.24 38.81 216.48 39.4 216.72 40 216.96 40.6 217.2 41.21 217.44 41.81 217.68 42.42 217.92 43.03 218.16 43.64 218.4 44.26 218.64 44.88 218.88 45.49 219.12 46.12 219.36 46.74 219.6 47.36 219.84 47.99 220.08 48.62 220.32 49.25 220.56 49.88 220.8 50.51 221.04 51.15 221.28 51.78 221.52 52.42 221.76 53.06 222 53.7 222.24 54.34 222.48 54.98 222.72 55.62 222.96 56.27 223.2 56.91 223.44 57.56 223.68 58.2 223.92 58.85 224.16 59.5 224.4 60.14 224.64 60.79 224.88 61.44 225.12 62.09 225.36 62.74 225.6 63.39 225.84 64.04 226.08 64.69 226.32 65.34 226.56 65.99 226.8 66.64 227.04 67.29 227.28 67.94 227.52 68.59 227.76 69.24 228 69.88 228.24 70.53 228.48 71.18 228.72 71.83 228.96 72.47 229.2 73.12 229.44 73.76 229.68 74.41 229.92 75.05 230.16 75.69 230.4 76.33 230.64 76.97 230.88 77.61 231.12 78.25 231.36 78.88 231.6 79.52 231.84 80.15 232.08 80.78 232.32 81.41 232.56 82.04 232.8 82.66 233.04 83.29 233.28 83.91 233.52 84.53 233.76 85.15 234 85.77 234.24 86.38 234.48 87 234.72 87.61 234.96 88.22 235.2 88.82 235.44 89.42 235.68 90.03 235.92 90.62 236.16 91.22 236.4 91.81 236.64 92.4 236.88 92.99 237.12 93.58 237.36 94.16 237.6 94.74 237.84 95.32 238.08 95.89 238.32 96.46 238.56 97.03 238.8 97.59 239.04 98.15 239.28 98.71 239.52 99.26 239.76 99.81 240 100.36 240 65 0 65"/><path class="svg-plot-line svg-plot-s0 svg-plot-d0" d="M 0 65 0.24 64.35 0.48 63.7 0.72 63.05 0.96 62.4 1.2 61.75 1.44 61.1 1.68 60.45 1.92 59.81 2.16 59.16 2.4 58.51 2.64 57.86 2.88 57.22 3.12 56.57 3.36 55.93 3.6 55.29 3.84 54.64 4.08 54 4.32 53.36 4.56 52.72 4.8 52.09 5.04 51.45 5.28 50.82 5.52 50.18 5.76 49.55 6 48.92 6.24 48.29 6.48 47.66 6.72 47.04 6.96 46.41 7.2 45.79 7.44 45.17 7.68 44.55 7.92 43.94 8.16 43.32 8.4 42.71 8.64 42.1 8.88 41.49 9.12 40.89 9.36 40.29 9.6 39.69 9.84 39.09 10.08 38.5 10.32 37.9 10.56 37.31 10.8 36.73 11.04 36.14 11.28 35.56 11.52 34.98 11.76 34.41 12 33.84 12.24 33.27 12.48 32.7 12.72 32.14 12.96 31.58 13.2 31.03 13.44 30.47 13.68 29.92 13.92 29.38 14.16 28.84 14.4 28.3 14.64 27.76 14.88 27.23 15.12 26.71 15.36 26.18 15.6 25.66 15.84 25.15 16.08 24.64 16.32 24.13 16.56 23.63 16.8 23.13 17.04 22.63 17.28 22.14 17.52 21.65 17.76 21.17 18 20.69 18.24 20.22 18.48 19.75 18.72 19.29 18.96 18.83 19.2 18.37 19.44 17.92 19.68 17.48 19.92 17.03 20.16 16.6 20.4 16.17 20.64 15.74 20.88 15.32 21.12 14.9 21.36 14.49 21.6 14.08 21.84 13.68 22.08 13.29 22.32 12.89 22.56 12.51 22.8 12.13 23.04 11.75 23.28 11.38 23.52 11.02 23.76 10.66 24 10.3 24.24 9.96 24.48 9.61 24.72 9.28 24.96 8.94 25.2 8.62 25.44 8.3 25.68 7.98 25.92 7.67 26.16 7.37 26.4 7.07 26.64 6.78 26.88 6.49 27.12 6.21 27.36 5.94 27.6 5.67 27.84 5.41 28.08 5.15 28.32 4.9 28.56 4.66 28.8 4.42 29.04 4.18 29.28 3.96 29.52 3.74 29.76 3.52 30 3.32 30.24 3.11 30.48 2.92 30.72 2.73 30.96 2.55 31.2 2.37 31.44 2.2 31.68 2.03 31.92 1.88 32.16 1.72 32.4 1.58 32.64 1.44 32.88 1.31 33.12 1.18 33.36 1.06 33.6 0.95 33.84 0.84 34.08 0.74 34.32 0.64 34.56 0.56 34.8 0.47 35.04 0.4 35.28 0.33 35.52 0.27 35.76 0.21 36 0.16 36.24 0.12 36.48 0.08 36.72 0.05 36.96 0.03 37.2 0.01 37.44 0 37.68 0 37.92 0 38.16 0.01 38.4 0.03 38.64 0.05 38.88 0.08 39.12 0.11 39.36 0.16 39.6 0.2 39.84 0.26 40.08 0.32 40.32 0.39 40.56 0.46 40.8 0.54 41.04 0.63 41.28 0.72 41.52 0.82 41.76 0.93 42 1.04 42.24 1.16 42.48 1.29 42.72 1.42 42.96 1.56 43.2 1.7 43.44 1.85 43.68 2.01 43.92 2.17 44.16 2.34 44.4 2.52 44.64 2.7 44.88 2.89 45.12 3.08 45.36 3.28 45.6 3.49 45.84 3.7 46.08 3.92 46.32 4.15 46.56 4.38 46.8 4.62 47.04 4.86 47.28 5.11 47.52 5.37 47.76 5.63 48 5.9 48.24 6.17 48.48 6.45 48.72 6.73 48.96 7.02 49.2 7.32 49.44 7.62 49.68 7.93 49.92 8.25 50.16 8.57 50.4 8.89 50.64 9.22 50.88 9.56 51.12 9.9 51.36 10.25 51.6 10.6 51.84 10.96 52.08 11.32 52.32 11.69 52.56 12.07 52.8 12.45 53.04 12.83 53.28 13.22 53.52 13.62 53.76 14.02 54 14.43 54.24 14.84 54.48 15.25 54.72 15.67 54.96 16.1 55.2 16.53 55.44 16.96 55.68 17.4 55.92 17.85 56.16 18.3 56.4 18.75 56.64 19.21 56.88 19.68 57.12 20.15 57.36 20.62 57.6 21.09 57.84 21.58 58.08 22.06 58.32 22.55 58.56 23.05 58.8 23.55 59.04 24.05 59.28 24.55 59.52 25.07 59.76 25.58 60 26.1 60.24 26.62 60.48 27.15 60.72 27.68 60.96 28.21 61.2 28.75 61.44 29.29 61.68 29.84 61.92 30.39 62.16 30.94 62.4 31.49 62.64 32.05 62.88 32.61 63.12 33.18 63.36 33.75 63.6 34.32 63.84 34.89 64.08 35.47 64.32 36.05 64.56 36.63 64.8 37.22 65.04 37.81 65.28 38.4 65.52 39 65.76 39.59 66 40.19 66.24 40.79 66.48 41.4 66.72 42.01 66.96 42.61 67.2 43.23 67.44 43.84 67.68 44.45 67.92 45.07 68.16 45.69 68.4 46.31 68.64 46.94 68.88 47.56 69.12 48.19 69.36 48.82 69.6 49.45 69.84 50.08 70.08 50.71 70.32 51.35 70.56 51.99 70.8 52.62 71.04 53.26 71.28 53.9 71.52 54.54 71.76 55.18 72 55.83 72.24 56.47 72.48 57.12 72.72 57.76 72.96 58.41 73.2 59.05 73.44 59.7 73.68 60.35 73.92 61 74.16 61.65 74.4 62.3 74.64 62.95 74.88 63.6 75.12 64.25 75.36 64.9 75.6 65.55 75.84 66.2 76.08 66.85 76.32 67.5 76.56 68.15 76.8 68.79 77.04 69.44 77.28 70.09 77.52 70.74 77.76 71.39 78 72.03 78.24 72.68 78.48 73.32 78.72 73.97 78.96 74.61 79.2 75.25 79.44 75.89 79.68 76.54 79.92 77.17 80.16 77.81 80.4 78.45 80.64 79.08 80.88 79.72 81.12 80.35 81.36 80.98 81.6 81.61 81.84 82.24 82.08 82.86 82.32 83.49 82.56 84.11 82.8 84.73 83.04 85.35 83.28 85.96 83.52 86.58 83.76 87.19 84 87.8 84.24 88.41 84.48 89.01 84.72 89.62 84.96 90.22 85.2 90.81 85.44 91.41 85.68 92 85.92 92.59 86.16 93.18 86.4 93.76 86.64 94.35 86.88 94.92 87.12 95.5 87.36 96.07 87.6 96.64 87.84 97.21 88.08 97.77 88.32 98.33 88.56 98.89 88.8 99.44 89.04 99.99 89.28 100.53 89.52 101.08 89.76 101.62 90 102.15 90.24 102.68 90.48 103.21 90.72 103.73 90.96 104.25 91.2 104.77 91.44 105.28 91.68 105.79 91.92 106.3 92.16 106.79 92.4 107.29 92.64 107.78 92.88 108.27 93.12 108.75 93.36 109.23 93.6 109.7 93.84 110.17 94.08 110.64 94.32 111.1 94.56 111.56 94.8 112.01 95.04 112.45 95.28 112.9 95.52 113.33 95.76 113.76 96 114.19 96.24 114.61 96.48 115.03 96.72 115.44 96.96 115.85 97.2 116.25 97.44 116.65 97.68 117.04 97.92 117.43 98.16 117.81 98.4 118.19 98.64 118.56 98.88 118.92 99.12 119.28 99.36 119.64 99.6 119.99 99.84 120.33 100.08 120.67 100.32 121 100.56 121.33 100.8 121.65 101.04 121.97 101.28 122.28 101.52 122.58 101.76 122.88 102 123.17 102.24 123.46 102.48 123.74 102.72 124.02 102.96 124.29 103.2 124.55 103.44 124.81 103.68 125.06 103.92 125.31 104.16 125.54 104.4 125.78 104.64 126.01 104.88 126.23 105.12 126.44 105.36 126.65 105.6 126.85 105.84 127.05 106.08 127.24 106.32 127.43 106.56 127.6 106.8 127.78 107.04 127.94 107.28 128.1 107.52 128.25 107.76 128.4 108 128.54 108.24 128.67 108.48 128.8 108.72 128.92 108.96 129.04 109.2 129.14 109.44 129.25 109.68 129.34 109.92 129.43 110.16 129.51 110.4 129.59 110.64 129.66 110.88 129.72 111.12 129.78 111.36 129.83 111.6 129.87 111.84 129.91 112.08 129.94 112.32 129.97 112.56 129.98 112.8 130 113.04 130 113.28 130 113.52 129.99 113.76 129.98 114 129.95 114.24 129.93 114.48 129.89 114.72 129.85 114.96 129.8 115.2 129.75 115.44 129.69 115.68 129.62 115.92 129.55 116.16 129.47 116.4 129.39 116.64 129.29 116.88 129.19 117.12 129.09 117.36 128.98 117.6 128.86 117.84 128.73 118.08 128.6 118.32 128.47 118.56 128.32 118.8 128.17 119.04 128.02 119.28 127.86 119.52 127.69 119.76 127.51 120 127.33 120.24 127.14 120.48 126.95 120.72 126.75 120.96 126.54 121.2 126.33 121.44 126.11 121.68 125.89 121.92 125.66 122.16 125.42 122.4 125.18 122.64 124.93 122.88 124.67 123.12 124.41 123.36 124.15 123.6 123.87 123.84 123.6 124.08 123.31 124.32 123.02 124.56 122.73 124.8 122.42 125.04 122.12 125.28 121.8 125.52 121.49 125.76 121.16 126 120.83 126.24 120.5 126.48 120.15 126.72 119.81 126.96 119.46 127.2 119.1 127.44 118.73 127.68 118.37 127.92 117.99 128.16 117.61 128.4 117.23 128.64 116.84 128.88 116.44 129.12 116.04 129.36 115.64 129.6 115.23 129.84 114.81 130.08 114.39 130.32 113.97 130.56 113.54 130.8 113.11 131.04 112.67 131.28 112.22 131.52 111.77 131.76 111.32 132 110.86 132.24 110.4 132.48 109.93 132.72 109.46 132.96 108.98 133.2 108.5 133.44 108.02 133.68 107.53 133.92 107.03 134.16 106.53 134.4 106.03 134.64 105.53 134.88 105.02 135.12 104.5 135.36 103.98 135.6 103.46 135.84 102.94 136.08 102.41 136.32 101.87 136.56 101.34 136.8 100.79 137.04 100.25 137.28 99.7 137.52 99.15 137.76 98.6 138 98.04 138.24 97.48 138.48 96.91 138.72 96.34 138.96 95.77 139.2 95.2 139.44 94.62 139.68 94.04 139.92 93.46 140.16 92.87 140.4 92.28 140.64 91.69 140.88 91.1 141.12 90.5 141.36 89.9 141.6 89.3 141.84 88.7 142.08 88.09 142.32 87.48 142.56 86.87 142.8 86.26 143.04 85.64 143.28 85.03 143.52 84.41 143.76 83.79 144 83.16 144.24 82.54 144.48 81.91 144.72 81.28 144.96 80.65 145.2 80.02 145.44 79.39 145.68 78.75 145.92 78.12 146.16 77.48 146.4 76.84 146.64 76.2 146.88 75.56 147.12 74.92 147.36 74.28 147.6 73.63 147.84 72.99 148.08 72.34 148.32 71.7 148.56 71.05 148.8 70.4 149.04 69.75 149.28 69.1 149.52 68.46 149.76 67.81 150 67.16 150.24 66.51 150.48 65.86 150.72 65.21 150.96 64.56 151.2 63.91 151.44 63.26 151.68 62.61 151.92 61.96 152.16 61.31 152.4 60.66 152.64 60.01 152.88 59.36 153.12 58.72 153.36 58.07 153.6 57.42 153.84 56.78 154.08 56.13 154.32 55.49 154.56 54.85 154.8 54.21 155.04 53.57 155.28 52.93 155.52 52.29 155.76 51.65 156 51.02 156.24 50.38 156.48 49.75 156.72 49.12 156.96 48.49 157.2 47.86 157.44 47.24 157.68 46.61 157.92 45.99 158.16 45.37 158.4 44.75 158.64 44.13 158.88 43.52 159.12 42.91 159.36 42.3 159.6 41.69 159.84 41.08 160.08 40.48 160.32 39.88 160.56 39.28 160.8 38.68 161.04 38.09 161.28 37.5 161.52 36.91 161.76 36.33 162 35.75 162.24 35.17 162.48 34.59 162.72 34.02 162.96 33.45 163.2 32.88 163.44 32.32 163.68 31.76 163.92 31.2 164.16 30.65 164.4 30.1 164.64 29.55 164.88 29.01 165.12 28.47 165.36 27.93 165.6 27.4 165.84 26.87 166.08 26.35 166.32 25.83 166.56 25.31 166.8 24.8 167.04 24.29 167.28 23.78 167.52 23.28 167.76 22.79 168 22.3 168.24 21.81 168.48 21.32 168.72 20.85 168.96 20.37 169.2 19.9 169.44 19.43 169.68 18.97 169.92 18.52 170.16 18.06 170.4 17.62 170.64 17.17 170.88 16.74 171.12 16.3 171.36 15.88 171.6 15.45 171.84 15.03 172.08 14.62 172.32 14.21 172.56 13.81 172.8 13.41 173.04 13.02 173.28 12.63 173.52 12.25 173.76 11.87 174 11.5 174.24 11.13 174.48 10.77 174.72 10.42 174.96 10.07 175.2 9.72 175.44 9.38 175.68 9.05 175.92 8.72 176.16 8.4 176.4 8.08 176.64 7.77 176.88 7.47 177.12 7.17 177.36 6.87 177.6 6.58 177.84 6.3 178.08 6.03 178.32 5.76 178.56 5.49 178.8 5.23 179.04 4.98 179.28 4.73 179.52 4.49 179.76 4.26 180 4.03 180.24 3.81 180.48 3.59 180.72 3.38 180.96 3.18 181.2 2.98 181.44 2.79 181.68 2.6 181.92 2.42 182.16 2.25 182.4 2.09 182.64 1.93 182.88 1.77 183.12 1.62 183.36 1.48 183.6 1.35 183.84 1.22 184.08 1.1 184.32 0.98 184.56 0.87 184.8 0.77 185.04 0.67 185.28 0.58 185.52 0.5 185.76 0.42 186 0.35 186.24 0.29 186.48 0.23 186.72 0.18 186.96 0.13 187.2 0.09 187.44 0.06 187.68 0.04 187.92 0.02 188.16 0.01 188.4 0 188.64 0 188.88 0.01 189.12 0.02 189.36 0.04 189.6 0.07 189.84 0.1 190.08 0.14 190.32 0.19 190.56 0.24 190.8 0.3 191.04 0.36 191.28 0.44 191.52 0.52 191.76 0.6 192 0.69 192.24 0.79 192.48 0.89 192.72 1 192.96 1.12 193.2 1.24 193.44 1.37 193.68 1.51 193.92 1.65 194.16 1.8 194.4 1.96 194.64 2.12 194.88 2.29 195.12 2.46 195.36 2.64 195.6 2.83 195.84 3.02 196.08 3.22 196.32 3.42 196.56 3.64 196.8 3.85 197.04 4.08 197.28 4.31 197.52 4.54 197.76 4.78 198 5.03 198.24 5.28 198.48 5.54 198.72 5.81 198.96 6.08 199.2 6.36 199.44 6.64 199.68 6.93 199.92 7.23 200.16 7.53 200.4 7.83 200.64 8.15 200.88 8.46 201.12 8.79 201.36 9.12 201.6 9.45 201.84 9.79 202.08 10.14 202.32 10.49 202.56 10.85 202.8 11.21 203.04 11.58 203.28 11.95 203.52 12.33 203.76 12.71 204 13.1 204.24 13.49 204.48 13.89 204.72 14.3 204.96 14.7 205.2 15.12 205.44 15.54 205.68 15.96 205.92 16.39 206.16 16.83 206.4 17.26 206.64 17.71 206.88 18.16 207.12 18.61 207.36 19.07 207.6 19.53 207.84 20 208.08 20.47 208.32 20.94 208.56 21.42 208.8 21.91 209.04 22.4 209.28 22.89 209.52 23.39 209.76 23.89 210 24.39 210.24 24.9 210.48 25.42 210.72 25.93 210.96 26.46 211.2 26.98 211.44 27.51 211.68 28.04 211.92 28.58 212.16 29.12 212.4 29.66 212.64 30.21 212.88 30.76 213.12 31.32 213.36 31.87 213.6 32.43 213.84 33 214.08 33.57 214.32 34.14 214.56 34.71 214.8 35.29 215.04 35.87 215.28 36.45 215.52 37.03 215.76 37.62 216 38.21 216.24 38.81 216.48 39.4 216.72 40 216.96 40.6 217.2 41.21 217.44 41.81 217.68 42.42 217.92 43.03 218.16 43.64 218.4 44.26 218.64 44.88 218.88 45.49 219.12 46.12 219.36 46.74 219.6 47.36 219.84 47.99 220.08 48.62 220.32 49.25 220.56 49.88 220.8 50.51 221.04 51.15 221.28 51.78 221.52 52.42 221.76 53.06 222 53.7 222.24 54.34 222.48 54.98 222.72 55.62 222.96 56.27 223.2 56.91 223.44 57.56 223.68 58.2 223.92 58.85 224.16 59.5 224.4 60.14 224.64 60.79 224.88 61.44 225.12 62.09 225.36 62.74 225.6 63.39 225.84 64.04 226.08 64.69 226.32 65.34 226.56 65.99 226.8 66.64 227.04 67.29 227.28 67.94 227.52 68.59 227.76 69.24 228 69.88 228.24 70.53 228.48 71.18 228.72 71.83 228.96 72.47 229.2 73.12 229.44 73.76 229.68 74.41 229.92 75.05 230.16 75.69 230.4 76.33 230.64 76.97 230.88 77.61 231.12 78.25 231.36 78.88 231.6 79.52 231.84 80.15 232.08 80.78 232.32 81.41 232.56 82.04 232.8 82.66 233.04 83.29 233.28 83.91 233.52 84.53 233.76 85.15 234 85.77 234.24 86.38 234.48 87 234.72 87.61 234.96 88.22 235.2 88.82 235.44 89.42 235.68 90.03 235.92 90.62 236.16 91.22 236.4 91.81 236.64 92.4 236.88 92.99 237.12 93.58 237.36 94.16 237.6 94.74 237.84 95.32 238.08 95.89 238.32 96.46 238.56 97.03 238.8 97.59 239.04 98.15 239.28 98.71 239.52 99.26 239.76 99.81 240 100.36"/></g><g><text class="svg-plot-label " x="0" y="0" transform="rotate(-90) translate(-65 -20.87)">signal</text><text class="svg-plot-value" style="text-anchor:end" x="-5" y="0">1</text><text class="svg-plot-value" style="text-anchor:end" x="-5" y="130">-1</text><text class="svg-plot-value" style="text-anchor:end" x="-5" y="65">0</text><text class="svg-plot-label " x="120" y="155">time</text><text class="svg-plot-value" x="240" y="139.5">10</text><text class="svg-plot-value" x="0" y="139.5">0</text><text class="svg-plot-label svg-plot-t1" style="text-anchor:start" x="243" y="118.34">cos(x)</text><text class="svg-plot-label svg-plot-t0" style="text-anchor:start" x="243" y="99.1614">sin(x)</text></g><defs><mask id="svg-plot-hatch0"><rect x="-398" y="-398" width="796" height="796" fill="url(#svg-plot-hatch0-pattern)" style="transform:rotate(30deg)"/></mask><pattern patternUnits="userSpaceOnUse" id="svg-plot-hatch0-pattern" class="svg-plot-hatch" x="0" y="0" width="10" height="2.4" stroke="#FFF" fill="none"><line x1="-1" x2="11" y1="1.2" y2="1.2"/></pattern><mask id="svg-plot-hatch1"><rect x="-398" y="-398" width="796" height="796" fill="url(#svg-plot-hatch1-pattern)" style="transform:rotate(-50deg)"/></mask><pattern patternUnits="userSpaceOnUse" id="svg-plot-hatch1-pattern" class="svg-plot-hatch" x="0" y="0" width="10" height="3" stroke="#FFF" fill="none"><line x1="-1" x2="11" y1="1.5" y2="1.5"/></pattern><mask id="svg-plot-hatch3"><rect x="-398" y="-398" width="796" height="796" fill="url(#svg-plot-hatch3-pattern)" style="transform:rotate(8deg)"/><rect x="-398" y="-398" width="796" height="796" fill="url(#svg-plot-hatch3-pattern)" style="transform:rotate(93deg)"/></mask><pattern patternUnits="userSpaceOnUse" id="svg-plot-hatch3-pattern" class="svg-plot-hatch" x="0" y="0" width="10" height="3" stroke="#FFF" fill="none"><line x1="-1" x2="11" y1="1.5" y2="1.5"/></pattern></defs><style>.svg-plot{stroke-linecap:butt;}.svg-plot-bg{fill:none;stroke:none;}.svg-plot-axis{stroke:none;fill:rgba(255,255,255,0.85);}.svg-plot-line{stroke:blue;fill:none;stroke-width:2px;stroke-linejoin:round;}.svg-plot-fill{stroke:none;opacity:0.6;}.svg-plot-major{stroke:#000;stroke-width:1px;stroke-linecap:square;fill:none;}.svg-plot-minor{stroke:rgba(0,0,0,0.3);stroke-width:0.5px;stroke-dasharray:0.5 1.5;stroke-linecap:round;fill:none;}.svg-plot-tick{stroke:#000;fill:none;stroke-width:1px;stroke-linecap:butt;}.svg-plot-value,.svg-plot-label{font-family:Arial,sans-serif;fill:#000;stroke:rgba(255,255,255,0.7);stroke-width:2px;paint-order:stroke fill;text-anchor:middle;dominant-baseline:central;alignment-baseline:baseline;}.svg-plot-label{font-size:12px;}.svg-plot-value{font-size:9px;}.svg-plot-hatch{stroke:#FFF;stroke-width:1px;}.svg-plot-s0{stroke:#CC0000}.svg-plot-f0,.svg-plot-t0{fill:#CC0000}.svg-plot-s1{stroke:#0073E6}.svg-plot-f1,.svg-plot-t1{fill:#0073E6}.svg-plot-s2{stroke:#00B300}.svg-plot-f2,.svg-plot-t2{fill:#00B300}.svg-plot-s3{stroke:#806600}.svg-plot-f3,.svg-plot-t3{fill:#806600}.svg-plot-s4{stroke:#E69900}.svg-plot-f4,.svg-plot-t4{fill:#E69900}.svg-plot-s5{stroke:#CC00CC}.svg-plot-f5,.svg-plot-t5{fill:#CC00CC}.svg-plot-d0{stroke-width:1.8px}.svg-plot-d1{stroke-dasharray:5.6 3.2}.svg-plot-d2{stroke-dasharray:2.4 2.4}.svg-plot-d3{stroke-dasharray:10 8}.svg-plot-d4{stroke-dasharray:8 2 2 2 2 2}.svg-plot-d5{stroke-dasharray:20 6}.svg-plot-d6{stroke-dasharray:8 4 2 4}.svg-plot-h0{mask:url(#svg-plot-hatch0)}.svg-plot-h1{mask:url(#svg-plot-hatch1)}.svg-plot-h2{opacity:0.34641}.svg-plot-h3{mask:url(#svg-plot-hatch3)}#svg-plot-hatch0-pattern{stroke-width:0.9px}#svg-plot-hatch3-pattern{stroke-width:0.7px}.svg-plot-value,.svg-plot-label{font-family:Verdana,sans-serif;}.svg-plot-axis{fill:#EEE;}.svg-plot-tick{stroke:#666;stroke-width:0.75px;}.svg-plot-value{fill:#666;opacity:0.8;font-weight:bold;}.svg-plot-major{stroke:#FFF;stroke-width:1.5px;}.svg-plot-minor{stroke:#FFF;stroke-width:0.75px;stroke-dasharray:none;}</style></svg>