<?xml version="1.0" encoding="utf-8" standalone="no"?>
<!DOCTYPE svg PUBLIC "-//W3C//DTD SVG 1.1//EN" "http://www.w3.org/Graphics/SVG/1.1/DTD/svg11.dtd">
<svg version="1.1" class="svg-plot" xmlns="http://www.w3.org/2000/svg" width="328.6pt" height="186pt" viewBox="-40.8 -15 328.6 186" preserveAspectRatio="xMidYMid"><rect x="-30.8" y="-5" width="308.6" height="166" class="svg-plot-bg"/><rect x="0" y="0" width="240" height="130" class="svg-plot-axis"/><line x1="0" x2="0" y1="-4" y2="130" class="svg-plot-major"/><line x1="0" x2="240" y1="65" y2="65" class="svg-plot-major"/><line x1="0" x2="240" y1="130" y2="130" class="svg-plot-minor"/><line x1="0" x2="240" y1="0" y2="0" class="svg-plot-minor"/><clipPath id="clip16808"><rect x="-0.75" y="-0.75" width="241.5" height="131.5"/></clipPath><g clip-path="url(#clip16808)"><path class="svg-plot-line svg-plot-s1 svg-plot-d1" d="M 0 0 0.24 0.00324997 0.48 0.0129996 0.72 0.0292478 0.96 0.0519931 1.2 0.0812331 1.44 0.116965 1.68 0.159185 1.92 0.207889 2.16 0.263072 2.4 0.324729 2.64 0.392854 2.88 0.467439 3.12 0.548477 3.36 0.63596 3.6 0.72988 3.84 0.830227 4.08 0.93699 4.32 1.05016 4.56 1.16972 4.8 1.29567 5.04 1.42799 5.28 1.56667 5.52 1.71168 5.76 1.86303 6 2.02069 6.24 2.18465 6.48 2.35489 6.72 2.5314 6.96 2.71415 7.2 2.90313 7.44 3.09832 7.68 3.2997 7.92 3.50725 8.16 3.72095 8.4 3.94077 8.64 4.16671 8.88 4.39872 9.12 4.6368 9.36 4.88091 9.6 5.13104 9.84 5.38715 10.08 5.64922 10.32 5.91723 10.56 6.19114 10.8 6.47094 11.04 6.75659 11.28 7.04806 11.52 7.34533 11.76 7.64836 12 7.95713 12.24 8.27161 12.48 8.59175 12.72 8.91754 12.96 9.24894 13.2 9.58591 13.44 9.92842 13.68 10.2764 13.92 10.6299 14.16 10.9889 14.4 11.3532 14.64 11.7229 14.88 12.0979 15.12 12.4782 15.36 12.8638 15.6 13.2546 15.84 13.6505 16.08 14.0516 16.32 14.4578 16.56 14.869 16.8 15.2853 17.04 15.7065 17.28 16.1326 17.52 16.5637 17.76 16.9995 18 17.4402 18.24 17.8857 18.48 18.3358 18.72 18.7906 18.96 19.2501 19.2 19.7141 19.44 20.1826 19.68 20.6556 19.92 21.1331 20.16 21.6149 20.4 22.1011 20.64 22.5916 20.88 23.0863 21.12 23.5852 21.36 24.0882 21.6 24.5954 21.84 25.1065 22.08 25.6217 22.32 26.1408 22.56 26.6638 22.8 27.1906 23.04 27.7212 23.28 28.2555 23.52 28.7935 23.76 29.3352 24 29.8804 24.24 30.4291 24.48 30.9812 24.72 31.5368 24.96 32.0957 25.2 32.6579 25.44 33.2233 25.68 33.7919 25.92 34.3637 26.16 34.9385 26.4 35.5163 26.64 36.097 26.88 36.6806 27.12 37.2671 27.36 37.8564 27.6 38.4483 27.84 39.0429 28.08 39.6401 28.32 40.2399 28.56 40.8421 28.8 41.4467 29.04 42.0537 29.28 42.663 29.52 43.2745 29.76 43.8882 30 44.504 30.24 45.1219 30.48 45.7417 30.72 46.3635 30.96 46.9871 31.2 47.6126 31.44 48.2397 31.68 48.8686 31.92 49.4991 32.16 50.1311 32.4 50.7646 32.64 51.3995 32.88 52.0358 33.12 52.6733 33.36 53.3122 33.6 53.9521 33.84 54.5932 34.08 55.2353 34.32 55.8784 34.56 56.5225 34.8 57.1673 35.04 57.813 35.28 58.4593 35.52 59.1063 35.76 59.754 36 60.4021 36.24 61.0507 36.48 61.6997 36.72 62.349 36.96 62.9986 37.2 63.6483 37.44 64.2983 37.68 64.9482 37.92 65.5982 38.16 66.2482 38.4 66.898 38.64 67.5476 38.88 68.1969 39.12 68.846 39.36 69.4946 39.6 70.1429 39.84 70.7906 40.08 71.4377 40.32 72.0841 40.56 72.7299 40.8 73.3749 41.04 74.019 41.28 74.6623 41.52 75.3046 41.76 75.9458 42 76.586 42.24 77.225 42.48 77.8628 42.72 78.4993 42.96 79.1344 43.2 79.7681 43.44 80.4004 43.68 81.0311 43.92 81.6602 44.16 82.2877 44.4 82.9134 44.64 83.5373 44.88 84.1594 45.12 84.7795 45.36 85.3977 45.6 86.0138 45.84 86.6279 46.08 87.2397 46.32 87.8494 46.56 88.4567 46.8 89.0618 47.04 89.6644 47.28 90.2645 47.52 90.8621 47.76 91.4572 48 92.0495 48.24 92.6392 48.48 93.2261 48.72 93.8102 48.96 94.3915 49.2 94.9697 49.44 95.545 49.68 96.1172 49.92 96.6863 50.16 97.2523 50.4 97.815 50.64 98.3744 50.88 98.9305 51.12 99.4832 51.36 100.032 51.6 100.578 51.84 101.12 52.08 101.659 52.32 102.194 52.56 102.725 52.8 103.253 53.04 103.776 53.28 104.296 53.52 104.812 53.76 105.324 54 105.831 54.24 106.335 54.48 106.835 54.72 107.33 54.96 107.821 55.2 108.308 55.44 108.79 55.68 109.269 55.92 109.742 56.16 110.212 56.4 110.676 56.64 111.137 56.88 111.592 57.12 112.043 57.36 112.489 57.6 112.931 57.84 113.367 58.08 113.799 58.32 114.226 58.56 114.648 58.8 115.065 59.04 115.477 59.28 115.884 59.52 116.286 59.76 116.683 60 117.074 60.24 117.461 60.48 117.842 60.72 118.218 60.96 118.588 61.2 118.953 61.44 119.313 61.68 119.668 61.92 120.017 62.16 120.36 62.4 120.698 62.64 121.03 62.88 121.357 63.12 121.678 63.36 121.993 63.6 122.303 63.84 122.607 64.08 122.905 64.32 123.197 64.56 123.484 64.8 123.765 65.04 124.04 65.28 124.308 65.52 124.572 65.76 124.829 66 125.08 66.24 125.325 66.48 125.564 66.72 125.797 66.96 126.024 67.2 126.244 67.44 126.459 67.68 126.668 67.92 126.87 68.16 127.066 68.4 127.256 68.64 127.44 68.88 127.617 69.12 127.789 69.36 127.954 69.6 128.112 69.84 128.265 70.08 128.411 70.32 128.55 70.56 128.684 70.8 128.811 71.04 128.931 71.28 129.045 71.52 129.153 71.76 129.255 72 129.35 72.24 129.438 72.48 129.52 72.72 129.596 72.96 129.665 73.2 129.728 73.44 129.784 73.68 129.833 73.92 129.877 74.16 129.914 74.4 129.944 74.64 129.968 74.88 129.985 75.12 129.996 75.36 130 75.6 129.998 75.84 129.989 76.08 129.974 76.32 129.952 76.56 129.924 76.8 129.889 77.04 129.848 77.28 129.8 77.52 129.746 77.76 129.686 78 129.618 78.24 129.545 78.48 129.465 78.72 129.378 78.96 129.286 79.2 129.186 79.44 129.08 79.68 128.968 79.92 128.85 80.16 128.725 80.4 128.594 80.64 128.456 80.88 128.312 81.12 128.161 81.36 128.005 81.6 127.842 81.84 127.673 82.08 127.497 82.32 127.315 82.56 127.127 82.8 126.933 83.04 126.733 83.28 126.526 83.52 126.313 83.76 126.095 84 125.87 84.24 125.639 84.48 125.402 84.72 125.158 84.96 124.909 85.2 124.654 85.44 124.393 85.68 124.126 85.92 123.853 86.16 123.574 86.4 123.289 86.64 122.999 86.88 122.702 87.12 122.4 87.36 122.092 87.6 121.779 87.84 121.46 88.08 121.135 88.32 120.804 88.56 120.468 88.8 120.127 89.04 119.779 89.28 119.427 89.52 119.069 89.76 118.705 90 118.336 90.24 117.962 90.48 117.583 90.72 117.198 90.96 116.808 91.2 116.413 91.44 116.013 91.68 115.607 91.92 115.197 92.16 114.781 92.4 114.361 92.64 113.936 92.88 113.505 93.12 113.07 93.36 112.63 93.6 112.186 93.84 111.736 94.08 111.282 94.32 110.823 94.56 110.36 94.8 109.892 95.04 109.42 95.28 108.943 95.52 108.462 95.76 107.977 96 107.487 96.24 106.993 96.48 106.495 96.72 105.992 96.96 105.486 97.2 104.975 97.44 104.461 97.68 103.942 97.92 103.42 98.16 102.894 98.4 102.364 98.64 101.83 98.88 101.292 99.12 100.751 99.36 100.207 99.6 99.6586 99.84 99.107 100.08 98.5519 100.32 97.9936 100.56 97.4319 100.8 96.867 101.04 96.2988 101.28 95.7276 101.52 95.1533 101.76 94.576 102 93.9957 102.24 93.4125 102.48 92.8265 102.72 92.2377 102.96 91.6461 103.2 91.0519 103.44 90.4551 103.68 89.8558 103.92 89.254 104.16 88.6497 104.4 88.0431 104.64 87.4342 104.88 86.823 105.12 86.2096 105.36 85.5942 105.6 84.9766 105.84 84.3571 106.08 83.7356 106.32 83.1123 106.56 82.4872 106.8 81.8603 107.04 81.2317 107.28 80.6015 107.52 79.9697 107.76 79.3364 108 78.7017 108.24 78.0657 108.48 77.4283 108.72 76.7897 108.96 76.1499 109.2 75.509 109.44 74.867 109.68 74.224 109.92 73.5802 110.16 72.9354 110.4 72.2899 110.64 71.6437 110.88 70.9967 111.12 70.3492 111.36 69.7012 111.6 69.0527 111.84 68.4037 112.08 67.7545 112.32 67.1049 112.56 66.4552 112.8 65.8053 113.04 65.1553 113.28 64.5053 113.52 63.8553 113.76 63.2055 114 62.5559 114.24 61.9065 114.48 61.2574 114.72 60.6086 114.96 59.9603 115.2 59.3126 115.44 58.6654 115.68 58.0188 115.92 57.3729 116.16 56.7278 116.4 56.0835 116.64 55.4401 116.88 54.7976 117.12 54.1562 117.36 53.5159 117.6 52.8767 117.84 52.2387 118.08 51.602 118.32 50.9667 118.56 50.3327 118.8 49.7002 119.04 49.0692 119.28 48.4399 119.52 47.8122 119.76 47.1862 120 46.562 120.24 45.9396 120.48 45.3191 120.72 44.7006 120.96 44.0842 121.2 43.4698 121.44 42.8576 121.68 42.2476 121.92 41.6398 122.16 41.0344 122.4 40.4314 122.64 39.8309 122.88 39.2329 123.12 38.6374 123.36 38.0446 123.6 37.4545 123.84 36.8671 124.08 36.2826 124.32 35.7009 124.56 35.1222 124.8 34.5464 125.04 33.9737 125.28 33.4041 125.52 32.8376 125.76 32.2744 126 31.7144 126.24 31.1578 126.48 30.6046 126.72 30.0548 126.96 29.5084 127.2 28.9657 127.44 28.4265 127.68 27.891 127.92 27.3592 128.16 26.8312 128.4 26.307 128.64 25.7866 128.88 25.2702 129.12 24.7577 129.36 24.2493 129.6 23.745 129.84 23.2447 130.08 22.7487 130.32 22.2569 130.56 21.7693 130.8 21.2861 131.04 20.8072 131.28 20.3328 131.52 19.8628 131.76 19.3974 132 18.9365 132.24 18.4802 132.48 18.0285 132.72 17.5816 132.96 17.1394 133.2 16.702 133.44 16.2694 133.68 15.8417 133.92 15.4189 134.16 15.0011 134.4 14.5882 134.64 14.1804 134.88 13.7777 135.12 13.3801 135.36 12.9877 135.6 12.6005 135.84 12.2185 136.08 11.8418 136.32 11.4704 136.56 11.1043 136.8 10.7437 137.04 10.3884 137.28 10.0387 137.52 9.69441 137.76 9.35567 138 9.02249 138.24 8.69492 138.48 8.37297 138.72 8.05669 138.96 7.7461 139.2 7.44123 139.44 7.14212 139.68 6.8488 139.92 6.56129 140.16 6.27963 140.4 6.00384 140.64 5.73394 140.88 5.46998 141.12 5.21197 141.36 4.95993 141.6 4.7139 141.84 4.4739 142.08 4.23995 142.32 4.01208 142.56 3.7903 142.8 3.57465 143.04 3.36514 143.28 3.16179 143.52 2.96463 143.76 2.77367 144 2.58893 144.24 2.41043 144.48 2.2382 144.72 2.07224 144.96 1.91257 145.2 1.75921 145.44 1.61217 145.68 1.47147 145.92 1.33713 146.16 1.20915 146.4 1.08755 146.64 0.972343 146.88 0.863538 147.12 0.761146 147.36 0.665178 147.6 0.575644 147.84 0.492552 148.08 0.41591 148.32 0.345727 148.56 0.28201 148.8 0.224764 149.04 0.173995 149.28 0.129709 149.52 0.0919103 149.76 0.0606021 150 0.0357878 150.24 0.0174699 150.48 0.00565012 150.72 0.000329751 150.96 0.0015093 151.2 0.00918864 151.44 0.023367 151.68 0.044043 151.92 0.0712145 152.16 0.104879 152.4 0.145033 152.64 0.191672 152.88 0.244792 153.12 0.304387 153.36 0.370452 153.6 0.44298 153.84 0.521964 154.08 0.607395 154.32 0.699266 154.56 0.797566 154.8 0.902287 155.04 1.01342 155.28 1.13095 155.52 1.25486 155.76 1.38515 156 1.5218 156.24 1.6648 156.48 1.81414 156.72 1.96979 156.96 2.13174 157.2 2.29998 157.44 2.4745 157.68 2.65526 157.92 2.84226 158.16 3.03547 158.4 3.23488 158.64 3.44047 158.88 3.65221 159.12 3.87009 159.36 4.09408 159.6 4.32416 159.84 4.56031 160.08 4.8025 160.32 5.05071 160.56 5.30492 160.8 5.5651 161.04 5.83122 161.28 6.10325 161.52 6.38118 161.76 6.66497 162 6.95459 162.24 7.25001 162.48 7.55121 162.72 7.85816 162.96 8.17082 163.2 8.48916 163.44 8.81316 163.68 9.14277 163.92 9.47797 164.16 9.81872 164.4 10.165 164.64 10.5167 164.88 10.8739 165.12 11.2366 165.36 11.6045 165.6 11.9779 165.84 12.3565 166.08 12.7404 166.32 13.1295 166.56 13.5238 166.8 13.9233 167.04 14.3278 167.28 14.7375 167.52 15.1521 167.76 15.5718 168 15.9964 168.24 16.4258 168.48 16.8602 168.72 17.2993 168.96 17.7433 169.2 18.1919 169.44 18.6452 169.68 19.1032 169.92 19.5658 170.16 20.0329 170.4 20.5045 170.64 20.9805 170.88 21.461 171.12 21.9458 171.36 22.4349 171.6 22.9282 171.84 23.4258 172.08 23.9275 172.32 24.4334 172.56 24.9433 172.8 25.4572 173.04 25.975 173.28 26.4968 173.52 27.0224 173.76 27.5518 174 28.0849 174.24 28.6218 174.48 29.1622 174.72 29.7063 174.96 30.2539 175.2 30.805 175.44 31.3594 175.68 31.9173 175.92 32.4785 176.16 33.0429 176.4 33.6105 176.64 34.1812 176.88 34.755 177.12 35.3319 177.36 35.9117 177.6 36.4944 177.84 37.08 178.08 37.6684 178.32 38.2595 178.56 38.8532 178.8 39.4496 179.04 40.0486 179.28 40.65 179.52 41.2539 179.76 41.8601 180 42.4687 180.24 43.0795 180.48 43.6925 180.72 44.3077 180.96 44.9249 181.2 45.5441 181.44 46.1653 181.68 46.7883 181.92 47.4132 182.16 48.0398 182.4 48.6681 182.64 49.2981 182.88 49.9296 183.12 50.5626 183.36 51.1971 183.6 51.8329 183.84 52.4701 184.08 53.1085 184.32 53.7482 184.56 54.3889 184.8 55.0307 185.04 55.6735 185.28 56.3172 185.52 56.9618 185.76 57.6072 186 58.2534 186.24 58.9002 186.48 59.5476 186.72 60.1956 186.96 60.844 187.2 61.4929 187.44 62.1421 187.68 62.7916 187.92 63.4413 188.16 64.0912 188.4 64.7412 188.64 65.3912 188.88 66.0411 189.12 66.691 189.36 67.3407 189.6 67.9901 189.84 68.6393 190.08 69.2881 190.32 69.9364 190.56 70.5843 190.8 71.2316 191.04 71.8783 191.28 72.5243 191.52 73.1695 191.76 73.814 192 74.4575 192.24 75.1001 192.48 75.7417 192.72 76.3822 192.96 77.0216 193.2 77.6598 193.44 78.2967 193.68 78.9322 193.92 79.5664 194.16 80.1992 194.4 80.8304 194.64 81.46 194.88 82.088 195.12 82.7142 195.36 83.3387 195.6 83.9614 195.84 84.5822 196.08 85.201 196.32 85.8178 196.56 86.4325 196.8 87.0451 197.04 87.6554 197.28 88.2635 197.52 88.8693 197.76 89.4727 198 90.0736 198.24 90.672 198.48 91.2679 198.72 91.8611 198.96 92.4517 199.2 93.0395 199.44 93.6245 199.68 94.2066 199.92 94.7858 200.16 95.3621 200.4 95.9353 200.64 96.5054 200.88 97.0724 201.12 97.6361 201.36 98.1966 201.6 98.7538 201.84 99.3076 202.08 99.8579 202.32 100.405 202.56 100.948 202.8 101.488 203.04 102.024 203.28 102.556 203.52 103.085 203.76 103.61 204 104.131 204.24 104.648 204.48 105.161 204.72 105.67 204.96 106.175 205.2 106.676 205.44 107.173 205.68 107.665 205.92 108.153 206.16 108.637 206.4 109.117 206.64 109.592 206.88 110.063 207.12 110.529 207.36 110.99 207.6 111.447 207.84 111.9 208.08 112.348 208.32 112.79 208.56 113.229 208.8 113.662 209.04 114.091 209.28 114.514 209.52 114.933 209.76 115.346 210 115.755 210.24 116.158 210.48 116.557 210.72 116.95 210.96 117.338 211.2 117.721 211.44 118.099 211.68 118.471 211.92 118.838 212.16 119.199 212.4 119.555 212.64 119.906 212.88 120.251 213.12 120.591 213.36 120.925 213.6 121.253 213.84 121.576 214.08 121.893 214.32 122.205 214.56 122.511 214.8 122.811 215.04 123.105 215.28 123.393 215.52 123.676 215.76 123.953 216 124.223 216.24 124.488 216.48 124.747 216.72 125 216.96 125.247 217.2 125.488 217.44 125.723 217.68 125.952 217.92 126.175 218.16 126.391 218.4 126.602 218.64 126.806 218.88 127.004 219.12 127.196 219.36 127.382 219.6 127.562 219.84 127.735 220.08 127.902 220.32 128.062 220.56 128.217 220.8 128.365 221.04 128.507 221.28 128.642 221.52 128.771 221.76 128.894 222 129.01 222.24 129.12 222.48 129.223 222.72 129.32 222.96 129.411 223.2 129.495 223.44 129.572 223.68 129.644 223.92 129.708 224.16 129.767 224.4 129.818 224.64 129.864 224.88 129.903 225.12 129.935 225.36 129.961 225.6 129.98 225.84 129.993 226.08 129.999 226.32 129.999 226.56 129.992 226.8 129.979 227.04 129.96 227.28 129.934 227.52 129.901 227.76 129.862 228 129.816 228.24 129.764 228.48 129.706 228.72 129.641 228.96 129.569 229.2 129.491 229.44 129.407 229.68 129.316 229.92 129.219 230.16 129.115 230.4 129.005 230.64 128.888 230.88 128.765 231.12 128.636 231.36 128.5 231.6 128.358 231.84 128.21 232.08 128.055 232.32 127.894 232.56 127.727 232.8 127.554 233.04 127.374 233.28 127.188 233.52 126.996 233.76 126.797 234 126.593 234.24 126.382 234.48 126.165 234.72 125.942 234.96 125.713 235.2 125.478 235.44 125.236 235.68 124.989 235.92 124.736 236.16 124.477 236.4 124.212 236.64 123.94 236.88 123.663 237.12 123.381 237.36 123.092 237.6 122.797 237.84 122.497 238.08 122.191 238.32 121.879 238.56 121.562 238.8 121.239 239.04 120.91 239.28 120.576 239.52 120.236 239.76 119.891 240 119.54"/><path class="svg-plot-line svg-plot-s0 svg-plot-d0" d="M 0 65 0.24 64.35 0.48 63.7001 0.72 63.0503 0.96 62.4007 1.2 61.7514 1.44 61.1023 1.68 60.4537 1.92 59.8055 2.16 59.1579 2.4 58.5108 2.64 57.8644 2.88 57.2187 3.12 56.5738 3.36 55.9297 3.6 55.2865 3.84 54.6443 4.08 54.0031 4.32 53.3631 4.56 52.7242 4.8 52.0865 5.04 51.4501 5.28 50.8151 5.52 50.1815 5.76 49.5493 6 48.9187 6.24 48.2898 6.48 47.6625 6.72 47.0369 6.96 46.4131 7.2 45.7912 7.44 45.1712 7.68 44.5532 7.92 43.9372 8.16 43.3233 8.4 42.7116 8.64 42.1022 8.88 41.495 9.12 40.8902 9.36 40.2878 9.6 39.6878 9.84 39.0904 10.08 38.4956 10.32 37.9034 10.56 37.3139 10.8 36.7272 11.04 36.1434 11.28 35.5624 11.52 34.9844 11.76 34.4093 12 33.8373 12.24 33.2685 12.48 32.7028 12.72 32.1403 12.96 31.5812 13.2 31.0253 13.44 30.4729 13.68 29.9239 13.92 29.3784 14.16 28.8365 14.4 28.2982 14.64 27.7636 14.88 27.2327 15.12 26.7056 15.36 26.1823 15.6 25.6629 15.84 25.1474 16.08 24.6359 16.32 24.1285 16.56 23.6251 16.8 23.1259 17.04 22.6308 17.28 22.14 17.52 21.6535 17.76 21.1713 18 20.6935 18.24 20.2201 18.48 19.7512 18.72 19.2868 18.96 18.827 19.2 18.3719 19.44 17.9213 19.68 17.4755 19.92 17.0345 20.16 16.5982 20.4 16.1668 20.64 15.7402 20.88 15.3186 21.12 14.902 21.36 14.4903 21.6 14.0838 21.84 13.6823 22.08 13.2859 22.32 12.8947 22.56 12.5087 22.8 12.128 23.04 11.7525 23.28 11.3824 23.52 11.0177 23.76 10.6583 24 10.3044 24.24 9.95593 24.48 9.61298 24.72 9.27557 24.96 8.94373 25.2 8.61749 25.44 8.29689 25.68 7.98197 25.92 7.67274 26.16 7.36925 26.4 7.07152 26.64 6.77959 26.88 6.49347 27.12 6.21321 27.36 5.93882 27.6 5.67034 27.84 5.4078 28.08 5.15121 28.32 4.90061 28.56 4.65602 28.8 4.41746 29.04 4.18496 29.28 3.95854 29.52 3.73823 29.76 3.52404 30 3.316 30.24 3.11413 30.48 2.91844 30.72 2.72897 30.96 2.54572 31.2 2.36872 31.44 2.19798 31.68 2.03352 31.92 1.87536 32.16 1.7235 32.4 1.57798 32.64 1.4388 32.88 1.30598 33.12 1.17952 33.36 1.05945 33.6 0.945768 33.84 0.838493 34.08 0.737635 34.32 0.643204 34.56 0.555207 34.8 0.473656 35.04 0.398556 35.28 0.329917 35.52 0.267745 35.76 0.212046 36 0.162826 36.24 0.120089 36.48 0.0838406 36.72 0.0540836 36.96 0.030821 37.2 0.0140553 37.44 0.00378819 37.68 2.06094e-05 37.92 0.00275298 38.16 0.011985 38.4 0.0277158 38.64 0.0499438 38.88 0.0786667 39.12 0.113882 39.36 0.155585 39.6 0.203773 39.84 0.258441 40.08 0.319582 40.32 0.387192 40.56 0.461263 40.8 0.541787 41.04 0.628758 41.28 0.722165 41.52 0.822 41.76 0.928253 42 1.04091 42.24 1.15997 42.48 1.28541 42.72 1.41722 42.96 1.55539 43.2 1.6999 43.44 1.85075 43.68 2.00791 43.92 2.17136 44.16 2.34111 44.4 2.51711 44.64 2.69937 44.88 2.88785 45.12 3.08255 45.36 3.28344 45.6 3.49049 45.84 3.7037 46.08 3.92304 46.32 4.14849 46.56 4.38002 46.8 4.61762 47.04 4.86125 47.28 5.1109 47.52 5.36653 47.76 5.62813 48 5.89567 48.24 6.16911 48.48 6.44844 48.72 6.73363 48.96 7.02464 49.2 7.32145 49.44 7.62402 49.68 7.93234 49.92 8.24636 50.16 8.56605 50.4 8.89139 50.64 9.22234 50.88 9.55887 51.12 9.90094 51.36 10.2485 51.6 10.6016 51.84 10.9601 52.08 11.324 52.32 11.6932 52.56 12.0678 52.8 12.4477 53.04 12.8329 53.28 13.2232 53.52 13.6188 53.76 14.0195 54 14.4252 54.24 14.8361 54.48 15.2519 54.72 15.6728 54.96 16.0985 55.2 16.5292 55.44 16.9647 55.68 17.405 55.92 17.85 56.16 18.2998 56.4 18.7542 56.64 19.2133 56.88 19.6769 57.12 20.1451 57.36 20.6178 57.6 21.0949 57.84 21.5764 58.08 22.0622 58.32 22.5524 58.56 23.0467 58.8 23.5453 59.04 24.048 59.28 24.5548 59.52 25.0657 59.76 25.5805 60 26.0993 60.24 26.622 60.48 27.1485 60.72 27.6788 60.96 28.2128 61.2 28.7506 61.44 29.2919 61.68 29.8368 61.92 30.3852 62.16 30.9371 62.4 31.4924 62.64 32.0511 62.88 32.613 63.12 33.1782 63.36 33.7465 63.6 34.318 63.84 34.8926 64.08 35.4701 64.32 36.0506 64.56 36.6341 64.8 37.2203 65.04 37.8093 65.28 38.4011 65.52 38.9955 65.76 39.5925 66 40.192 66.24 40.7941 66.48 41.3985 66.72 42.0053 66.96 42.6144 67.2 43.2258 67.44 43.8393 67.68 44.4549 67.92 45.0726 68.16 45.6923 68.4 46.3139 68.64 46.9374 68.88 47.5627 69.12 48.1897 69.36 48.8185 69.6 49.4488 69.84 50.0807 70.08 50.7141 70.32 51.3489 70.56 51.9851 70.8 52.6225 71.04 53.2612 71.28 53.9011 71.52 54.5421 71.76 55.1842 72 55.8272 72.24 56.4711 72.48 57.1159 72.72 57.7615 72.96 58.4078 73.2 59.0548 73.44 59.7024 73.68 60.3505 73.92 60.999 74.16 61.648 74.4 62.2973 74.64 62.9468 74.88 63.5966 75.12 64.2465 75.36 64.8965 75.6 65.5465 75.84 66.1964 76.08 66.8462 76.32 67.4959 76.56 68.1452 76.8 68.7943 77.04 69.443 77.28 70.0913 77.52 70.739 77.76 71.3862 78 72.0327 78.24 72.6785 78.48 73.3236 78.72 73.9678 78.96 74.6111 79.2 75.2535 79.44 75.8948 79.68 76.5351 79.92 77.1742 80.16 77.812 80.4 78.4486 80.64 79.0839 80.88 79.7177 81.12 80.3501 81.36 80.9809 81.6 81.6102 81.84 82.2377 82.08 82.8636 82.32 83.4877 82.56 84.1099 82.8 84.7302 83.04 85.3485 83.28 85.9648 83.52 86.579 83.76 87.1911 84 87.8009 84.24 88.4085 84.48 89.0137 84.72 89.6165 84.96 90.2168 85.2 90.8146 85.44 91.4099 85.68 92.0025 85.92 92.5924 86.16 93.1795 86.4 93.7638 86.64 94.3453 86.88 94.9238 87.12 95.4993 87.36 96.0718 87.6 96.6411 87.84 97.2073 88.08 97.7703 88.32 98.33 88.56 98.8864 88.8 99.4393 89.04 99.9889 89.28 100.535 89.52 101.077 89.76 101.616 90 102.151 90.24 102.683 90.48 103.211 90.72 103.735 90.96 104.255 91.2 104.771 91.44 105.283 91.68 105.791 91.92 106.295 92.16 106.795 92.4 107.291 92.64 107.782 92.88 108.269 93.12 108.752 93.36 109.231 93.6 109.705 93.84 110.174 94.08 110.64 94.32 111.1 94.56 111.556 94.8 112.007 95.04 112.454 95.28 112.896 95.52 113.333 95.76 113.765 96 114.192 96.24 114.615 96.48 115.032 96.72 115.444 96.96 115.852 97.2 116.254 97.44 116.651 97.68 117.043 97.92 117.43 98.16 117.812 98.4 118.188 98.64 118.559 98.88 118.925 99.12 119.285 99.36 119.64 99.6 119.989 99.84 120.333 100.08 120.671 100.32 121.004 100.56 121.331 100.8 121.652 101.04 121.968 101.28 122.278 101.52 122.583 101.76 122.881 102 123.174 102.24 123.461 102.48 123.743 102.72 124.018 102.96 124.287 103.2 124.551 103.44 124.808 103.68 125.06 103.92 125.305 104.16 125.545 104.4 125.778 104.64 126.006 104.88 126.227 105.12 126.442 105.36 126.651 105.6 126.854 105.84 127.051 106.08 127.241 106.32 127.426 106.56 127.604 106.8 127.775 107.04 127.941 107.28 128.1 107.52 128.253 107.76 128.399 108 128.539 108.24 128.673 108.48 128.801 108.72 128.922 108.96 129.037 109.2 129.145 109.44 129.247 109.68 129.342 109.92 129.431 110.16 129.514 110.4 129.59 110.64 129.66 110.88 129.723 111.12 129.78 111.36 129.83 111.6 129.874 111.84 129.911 112.08 129.942 112.32 129.966 112.56 129.984 112.8 129.995 113.04 130 113.28 129.998 113.52 129.99 113.76 129.975 114 129.954 114.24 129.926 114.48 129.892 114.72 129.851 114.96 129.804 115.2 129.751 115.44 129.691 115.68 129.624 115.92 129.551 116.16 129.471 116.4 129.386 116.64 129.293 116.88 129.194 117.12 129.089 117.36 128.977 117.6 128.859 117.84 128.735 118.08 128.604 118.32 128.467 118.56 128.324 118.8 128.174 119.04 128.018 119.28 127.855 119.52 127.686 119.76 127.511 120 127.33 120.24 127.143 120.48 126.949 120.72 126.749 120.96 126.543 121.2 126.331 121.44 126.112 121.68 125.888 121.92 125.657 122.16 125.421 122.4 125.178 122.64 124.929 122.88 124.675 123.12 124.414 123.36 124.147 123.6 123.875 123.84 123.596 124.08 123.312 124.32 123.022 124.56 122.726 124.8 122.425 125.04 122.117 125.28 121.804 125.52 121.485 125.76 121.161 126 120.831 126.24 120.495 126.48 120.154 126.72 119.807 126.96 119.455 127.2 119.097 127.44 118.734 127.68 118.366 127.92 117.992 128.16 117.613 128.4 117.229 128.64 116.839 128.88 116.445 129.12 116.045 129.36 115.64 129.6 115.23 129.84 114.815 130.08 114.395 130.32 113.97 130.56 113.54 130.8 113.105 131.04 112.665 131.28 112.221 131.52 111.772 131.76 111.318 132 110.86 132.24 110.397 132.48 109.93 132.72 109.458 132.96 108.981 133.2 108.501 133.44 108.015 133.68 107.526 133.92 107.032 134.16 106.534 134.4 106.032 134.64 105.526 134.88 105.016 135.12 104.502 135.36 103.984 135.6 103.462 135.84 102.936 136.08 102.406 136.32 101.872 136.56 101.335 136.8 100.795 137.04 100.25 137.28 99.7023 137.52 99.151 137.76 98.5963 138 98.0381 138.24 97.4767 138.48 96.9121 138.72 96.3442 138.96 95.7732 139.2 95.1991 139.44 94.6221 139.68 94.042 139.92 93.459 140.16 92.8732 140.4 92.2847 140.64 91.6933 140.88 91.0994 141.12 90.5028 141.36 89.9036 141.6 89.302 141.84 88.6979 142.08 88.0915 142.32 87.4827 142.56 86.8717 142.8 86.2586 143.04 85.6433 143.28 85.0259 143.52 84.4065 143.76 83.7852 144 83.162 144.24 82.537 144.48 81.9102 144.72 81.2818 144.96 80.6517 145.2 80.0201 145.44 79.3869 145.68 78.7523 145.92 78.1164 146.16 77.4791 146.4 76.8406 146.64 76.2009 146.88 75.56 147.12 74.9181 147.36 74.2753 147.6 73.6315 147.84 72.9868 148.08 72.3413 148.32 71.6951 148.56 71.0483 148.8 70.4008 149.04 69.7528 149.28 69.1043 149.52 68.4554 149.76 67.8062 150 67.1566 150.24 66.5069 150.48 65.857 150.72 65.207 150.96 64.557 151.2 63.9071 151.44 63.2573 151.68 62.6076 151.92 61.9582 152.16 61.309 152.4 60.6603 152.64 60.012 152.88 59.3641 153.12 58.7169 153.36 58.0702 153.6 57.4243 153.84 56.7791 154.08 56.1348 154.32 55.4913 154.56 54.8488 154.8 54.2073 155.04 53.5668 155.28 52.9276 155.52 52.2895 155.76 51.6527 156 51.0172 156.24 50.3831 156.48 49.7505 156.72 49.1194 156.96 48.4899 157.2 47.8621 157.44 47.236 157.68 46.6116 157.92 45.9891 158.16 45.3685 158.4 44.7498 158.64 44.1332 158.88 43.5186 159.12 42.9062 159.36 42.2961 159.6 41.6881 159.84 41.0826 160.08 40.4794 160.32 39.8786 160.56 39.2804 160.8 38.6848 161.04 38.0917 161.28 37.5014 161.52 36.9138 161.76 36.329 162 35.7471 162.24 35.1682 162.48 34.5922 162.72 34.0192 162.96 33.4493 163.2 32.8826 163.44 32.3191 163.68 31.7589 163.92 31.202 164.16 30.6485 164.4 30.0984 164.64 29.5518 164.88 29.0088 165.12 28.4693 165.36 27.9335 165.6 27.4014 165.84 26.8731 166.08 26.3486 166.32 25.8279 166.56 25.3112 166.8 24.7984 167.04 24.2897 167.28 23.785 167.52 23.2844 167.76 22.788 168 22.2959 168.24 21.808 168.48 21.3244 168.72 20.8452 168.96 20.3704 169.2 19.9001 169.44 19.4343 169.68 18.973 169.92 18.5163 170.16 18.0643 170.4 17.617 170.64 17.1744 170.88 16.7366 171.12 16.3037 171.36 15.8756 171.6 15.4524 171.84 15.0341 172.08 14.6209 172.32 14.2127 172.56 13.8096 172.8 13.4116 173.04 13.0187 173.28 12.6311 173.52 12.2487 173.76 11.8716 174 11.4997 174.24 11.1333 174.48 10.7722 174.72 10.4165 174.96 10.0663 175.2 9.72162 175.44 9.38244 175.68 9.04882 175.92 8.7208 176.16 8.3984 176.4 8.08166 176.64 7.77062 176.88 7.4653 177.12 7.16573 177.36 6.87195 177.6 6.58397 177.84 6.30184 178.08 6.02558 178.32 5.75522 178.56 5.49078 178.8 5.23229 179.04 4.97978 179.28 4.73327 179.52 4.49279 179.76 4.25836 180 4.03 180.24 3.80774 180.48 3.5916 180.72 3.3816 180.96 3.17776 181.2 2.9801 181.44 2.78865 181.68 2.60341 181.92 2.42442 182.16 2.25168 182.4 2.08522 182.64 1.92505 182.88 1.77119 183.12 1.62365 183.36 1.48245 183.6 1.34759 183.84 1.21911 184.08 1.097 184.32 0.981283 184.56 0.871968 184.8 0.769065 185.04 0.672585 185.28 0.582538 185.52 0.498932 185.76 0.421777 186 0.351079 186.24 0.286847 186.48 0.229085 186.72 0.177801 186.96 0.132998 187.2 0.0946826 187.44 0.0628574 187.68 0.0375258 187.92 0.0186905 188.16 0.00635319 188.4 0.000515235 188.64 0.00117717 188.88 0.00833893 189.12 0.0219998 189.36 0.0421584 189.6 0.0688128 189.84 0.10196 190.08 0.141597 190.32 0.18772 190.56 0.240324 190.8 0.299404 191.04 0.364955 191.28 0.436968 191.52 0.515438 191.76 0.600356 192 0.691714 192.24 0.789503 192.48 0.893713 192.72 1.00433 192.96 1.12135 193.2 1.24476 193.44 1.37454 193.68 1.51069 193.92 1.65318 194.16 1.80201 194.4 1.95716 194.64 2.11862 194.88 2.28636 195.12 2.46037 195.36 2.64064 195.6 2.82714 195.84 3.01986 196.08 3.21878 196.32 3.42387 196.56 3.63512 196.8 3.85251 197.04 4.07602 197.28 4.30561 197.52 4.54128 197.76 4.78299 198 5.03073 198.24 5.28446 198.48 5.54416 198.72 5.80981 198.96 6.08137 199.2 6.35883 199.44 6.64215 199.68 6.93131 199.92 7.22628 200.16 7.52702 200.4 7.83351 200.64 8.14571 200.88 8.46361 201.12 8.78715 201.36 9.11632 201.6 9.45107 201.84 9.79138 202.08 10.1372 202.32 10.4885 202.56 10.8453 202.8 11.2075 203.04 11.575 203.28 11.9479 203.52 12.3262 203.76 12.7096 204 13.0983 204.24 13.4922 204.48 13.8913 204.72 14.2954 204.96 14.7047 205.2 15.1189 205.44 15.5382 205.68 15.9624 205.92 16.3915 206.16 16.8254 206.4 17.2642 206.64 17.7077 206.88 18.156 207.12 18.609 207.36 19.0666 207.6 19.5288 207.84 19.9955 208.08 20.4667 208.32 20.9424 208.56 21.4225 208.8 21.907 209.04 22.3958 209.28 22.8888 209.52 23.386 209.76 23.8874 210 24.3929 210.24 24.9025 210.48 25.4161 210.72 25.9336 210.96 26.4551 211.2 26.9804 211.44 27.5095 211.68 28.0423 211.92 28.5789 212.16 29.1191 212.4 29.6629 212.64 30.2102 212.88 30.761 213.12 31.3152 213.36 31.8727 213.6 32.4336 213.84 32.9978 214.08 33.5651 214.32 34.1356 214.56 34.7092 214.8 35.2858 215.04 35.8654 215.28 36.4479 215.52 37.0333 215.76 37.6214 216 38.2123 216.24 38.8059 216.48 39.402 216.72 40.0008 216.96 40.602 217.2 41.2057 217.44 41.8118 217.68 42.4202 217.92 43.0308 218.16 43.6436 218.4 44.2586 218.64 44.8757 218.88 45.4947 219.12 46.1157 219.36 46.7386 219.6 47.3633 219.84 47.9898 220.08 48.618 220.32 49.2478 220.56 49.8792 220.8 50.5122 221.04 51.1465 221.28 51.7823 221.52 52.4193 221.76 53.0577 222 53.6972 222.24 54.3378 222.48 54.9796 222.72 55.6223 222.96 56.2659 223.2 56.9105 223.44 57.5558 223.68 58.2019 223.92 58.8487 224.16 59.496 224.4 60.144 224.64 60.7924 224.88 61.4412 225.12 62.0904 225.36 62.7399 225.6 63.3896 225.84 64.0395 226.08 64.6894 226.32 65.3394 226.56 65.9894 226.8 66.6393 227.04 67.289 227.28 67.9384 227.52 68.5876 227.76 69.2364 228 69.8848 228.24 70.5327 228.48 71.1801 228.72 71.8268 228.96 72.4729 229.2 73.1182 229.44 73.7627 229.68 74.4063 229.92 75.049 230.16 75.6906 230.4 76.3312 230.64 76.9707 230.88 77.609 231.12 78.246 231.36 78.8817 231.6 79.516 231.84 80.1488 232.08 80.7802 232.32 81.4099 232.56 82.038 232.8 82.6644 233.04 83.2891 233.28 83.9119 233.52 84.5328 233.76 85.1518 234 85.7687 234.24 86.3836 234.48 86.9964 234.72 87.6069 234.96 88.2152 235.2 88.8211 235.44 89.4247 235.68 90.0259 235.92 90.6245 236.16 91.2206 236.4 91.814 236.64 92.4048 236.88 92.9928 237.12 93.578 237.36 94.1604 237.6 94.7398 237.84 95.3163 238.08 95.8898 238.32 96.4601 238.56 97.0273 238.8 97.5913 239.04 98.1521 239.28 98.7095 239.52 99.2636 239.76 99.8142 240 100.361"/></g><g><text class="svg-plot-label" x="0" y="0" transform="rotate(-90) translate(-65 -25.8)">signal</text><text class="svg-plot-value" style="text-anchor:end" x="-9" y="0">1</text><text class="svg-plot-value" style="text-anchor:end" x="-9" y="130">-1</text><text class="svg-plot-value" style="text-anchor:end" x="-9" y="65">0</text><text class="svg-plot-label" x="120" y="156">time</text><text class="svg-plot-value" x="240" y="145">10</text><text class="svg-plot-value" x="0" y="145">0</text><text class="svg-plot-label svg-plot-t1" style="text-anchor:start" x="243" y="118.34">cos(x)</text><text class="svg-plot-label svg-plot-t0" style="text-anchor:start" x="243" y="99.1614">sin(x)</text><line x1="0" x2="0" y1="130" y2="135" class="svg-plot-tick"/><line x1="240" x2="240" y1="130" y2="135" class="svg-plot-tick"/><line x1="-4" x2="0" y1="65" y2="65" class="svg-plot-tick"/><line x1="-4" x2="0" y1="130" y2="130" class="svg-plot-tick"/><line x1="-4" x2="0" y1="0" y2="0" class="svg-plot-tick"/></g><defs><mask id="svg-plot-hatch1"><rect x="-393" y="-393" width="786" height="786" fill="url(#svg-plot-hatch1-pattern)" style="transform:rotate(-50deg)"/></mask><pattern patternUnits="userSpaceOnUse" id="svg-plot-hatch1-pattern" class="svg-plot-hatch" x="0" y="0" width="10" height="3" stroke="#FFF" fill="none"><line x1="-1" x2="11" y1="1.5" y2="1.5"/></pattern><mask id="svg-plot-hatch2"><rect x="-393" y="-393" width="786" height="786" fill="url(#svg-plot-hatch2-pattern)" style="transform:rotate(30deg)"/></mask><pattern patternUnits="userSpaceOnUse" id="svg-plot-hatch2-pattern" class="svg-plot-hatch" x="0" y="0" width="10" height="2.4" stroke="#FFF" fill="none"><line x1="-1" x2="11" y1="1.2" y2="1.2"/></pattern><mask id="svg-plot-hatch3"><rect x="-393" y="-393" width="786" height="786" fill="url(#svg-plot-hatch3-pattern)" style="transform:rotate(8deg)"/><rect x="-393" y="-393" width="786" height="786" fill="url(#svg-plot-hatch3-pattern)" style="transform:rotate(93deg)"/></mask><pattern patternUnits="userSpaceOnUse" id="svg-plot-hatch3-pattern" class="svg-plot-hatch" x="0" y="0" width="10" height="3" stroke="#FFF" fill="none"><line x1="-1" x2="11" y1="1.5" y2="1.5"/></pattern></defs><style>.svg-plot{stroke-linecap:butt;}.svg-plot-bg{fill:none;stroke:none;}.svg-plot-axis{stroke:none;fill:rgba(255,255,255,0.85);}.svg-plot-line{stroke:blue;fill:none;stroke-width:1.5px;stroke-linejoin:round;}.svg-plot-fill{stroke:none;opacity:0.25;}.svg-plot-major{stroke:#000;stroke-width:1px;stroke-linecap:square;fill:none;}.svg-plot-minor{stroke:rgba(0,0,0,0.3);stroke-width:0.5px;stroke-dasharray:0.5 1.5;stroke-linecap:round;fill:none;}.svg-plot-tick{stroke:#000;fill:none;stroke-width:1px;stroke-linecap:butt;}.svg-plot-value,.svg-plot-label{font-family:Arial,sans-serif;fill:#000;stroke:rgba(255,255,255,0.7);stroke-width:2px;paint-order:stroke fill;text-anchor:middle;dominant-baseline:central;alignment-baseline:baseline;}.svg-plot-label{font-size:12px;}.svg-plot-value{font-size:10px;}.svg-plot-hatch{stroke:#FFF;stroke-width:1px;}.svg-plot-s0{stroke:#0073E6}.svg-plot-f0,.svg-plot-t0{fill:#0073E6}.svg-plot-s1{stroke:#CC0000}.svg-plot-f1,.svg-plot-t1{fill:#CC0000}.svg-plot-s2{stroke:#00B300}.svg-plot-f2,.svg-plot-t2{fill:#00B300}.svg-plot-s3{stroke:#806600}.svg-plot-f3,.svg-plot-t3{fill:#806600}.svg-plot-s4{stroke:#E69900}.svg-plot-f4,.svg-plot-t4{fill:#E69900}.svg-plot-s5{stroke:#CC00CC}.svg-plot-f5,.svg-plot-t5{fill:#CC00CC}.svg-plot-d0{stroke-width:1.35px}.svg-plot-d1{stroke-dasharray:1.8 1.8}.svg-plot-d2{stroke-dasharray:4.2 2.4}.svg-plot-d3{stroke-dasharray:7.5 6}.svg-plot-d4{stroke-dasharray:6 1.5 1.5 1.5 1.5 1.5}.svg-plot-d5{stroke-dasharray:15 4.5}.svg-plot-d6{stroke-dasharray:6 3 1.5 3}.svg-plot-h0{opacity:0.144338}.svg-plot-h1{mask:url(#svg-plot-hatch1)}.svg-plot-h2{mask:url(#svg-plot-hatch2)}.svg-plot-h3{mask:url(#svg-plot-hatch3)}#svg-plot-hatch2-pattern{stroke-width:0.9px}#svg-plot-hatch3-pattern{stroke-width:0.7px}</style></svg>