<?xml version="1.0" encoding="utf-8" standalone="no"?>
<!DOCTYPE svg PUBLIC "-//W3C//DTD SVG 1.1//EN" "http://www.w3.org/Graphics/SVG/1.1/DTD/svg11.dtd">
<svg class="svg-plot" width="348.6pt" height="186pt" version="1.1" viewBox="-40.8 -15 348.6 186" preserveAspectRatio="xMidYMid" xmlns="http://www.w3.org/2000/svg" xmlns:xlink="http://www.w3.org/1999/xlink"><rect class="svg-plot-bg" x="-30.8" y="-5" width="328.6" height="166"/><rect class="svg-plot-axis" x="0" y="0" width="260" height="130"/><line class="svg-plot-major" y1="-4" y2="130" x1="0" x2="0"/><line class="svg-plot-major" x1="0" x2="260" y1="65" y2="65"/><line class="svg-plot-minor" x1="0" x2="260" y1="130" y2="130"/><line class="svg-plot-minor" x1="0" x2="260" y1="0" y2="0"/><clipPath id="clip16807"><rect x="-0.75" y="-0.75" width="261.5" height="131.5" /></clipPath><g clip-path="url(#clip16807"><path class="svg-plot-line svg-plot-s1 svg-plot-d1" d="M 0 0 0.26 0.00324997 0.52 0.0129996 0.78 0.0292478 1.04 0.0519931 1.3 0.0812331 1.56 0.116965 1.82 0.159185 2.08 0.207889 2.34 0.263072 2.6 0.324729 2.86 0.392854 3.12 0.467439 3.38 0.548477 3.64 0.63596 3.9 0.72988 4.16 0.830227 4.42 0.93699 4.68 1.05016 4.94 1.16972 5.2 1.29567 5.46 1.42799 5.72 1.56667 5.98 1.71168 6.24 1.86303 6.5 2.02069 6.76 2.18465 7.02 2.35489 7.28 2.5314 7.54 2.71415 7.8 2.90313 8.06 3.09832 8.32 3.2997 8.58 3.50725 8.84 3.72095 9.1 3.94077 9.36 4.16671 9.62 4.39872 9.88 4.6368 10.14 4.88091 10.4 5.13104 10.66 5.38715 10.92 5.64922 11.18 5.91723 11.44 6.19114 11.7 6.47094 11.96 6.75659 12.22 7.04806 12.48 7.34533 12.74 7.64836 13 7.95713 13.26 8.27161 13.52 8.59175 13.78 8.91754 14.04 9.24894 14.3 9.58591 14.56 9.92842 14.82 10.2764 15.08 10.6299 15.34 10.9889 15.6 11.3532 15.86 11.7229 16.12 12.0979 16.38 12.4782 16.64 12.8638 16.9 13.2546 17.16 13.6505 17.42 14.0516 17.68 14.4578 17.94 14.869 18.2 15.2853 18.46 15.7065 18.72 16.1326 18.98 16.5637 19.24 16.9995 19.5 17.4402 19.76 17.8857 20.02 18.3358 20.28 18.7906 20.54 19.2501 20.8 19.7141 21.06 20.1826 21.32 20.6556 21.58 21.1331 21.84 21.6149 22.1 22.1011 22.36 22.5916 22.62 23.0863 22.88 23.5852 23.14 24.0882 23.4 24.5954 23.66 25.1065 23.92 25.6217 24.18 26.1408 24.44 26.6638 24.7 27.1906 24.96 27.7212 25.22 28.2555 25.48 28.7935 25.74 29.3352 26 29.8804 26.26 30.4291 26.52 30.9812 26.78 31.5368 27.04 32.0957 27.3 32.6579 27.56 33.2233 27.82 33.7919 28.08 34.3637 28.34 34.9385 28.6 35.5163 28.86 36.097 29.12 36.6806 29.38 37.2671 29.64 37.8564 29.9 38.4483 30.16 39.0429 30.42 39.6401 30.68 40.2399 30.94 40.8421 31.2 41.4467 31.46 42.0537 31.72 42.663 31.98 43.2745 32.24 43.8882 32.5 44.504 32.76 45.1219 33.02 45.7417 33.28 46.3635 33.54 46.9871 33.8 47.6126 34.06 48.2397 34.32 48.8686 34.58 49.4991 34.84 50.1311 35.1 50.7646 35.36 51.3995 35.62 52.0358 35.88 52.6733 36.14 53.3122 36.4 53.9521 36.66 54.5932 36.92 55.2353 37.18 55.8784 37.44 56.5225 37.7 57.1673 37.96 57.813 38.22 58.4593 38.48 59.1063 38.74 59.754 39 60.4021 39.26 61.0507 39.52 61.6997 39.78 62.349 40.04 62.9986 40.3 63.6483 40.56 64.2983 40.82 64.9482 41.08 65.5982 41.34 66.2482 41.6 66.898 41.86 67.5476 42.12 68.1969 42.38 68.846 42.64 69.4946 42.9 70.1429 43.16 70.7906 43.42 71.4377 43.68 72.0841 43.94 72.7299 44.2 73.3749 44.46 74.019 44.72 74.6623 44.98 75.3046 45.24 75.9458 45.5 76.586 45.76 77.225 46.02 77.8628 46.28 78.4993 46.54 79.1344 46.8 79.7681 47.06 80.4004 47.32 81.0311 47.58 81.6602 47.84 82.2877 48.1 82.9134 48.36 83.5373 48.62 84.1594 48.88 84.7795 49.14 85.3977 49.4 86.0138 49.66 86.6279 49.92 87.2397 50.18 87.8494 50.44 88.4567 50.7 89.0618 50.96 89.6644 51.22 90.2645 51.48 90.8621 51.74 91.4572 52 92.0495 52.26 92.6392 52.52 93.2261 52.78 93.8102 53.04 94.3915 53.3 94.9697 53.56 95.545 53.82 96.1172 54.08 96.6863 54.34 97.2523 54.6 97.815 54.86 98.3744 55.12 98.9305 55.38 99.4832 55.64 100.032 55.9 100.578 56.16 101.12 56.42 101.659 56.68 102.194 56.94 102.725 57.2 103.253 57.46 103.776 57.72 104.296 57.98 104.812 58.24 105.324 58.5 105.831 58.76 106.335 59.02 106.835 59.28 107.33 59.54 107.821 59.8 108.308 60.06 108.79 60.32 109.269 60.58 109.742 60.84 110.212 61.1 110.676 61.36 111.137 61.62 111.592 61.88 112.043 62.14 112.489 62.4 112.931 62.66 113.367 62.92 113.799 63.18 114.226 63.44 114.648 63.7 115.065 63.96 115.477 64.22 115.884 64.48 116.286 64.74 116.683 65 117.074 65.26 117.461 65.52 117.842 65.78 118.218 66.04 118.588 66.3 118.953 66.56 119.313 66.82 119.668 67.08 120.017 67.34 120.36 67.6 120.698 67.86 121.03 68.12 121.357 68.38 121.678 68.64 121.993 68.9 122.303 69.16 122.607 69.42 122.905 69.68 123.197 69.94 123.484 70.2 123.765 70.46 124.04 70.72 124.308 70.98 124.572 71.24 124.829 71.5 125.08 71.76 125.325 72.02 125.564 72.28 125.797 72.54 126.024 72.8 126.244 73.06 126.459 73.32 126.668 73.58 126.87 73.84 127.066 74.1 127.256 74.36 127.44 74.62 127.617 74.88 127.789 75.14 127.954 75.4 128.112 75.66 128.265 75.92 128.411 76.18 128.55 76.44 128.684 76.7 128.811 76.96 128.931 77.22 129.045 77.48 129.153 77.74 129.255 78 129.35 78.26 129.438 78.52 129.52 78.78 129.596 79.04 129.665 79.3 129.728 79.56 129.784 79.82 129.833 80.08 129.877 80.34 129.914 80.6 129.944 80.86 129.968 81.12 129.985 81.38 129.996 81.64 130 81.9 129.998 82.16 129.989 82.42 129.974 82.68 129.952 82.94 129.924 83.2 129.889 83.46 129.848 83.72 129.8 83.98 129.746 84.24 129.686 84.5 129.618 84.76 129.545 85.02 129.465 85.28 129.378 85.54 129.286 85.8 129.186 86.06 129.08 86.32 128.968 86.58 128.85 86.84 128.725 87.1 128.594 87.36 128.456 87.62 128.312 87.88 128.161 88.14 128.005 88.4 127.842 88.66 127.673 88.92 127.497 89.18 127.315 89.44 127.127 89.7 126.933 89.96 126.733 90.22 126.526 90.48 126.313 90.74 126.095 91 125.87 91.26 125.639 91.52 125.402 91.78 125.158 92.04 124.909 92.3 124.654 92.56 124.393 92.82 124.126 93.08 123.853 93.34 123.574 93.6 123.289 93.86 122.999 94.12 122.702 94.38 122.4 94.64 122.092 94.9 121.779 95.16 121.46 95.42 121.135 95.68 120.804 95.94 120.468 96.2 120.127 96.46 119.779 96.72 119.427 96.98 119.069 97.24 118.705 97.5 118.336 97.76 117.962 98.02 117.583 98.28 117.198 98.54 116.808 98.8 116.413 99.06 116.013 99.32 115.607 99.58 115.197 99.84 114.781 100.1 114.361 100.36 113.936 100.62 113.505 100.88 113.07 101.14 112.63 101.4 112.186 101.66 111.736 101.92 111.282 102.18 110.823 102.44 110.36 102.7 109.892 102.96 109.42 103.22 108.943 103.48 108.462 103.74 107.977 104 107.487 104.26 106.993 104.52 106.495 104.78 105.992 105.04 105.486 105.3 104.975 105.56 104.461 105.82 103.942 106.08 103.42 106.34 102.894 106.6 102.364 106.86 101.83 107.12 101.292 107.38 100.751 107.64 100.207 107.9 99.6586 108.16 99.107 108.42 98.5519 108.68 97.9936 108.94 97.4319 109.2 96.867 109.46 96.2988 109.72 95.7276 109.98 95.1533 110.24 94.576 110.5 93.9957 110.76 93.4125 111.02 92.8265 111.28 92.2377 111.54 91.6461 111.8 91.0519 112.06 90.4551 112.32 89.8558 112.58 89.254 112.84 88.6497 113.1 88.0431 113.36 87.4342 113.62 86.823 113.88 86.2096 114.14 85.5942 114.4 84.9766 114.66 84.3571 114.92 83.7356 115.18 83.1123 115.44 82.4872 115.7 81.8603 115.96 81.2317 116.22 80.6015 116.48 79.9697 116.74 79.3364 117 78.7017 117.26 78.0657 117.52 77.4283 117.78 76.7897 118.04 76.1499 118.3 75.509 118.56 74.867 118.82 74.224 119.08 73.5802 119.34 72.9354 119.6 72.2899 119.86 71.6437 120.12 70.9967 120.38 70.3492 120.64 69.7012 120.9 69.0527 121.16 68.4037 121.42 67.7545 121.68 67.1049 121.94 66.4552 122.2 65.8053 122.46 65.1553 122.72 64.5053 122.98 63.8553 123.24 63.2055 123.5 62.5559 123.76 61.9065 124.02 61.2574 124.28 60.6086 124.54 59.9603 124.8 59.3126 125.06 58.6654 125.32 58.0188 125.58 57.3729 125.84 56.7278 126.1 56.0835 126.36 55.4401 126.62 54.7976 126.88 54.1562 127.14 53.5159 127.4 52.8767 127.66 52.2387 127.92 51.602 128.18 50.9667 128.44 50.3327 128.7 49.7002 128.96 49.0692 129.22 48.4399 129.48 47.8122 129.74 47.1862 130 46.562 130.26 45.9396 130.52 45.3191 130.78 44.7006 131.04 44.0842 131.3 43.4698 131.56 42.8576 131.82 42.2476 132.08 41.6398 132.34 41.0344 132.6 40.4314 132.86 39.8309 133.12 39.2329 133.38 38.6374 133.64 38.0446 133.9 37.4545 134.16 36.8671 134.42 36.2826 134.68 35.7009 134.94 35.1222 135.2 34.5464 135.46 33.9737 135.72 33.4041 135.98 32.8376 136.24 32.2744 136.5 31.7144 136.76 31.1578 137.02 30.6046 137.28 30.0548 137.54 29.5084 137.8 28.9657 138.06 28.4265 138.32 27.891 138.58 27.3592 138.84 26.8312 139.1 26.307 139.36 25.7866 139.62 25.2702 139.88 24.7577 140.14 24.2493 140.4 23.745 140.66 23.2447 140.92 22.7487 141.18 22.2569 141.44 21.7693 141.7 21.2861 141.96 20.8072 142.22 20.3328 142.48 19.8628 142.74 19.3974 143 18.9365 143.26 18.4802 143.52 18.0285 143.78 17.5816 144.04 17.1394 144.3 16.702 144.56 16.2694 144.82 15.8417 145.08 15.4189 145.34 15.0011 145.6 14.5882 145.86 14.1804 146.12 13.7777 146.38 13.3801 146.64 12.9877 146.9 12.6005 147.16 12.2185 147.42 11.8418 147.68 11.4704 147.94 11.1043 148.2 10.7437 148.46 10.3884 148.72 10.0387 148.98 9.69441 149.24 9.35567 149.5 9.02249 149.76 8.69492 150.02 8.37297 150.28 8.05669 150.54 7.7461 150.8 7.44123 151.06 7.14212 151.32 6.8488 151.58 6.56129 151.84 6.27963 152.1 6.00384 152.36 5.73394 152.62 5.46998 152.88 5.21197 153.14 4.95993 153.4 4.7139 153.66 4.4739 153.92 4.23995 154.18 4.01208 154.44 3.7903 154.7 3.57465 154.96 3.36514 155.22 3.16179 155.48 2.96463 155.74 2.77367 156 2.58893 156.26 2.41043 156.52 2.2382 156.78 2.07224 157.04 1.91257 157.3 1.75921 157.56 1.61217 157.82 1.47147 158.08 1.33713 158.34 1.20915 158.6 1.08755 158.86 0.972343 159.12 0.863538 159.38 0.761146 159.64 0.665178 159.9 0.575644 160.16 0.492552 160.42 0.41591 160.68 0.345727 160.94 0.28201 161.2 0.224764 161.46 0.173995 161.72 0.129709 161.98 0.0919103 162.24 0.0606021 162.5 0.0357878 162.76 0.0174699 163.02 0.00565012 163.28 0.000329751 163.54 0.0015093 163.8 0.00918864 164.06 0.023367 164.32 0.044043 164.58 0.0712145 164.84 0.104879 165.1 0.145033 165.36 0.191672 165.62 0.244792 165.88 0.304387 166.14 0.370452 166.4 0.44298 166.66 0.521964 166.92 0.607395 167.18 0.699266 167.44 0.797566 167.7 0.902287 167.96 1.01342 168.22 1.13095 168.48 1.25486 168.74 1.38515 169 1.5218 169.26 1.6648 169.52 1.81414 169.78 1.96979 170.04 2.13174 170.3 2.29998 170.56 2.4745 170.82 2.65526 171.08 2.84226 171.34 3.03547 171.6 3.23488 171.86 3.44047 172.12 3.65221 172.38 3.87009 172.64 4.09408 172.9 4.32416 173.16 4.56031 173.42 4.8025 173.68 5.05071 173.94 5.30492 174.2 5.5651 174.46 5.83122 174.72 6.10325 174.98 6.38118 175.24 6.66497 175.5 6.95459 175.76 7.25001 176.02 7.55121 176.28 7.85816 176.54 8.17082 176.8 8.48916 177.06 8.81316 177.32 9.14277 177.58 9.47797 177.84 9.81872 178.1 10.165 178.36 10.5167 178.62 10.8739 178.88 11.2366 179.14 11.6045 179.4 11.9779 179.66 12.3565 179.92 12.7404 180.18 13.1295 180.44 13.5238 180.7 13.9233 180.96 14.3278 181.22 14.7375 181.48 15.1521 181.74 15.5718 182 15.9964 182.26 16.4258 182.52 16.8602 182.78 17.2993 183.04 17.7433 183.3 18.1919 183.56 18.6452 183.82 19.1032 184.08 19.5658 184.34 20.0329 184.6 20.5045 184.86 20.9805 185.12 21.461 185.38 21.9458 185.64 22.4349 185.9 22.9282 186.16 23.4258 186.42 23.9275 186.68 24.4334 186.94 24.9433 187.2 25.4572 187.46 25.975 187.72 26.4968 187.98 27.0224 188.24 27.5518 188.5 28.0849 188.76 28.6218 189.02 29.1622 189.28 29.7063 189.54 30.2539 189.8 30.805 190.06 31.3594 190.32 31.9173 190.58 32.4785 190.84 33.0429 191.1 33.6105 191.36 34.1812 191.62 34.755 191.88 35.3319 192.14 35.9117 192.4 36.4944 192.66 37.08 192.92 37.6684 193.18 38.2595 193.44 38.8532 193.7 39.4496 193.96 40.0486 194.22 40.65 194.48 41.2539 194.74 41.8601 195 42.4687 195.26 43.0795 195.52 43.6925 195.78 44.3077 196.04 44.9249 196.3 45.5441 196.56 46.1653 196.82 46.7883 197.08 47.4132 197.34 48.0398 197.6 48.6681 197.86 49.2981 198.12 49.9296 198.38 50.5626 198.64 51.1971 198.9 51.8329 199.16 52.4701 199.42 53.1085 199.68 53.7482 199.94 54.3889 200.2 55.0307 200.46 55.6735 200.72 56.3172 200.98 56.9618 201.24 57.6072 201.5 58.2534 201.76 58.9002 202.02 59.5476 202.28 60.1956 202.54 60.844 202.8 61.4929 203.06 62.1421 203.32 62.7916 203.58 63.4413 203.84 64.0912 204.1 64.7412 204.36 65.3912 204.62 66.0411 204.88 66.691 205.14 67.3407 205.4 67.9901 205.66 68.6393 205.92 69.2881 206.18 69.9364 206.44 70.5843 206.7 71.2316 206.96 71.8783 207.22 72.5243 207.48 73.1695 207.74 73.814 208 74.4575 208.26 75.1001 208.52 75.7417 208.78 76.3822 209.04 77.0216 209.3 77.6598 209.56 78.2967 209.82 78.9322 210.08 79.5664 210.34 80.1992 210.6 80.8304 210.86 81.46 211.12 82.088 211.38 82.7142 211.64 83.3387 211.9 83.9614 212.16 84.5822 212.42 85.201 212.68 85.8178 212.94 86.4325 213.2 87.0451 213.46 87.6554 213.72 88.2635 213.98 88.8693 214.24 89.4727 214.5 90.0736 214.76 90.672 215.02 91.2679 215.28 91.8611 215.54 92.4517 215.8 93.0395 216.06 93.6245 216.32 94.2066 216.58 94.7858 216.84 95.3621 217.1 95.9353 217.36 96.5054 217.62 97.0724 217.88 97.6361 218.14 98.1966 218.4 98.7538 218.66 99.3076 218.92 99.8579 219.18 100.405 219.44 100.948 219.7 101.488 219.96 102.024 220.22 102.556 220.48 103.085 220.74 103.61 221 104.131 221.26 104.648 221.52 105.161 221.78 105.67 222.04 106.175 222.3 106.676 222.56 107.173 222.82 107.665 223.08 108.153 223.34 108.637 223.6 109.117 223.86 109.592 224.12 110.063 224.38 110.529 224.64 110.99 224.9 111.447 225.16 111.9 225.42 112.348 225.68 112.79 225.94 113.229 226.2 113.662 226.46 114.091 226.72 114.514 226.98 114.933 227.24 115.346 227.5 115.755 227.76 116.158 228.02 116.557 228.28 116.95 228.54 117.338 228.8 117.721 229.06 118.099 229.32 118.471 229.58 118.838 229.84 119.199 230.1 119.555 230.36 119.906 230.62 120.251 230.88 120.591 231.14 120.925 231.4 121.253 231.66 121.576 231.92 121.893 232.18 122.205 232.44 122.511 232.7 122.811 232.96 123.105 233.22 123.393 233.48 123.676 233.74 123.953 234 124.223 234.26 124.488 234.52 124.747 234.78 125 235.04 125.247 235.3 125.488 235.56 125.723 235.82 125.952 236.08 126.175 236.34 126.391 236.6 126.602 236.86 126.806 237.12 127.004 237.38 127.196 237.64 127.382 237.9 127.562 238.16 127.735 238.42 127.902 238.68 128.062 238.94 128.217 239.2 128.365 239.46 128.507 239.72 128.642 239.98 128.771 240.24 128.894 240.5 129.01 240.76 129.12 241.02 129.223 241.28 129.32 241.54 129.411 241.8 129.495 242.06 129.572 242.32 129.644 242.58 129.708 242.84 129.767 243.1 129.818 243.36 129.864 243.62 129.903 243.88 129.935 244.14 129.961 244.4 129.98 244.66 129.993 244.92 129.999 245.18 129.999 245.44 129.992 245.7 129.979 245.96 129.96 246.22 129.934 246.48 129.901 246.74 129.862 247 129.816 247.26 129.764 247.52 129.706 247.78 129.641 248.04 129.569 248.3 129.491 248.56 129.407 248.82 129.316 249.08 129.219 249.34 129.115 249.6 129.005 249.86 128.888 250.12 128.765 250.38 128.636 250.64 128.5 250.9 128.358 251.16 128.21 251.42 128.055 251.68 127.894 251.94 127.727 252.2 127.554 252.46 127.374 252.72 127.188 252.98 126.996 253.24 126.797 253.5 126.593 253.76 126.382 254.02 126.165 254.28 125.942 254.54 125.713 254.8 125.478 255.06 125.236 255.32 124.989 255.58 124.736 255.84 124.477 256.1 124.212 256.36 123.94 256.62 123.663 256.88 123.381 257.14 123.092 257.4 122.797 257.66 122.497 257.92 122.191 258.18 121.879 258.44 121.562 258.7 121.239 258.96 120.91 259.22 120.576 259.48 120.236 259.74 119.891 260 119.54" /><path class="svg-plot-line svg-plot-s0 svg-plot-d0" d="M 0 65 0.26 64.35 0.52 63.7001 0.78 63.0503 1.04 62.4007 1.3 61.7514 1.56 61.1023 1.82 60.4537 2.08 59.8055 2.34 59.1579 2.6 58.5108 2.86 57.8644 3.12 57.2187 3.38 56.5738 3.64 55.9297 3.9 55.2865 4.16 54.6443 4.42 54.0031 4.68 53.3631 4.94 52.7242 5.2 52.0865 5.46 51.4501 5.72 50.8151 5.98 50.1815 6.24 49.5493 6.5 48.9187 6.76 48.2898 7.02 47.6625 7.28 47.0369 7.54 46.4131 7.8 45.7912 8.06 45.1712 8.32 44.5532 8.58 43.9372 8.84 43.3233 9.1 42.7116 9.36 42.1022 9.62 41.495 9.88 40.8902 10.14 40.2878 10.4 39.6878 10.66 39.0904 10.92 38.4956 11.18 37.9034 11.44 37.3139 11.7 36.7272 11.96 36.1434 12.22 35.5624 12.48 34.9844 12.74 34.4093 13 33.8373 13.26 33.2685 13.52 32.7028 13.78 32.1403 14.04 31.5812 14.3 31.0253 14.56 30.4729 14.82 29.9239 15.08 29.3784 15.34 28.8365 15.6 28.2982 15.86 27.7636 16.12 27.2327 16.38 26.7056 16.64 26.1823 16.9 25.6629 17.16 25.1474 17.42 24.6359 17.68 24.1285 17.94 23.6251 18.2 23.1259 18.46 22.6308 18.72 22.14 18.98 21.6535 19.24 21.1713 19.5 20.6935 19.76 20.2201 20.02 19.7512 20.28 19.2868 20.54 18.827 20.8 18.3719 21.06 17.9213 21.32 17.4755 21.58 17.0345 21.84 16.5982 22.1 16.1668 22.36 15.7402 22.62 15.3186 22.88 14.902 23.14 14.4903 23.4 14.0838 23.66 13.6823 23.92 13.2859 24.18 12.8947 24.44 12.5087 24.7 12.128 24.96 11.7525 25.22 11.3824 25.48 11.0177 25.74 10.6583 26 10.3044 26.26 9.95593 26.52 9.61298 26.78 9.27557 27.04 8.94373 27.3 8.61749 27.56 8.29689 27.82 7.98197 28.08 7.67274 28.34 7.36925 28.6 7.07152 28.86 6.77959 29.12 6.49347 29.38 6.21321 29.64 5.93882 29.9 5.67034 30.16 5.4078 30.42 5.15121 30.68 4.90061 30.94 4.65602 31.2 4.41746 31.46 4.18496 31.72 3.95854 31.98 3.73823 32.24 3.52404 32.5 3.316 32.76 3.11413 33.02 2.91844 33.28 2.72897 33.54 2.54572 33.8 2.36872 34.06 2.19798 34.32 2.03352 34.58 1.87536 34.84 1.7235 35.1 1.57798 35.36 1.4388 35.62 1.30598 35.88 1.17952 36.14 1.05945 36.4 0.945768 36.66 0.838493 36.92 0.737635 37.18 0.643204 37.44 0.555207 37.7 0.473656 37.96 0.398556 38.22 0.329917 38.48 0.267745 38.74 0.212046 39 0.162826 39.26 0.120089 39.52 0.0838406 39.78 0.0540836 40.04 0.030821 40.3 0.0140553 40.56 0.00378819 40.82 2.06094e-05 41.08 0.00275298 41.34 0.011985 41.6 0.0277158 41.86 0.0499438 42.12 0.0786667 42.38 0.113882 42.64 0.155585 42.9 0.203773 43.16 0.258441 43.42 0.319582 43.68 0.387192 43.94 0.461263 44.2 0.541787 44.46 0.628758 44.72 0.722165 44.98 0.822 45.24 0.928253 45.5 1.04091 45.76 1.15997 46.02 1.28541 46.28 1.41722 46.54 1.55539 46.8 1.6999 47.06 1.85075 47.32 2.00791 47.58 2.17136 47.84 2.34111 48.1 2.51711 48.36 2.69937 48.62 2.88785 48.88 3.08255 49.14 3.28344 49.4 3.49049 49.66 3.7037 49.92 3.92304 50.18 4.14849 50.44 4.38002 50.7 4.61762 50.96 4.86125 51.22 5.1109 51.48 5.36653 51.74 5.62813 52 5.89567 52.26 6.16911 52.52 6.44844 52.78 6.73363 53.04 7.02464 53.3 7.32145 53.56 7.62402 53.82 7.93234 54.08 8.24636 54.34 8.56605 54.6 8.89139 54.86 9.22234 55.12 9.55887 55.38 9.90094 55.64 10.2485 55.9 10.6016 56.16 10.9601 56.42 11.324 56.68 11.6932 56.94 12.0678 57.2 12.4477 57.46 12.8329 57.72 13.2232 57.98 13.6188 58.24 14.0195 58.5 14.4252 58.76 14.8361 59.02 15.2519 59.28 15.6728 59.54 16.0985 59.8 16.5292 60.06 16.9647 60.32 17.405 60.58 17.85 60.84 18.2998 61.1 18.7542 61.36 19.2133 61.62 19.6769 61.88 20.1451 62.14 20.6178 62.4 21.0949 62.66 21.5764 62.92 22.0622 63.18 22.5524 63.44 23.0467 63.7 23.5453 63.96 24.048 64.22 24.5548 64.48 25.0657 64.74 25.5805 65 26.0993 65.26 26.622 65.52 27.1485 65.78 27.6788 66.04 28.2128 66.3 28.7506 66.56 29.2919 66.82 29.8368 67.08 30.3852 67.34 30.9371 67.6 31.4924 67.86 32.0511 68.12 32.613 68.38 33.1782 68.64 33.7465 68.9 34.318 69.16 34.8926 69.42 35.4701 69.68 36.0506 69.94 36.6341 70.2 37.2203 70.46 37.8093 70.72 38.4011 70.98 38.9955 71.24 39.5925 71.5 40.192 71.76 40.7941 72.02 41.3985 72.28 42.0053 72.54 42.6144 72.8 43.2258 73.06 43.8393 73.32 44.4549 73.58 45.0726 73.84 45.6923 74.1 46.3139 74.36 46.9374 74.62 47.5627 74.88 48.1897 75.14 48.8185 75.4 49.4488 75.66 50.0807 75.92 50.7141 76.18 51.3489 76.44 51.9851 76.7 52.6225 76.96 53.2612 77.22 53.9011 77.48 54.5421 77.74 55.1842 78 55.8272 78.26 56.4711 78.52 57.1159 78.78 57.7615 79.04 58.4078 79.3 59.0548 79.56 59.7024 79.82 60.3505 80.08 60.999 80.34 61.648 80.6 62.2973 80.86 62.9468 81.12 63.5966 81.38 64.2465 81.64 64.8965 81.9 65.5465 82.16 66.1964 82.42 66.8462 82.68 67.4959 82.94 68.1452 83.2 68.7943 83.46 69.443 83.72 70.0913 83.98 70.739 84.24 71.3862 84.5 72.0327 84.76 72.6785 85.02 73.3236 85.28 73.9678 85.54 74.6111 85.8 75.2535 86.06 75.8948 86.32 76.5351 86.58 77.1742 86.84 77.812 87.1 78.4486 87.36 79.0839 87.62 79.7177 87.88 80.3501 88.14 80.9809 88.4 81.6102 88.66 82.2377 88.92 82.8636 89.18 83.4877 89.44 84.1099 89.7 84.7302 89.96 85.3485 90.22 85.9648 90.48 86.579 90.74 87.1911 91 87.8009 91.26 88.4085 91.52 89.0137 91.78 89.6165 92.04 90.2168 92.3 90.8146 92.56 91.4099 92.82 92.0025 93.08 92.5924 93.34 93.1795 93.6 93.7638 93.86 94.3453 94.12 94.9238 94.38 95.4993 94.64 96.0718 94.9 96.6411 95.16 97.2073 95.42 97.7703 95.68 98.33 95.94 98.8864 96.2 99.4393 96.46 99.9889 96.72 100.535 96.98 101.077 97.24 101.616 97.5 102.151 97.76 102.683 98.02 103.211 98.28 103.735 98.54 104.255 98.8 104.771 99.06 105.283 99.32 105.791 99.58 106.295 99.84 106.795 100.1 107.291 100.36 107.782 100.62 108.269 100.88 108.752 101.14 109.231 101.4 109.705 101.66 110.174 101.92 110.64 102.18 111.1 102.44 111.556 102.7 112.007 102.96 112.454 103.22 112.896 103.48 113.333 103.74 113.765 104 114.192 104.26 114.615 104.52 115.032 104.78 115.444 105.04 115.852 105.3 116.254 105.56 116.651 105.82 117.043 106.08 117.43 106.34 117.812 106.6 118.188 106.86 118.559 107.12 118.925 107.38 119.285 107.64 119.64 107.9 119.989 108.16 120.333 108.42 120.671 108.68 121.004 108.94 121.331 109.2 121.652 109.46 121.968 109.72 122.278 109.98 122.583 110.24 122.881 110.5 123.174 110.76 123.461 111.02 123.743 111.28 124.018 111.54 124.287 111.8 124.551 112.06 124.808 112.32 125.06 112.58 125.305 112.84 125.545 113.1 125.778 113.36 126.006 113.62 126.227 113.88 126.442 114.14 126.651 114.4 126.854 114.66 127.051 114.92 127.241 115.18 127.426 115.44 127.604 115.7 127.775 115.96 127.941 116.22 128.1 116.48 128.253 116.74 128.399 117 128.539 117.26 128.673 117.52 128.801 117.78 128.922 118.04 129.037 118.3 129.145 118.56 129.247 118.82 129.342 119.08 129.431 119.34 129.514 119.6 129.59 119.86 129.66 120.12 129.723 120.38 129.78 120.64 129.83 120.9 129.874 121.16 129.911 121.42 129.942 121.68 129.966 121.94 129.984 122.2 129.995 122.46 130 122.72 129.998 122.98 129.99 123.24 129.975 123.5 129.954 123.76 129.926 124.02 129.892 124.28 129.851 124.54 129.804 124.8 129.751 125.06 129.691 125.32 129.624 125.58 129.551 125.84 129.471 126.1 129.386 126.36 129.293 126.62 129.194 126.88 129.089 127.14 128.977 127.4 128.859 127.66 128.735 127.92 128.604 128.18 128.467 128.44 128.324 128.7 128.174 128.96 128.018 129.22 127.855 129.48 127.686 129.74 127.511 130 127.33 130.26 127.143 130.52 126.949 130.78 126.749 131.04 126.543 131.3 126.331 131.56 126.112 131.82 125.888 132.08 125.657 132.34 125.421 132.6 125.178 132.86 124.929 133.12 124.675 133.38 124.414 133.64 124.147 133.9 123.875 134.16 123.596 134.42 123.312 134.68 123.022 134.94 122.726 135.2 122.425 135.46 122.117 135.72 121.804 135.98 121.485 136.24 121.161 136.5 120.831 136.76 120.495 137.02 120.154 137.28 119.807 137.54 119.455 137.8 119.097 138.06 118.734 138.32 118.366 138.58 117.992 138.84 117.613 139.1 117.229 139.36 116.839 139.62 116.445 139.88 116.045 140.14 115.64 140.4 115.23 140.66 114.815 140.92 114.395 141.18 113.97 141.44 113.54 141.7 113.105 141.96 112.665 142.22 112.221 142.48 111.772 142.74 111.318 143 110.86 143.26 110.397 143.52 109.93 143.78 109.458 144.04 108.981 144.3 108.501 144.56 108.015 144.82 107.526 145.08 107.032 145.34 106.534 145.6 106.032 145.86 105.526 146.12 105.016 146.38 104.502 146.64 103.984 146.9 103.462 147.16 102.936 147.42 102.406 147.68 101.872 147.94 101.335 148.2 100.795 148.46 100.25 148.72 99.7023 148.98 99.151 149.24 98.5963 149.5 98.0381 149.76 97.4767 150.02 96.9121 150.28 96.3442 150.54 95.7732 150.8 95.1991 151.06 94.6221 151.32 94.042 151.58 93.459 151.84 92.8732 152.1 92.2847 152.36 91.6933 152.62 91.0994 152.88 90.5028 153.14 89.9036 153.4 89.302 153.66 88.6979 153.92 88.0915 154.18 87.4827 154.44 86.8717 154.7 86.2586 154.96 85.6433 155.22 85.0259 155.48 84.4065 155.74 83.7852 156 83.162 156.26 82.537 156.52 81.9102 156.78 81.2818 157.04 80.6517 157.3 80.0201 157.56 79.3869 157.82 78.7523 158.08 78.1164 158.34 77.4791 158.6 76.8406 158.86 76.2009 159.12 75.56 159.38 74.9181 159.64 74.2753 159.9 73.6315 160.16 72.9868 160.42 72.3413 160.68 71.6951 160.94 71.0483 161.2 70.4008 161.46 69.7528 161.72 69.1043 161.98 68.4554 162.24 67.8062 162.5 67.1566 162.76 66.5069 163.02 65.857 163.28 65.207 163.54 64.557 163.8 63.9071 164.06 63.2573 164.32 62.6076 164.58 61.9582 164.84 61.309 165.1 60.6603 165.36 60.012 165.62 59.3641 165.88 58.7169 166.14 58.0702 166.4 57.4243 166.66 56.7791 166.92 56.1348 167.18 55.4913 167.44 54.8488 167.7 54.2073 167.96 53.5668 168.22 52.9276 168.48 52.2895 168.74 51.6527 169 51.0172 169.26 50.3831 169.52 49.7505 169.78 49.1194 170.04 48.4899 170.3 47.8621 170.56 47.236 170.82 46.6116 171.08 45.9891 171.34 45.3685 171.6 44.7498 171.86 44.1332 172.12 43.5186 172.38 42.9062 172.64 42.2961 172.9 41.6881 173.16 41.0826 173.42 40.4794 173.68 39.8786 173.94 39.2804 174.2 38.6848 174.46 38.0917 174.72 37.5014 174.98 36.9138 175.24 36.329 175.5 35.7471 175.76 35.1682 176.02 34.5922 176.28 34.0192 176.54 33.4493 176.8 32.8826 177.06 32.3191 177.32 31.7589 177.58 31.202 177.84 30.6485 178.1 30.0984 178.36 29.5518 178.62 29.0088 178.88 28.4693 179.14 27.9335 179.4 27.4014 179.66 26.8731 179.92 26.3486 180.18 25.8279 180.44 25.3112 180.7 24.7984 180.96 24.2897 181.22 23.785 181.48 23.2844 181.74 22.788 182 22.2959 182.26 21.808 182.52 21.3244 182.78 20.8452 183.04 20.3704 183.3 19.9001 183.56 19.4343 183.82 18.973 184.08 18.5163 184.34 18.0643 184.6 17.617 184.86 17.1744 185.12 16.7366 185.38 16.3037 185.64 15.8756 185.9 15.4524 186.16 15.0341 186.42 14.6209 186.68 14.2127 186.94 13.8096 187.2 13.4116 187.46 13.0187 187.72 12.6311 187.98 12.2487 188.24 11.8716 188.5 11.4997 188.76 11.1333 189.02 10.7722 189.28 10.4165 189.54 10.0663 189.8 9.72162 190.06 9.38244 190.32 9.04882 190.58 8.7208 190.84 8.3984 191.1 8.08166 191.36 7.77062 191.62 7.4653 191.88 7.16573 192.14 6.87195 192.4 6.58397 192.66 6.30184 192.92 6.02558 193.18 5.75522 193.44 5.49078 193.7 5.23229 193.96 4.97978 194.22 4.73327 194.48 4.49279 194.74 4.25836 195 4.03 195.26 3.80774 195.52 3.5916 195.78 3.3816 196.04 3.17776 196.3 2.9801 196.56 2.78865 196.82 2.60341 197.08 2.42442 197.34 2.25168 197.6 2.08522 197.86 1.92505 198.12 1.77119 198.38 1.62365 198.64 1.48245 198.9 1.34759 199.16 1.21911 199.42 1.097 199.68 0.981283 199.94 0.871968 200.2 0.769065 200.46 0.672585 200.72 0.582538 200.98 0.498932 201.24 0.421777 201.5 0.351079 201.76 0.286847 202.02 0.229085 202.28 0.177801 202.54 0.132998 202.8 0.0946826 203.06 0.0628574 203.32 0.0375258 203.58 0.0186905 203.84 0.00635319 204.1 0.000515235 204.36 0.00117717 204.62 0.00833893 204.88 0.0219998 205.14 0.0421584 205.4 0.0688128 205.66 0.10196 205.92 0.141597 206.18 0.18772 206.44 0.240324 206.7 0.299404 206.96 0.364955 207.22 0.436968 207.48 0.515438 207.74 0.600356 208 0.691714 208.26 0.789503 208.52 0.893713 208.78 1.00433 209.04 1.12135 209.3 1.24476 209.56 1.37454 209.82 1.51069 210.08 1.65318 210.34 1.80201 210.6 1.95716 210.86 2.11862 211.12 2.28636 211.38 2.46037 211.64 2.64064 211.9 2.82714 212.16 3.01986 212.42 3.21878 212.68 3.42387 212.94 3.63512 213.2 3.85251 213.46 4.07602 213.72 4.30561 213.98 4.54128 214.24 4.78299 214.5 5.03073 214.76 5.28446 215.02 5.54416 215.28 5.80981 215.54 6.08137 215.8 6.35883 216.06 6.64215 216.32 6.93131 216.58 7.22628 216.84 7.52702 217.1 7.83351 217.36 8.14571 217.62 8.46361 217.88 8.78715 218.14 9.11632 218.4 9.45107 218.66 9.79138 218.92 10.1372 219.18 10.4885 219.44 10.8453 219.7 11.2075 219.96 11.575 220.22 11.9479 220.48 12.3262 220.74 12.7096 221 13.0983 221.26 13.4922 221.52 13.8913 221.78 14.2954 222.04 14.7047 222.3 15.1189 222.56 15.5382 222.82 15.9624 223.08 16.3915 223.34 16.8254 223.6 17.2642 223.86 17.7077 224.12 18.156 224.38 18.609 224.64 19.0666 224.9 19.5288 225.16 19.9955 225.42 20.4667 225.68 20.9424 225.94 21.4225 226.2 21.907 226.46 22.3958 226.72 22.8888 226.98 23.386 227.24 23.8874 227.5 24.3929 227.76 24.9025 228.02 25.4161 228.28 25.9336 228.54 26.4551 228.8 26.9804 229.06 27.5095 229.32 28.0423 229.58 28.5789 229.84 29.1191 230.1 29.6629 230.36 30.2102 230.62 30.761 230.88 31.3152 231.14 31.8727 231.4 32.4336 231.66 32.9978 231.92 33.5651 232.18 34.1356 232.44 34.7092 232.7 35.2858 232.96 35.8654 233.22 36.4479 233.48 37.0333 233.74 37.6214 234 38.2123 234.26 38.8059 234.52 39.402 234.78 40.0008 235.04 40.602 235.3 41.2057 235.56 41.8118 235.82 42.4202 236.08 43.0308 236.34 43.6436 236.6 44.2586 236.86 44.8757 237.12 45.4947 237.38 46.1157 237.64 46.7386 237.9 47.3633 238.16 47.9898 238.42 48.618 238.68 49.2478 238.94 49.8792 239.2 50.5122 239.46 51.1465 239.72 51.7823 239.98 52.4193 240.24 53.0577 240.5 53.6972 240.76 54.3378 241.02 54.9796 241.28 55.6223 241.54 56.2659 241.8 56.9105 242.06 57.5558 242.32 58.2019 242.58 58.8487 242.84 59.496 243.1 60.144 243.36 60.7924 243.62 61.4412 243.88 62.0904 244.14 62.7399 244.4 63.3896 244.66 64.0395 244.92 64.6894 245.18 65.3394 245.44 65.9894 245.7 66.6393 245.96 67.289 246.22 67.9384 246.48 68.5876 246.74 69.2364 247 69.8848 247.26 70.5327 247.52 71.1801 247.78 71.8268 248.04 72.4729 248.3 73.1182 248.56 73.7627 248.82 74.4063 249.08 75.049 249.34 75.6906 249.6 76.3312 249.86 76.9707 250.12 77.609 250.38 78.246 250.64 78.8817 250.9 79.516 251.16 80.1488 251.42 80.7802 251.68 81.4099 251.94 82.038 252.2 82.6644 252.46 83.2891 252.72 83.9119 252.98 84.5328 253.24 85.1518 253.5 85.7687 253.76 86.3836 254.02 86.9964 254.28 87.6069 254.54 88.2152 254.8 88.8211 255.06 89.4247 255.32 90.0259 255.58 90.6245 255.84 91.2206 256.1 91.814 256.36 92.4048 256.62 92.9928 256.88 93.578 257.14 94.1604 257.4 94.7398 257.66 95.3163 257.92 95.8898 258.18 96.4601 258.44 97.0273 258.7 97.5913 258.96 98.1521 259.22 98.7095 259.48 99.2636 259.74 99.8142 260 100.361" /></g><g><text class="svg-plot-label" x="0" y="0" transform="rotate(-90) translate(-65 -25.8)">signal</text><text class="svg-plot-value" style="text-anchor:end" x="-9" y="0">1</text><text class="svg-plot-value" style="text-anchor:end" x="-9" y="130">-1</text><text class="svg-plot-value" style="text-anchor:end" x="-9" y="65">0</text><text class="svg-plot-label" x="130" y="156">time</text><text class="svg-plot-value" x="260" y="145">10</text><text class="svg-plot-value" x="0" y="145">0</text><text class="svg-plot-label svg-plot-f1" style="text-anchor:start" x="263" y="118.34">cos(x)</text><text class="svg-plot-label svg-plot-f0" style="text-anchor:start" x="263" y="99.1614">sin(x)</text><line class="svg-plot-tick" y1="130" y2="135" x1="0" x2="0"/><line class="svg-plot-tick" y1="130" y2="135" x1="260" x2="260"/><line class="svg-plot-tick" x1="-4" x2="0" y1="65" y2="65"/><line class="svg-plot-tick" x1="-4" x2="0" y1="130" y2="130"/><line class="svg-plot-tick" x1="-4" x2="0" y1="0" y2="0"/></g><defs><mask id="svg-plot-hatch1"><rect x="-422" y="-422" width="844" height="844" fill="url(#svg-plot-hatch1-pattern)" style="transform:rotate(-50deg)"/></mask><pattern id="svg-plot-hatch1-pattern" class="svg-plot-hatch" x="0" y="0" width="10" height="3" patternUnits="userSpaceOnUse" stroke="#FFF" fill="none">
				<line x1="-1" y1="1.5" x2="11" y2="1.5" />
			</pattern><mask id="svg-plot-hatch2"><rect x="-422" y="-422" width="844" height="844" fill="url(#svg-plot-hatch2-pattern)" style="transform:rotate(30deg)"/></mask><pattern id="svg-plot-hatch2-pattern" class="svg-plot-hatch" x="0" y="0" width="10" height="2.4" patternUnits="userSpaceOnUse" stroke="#FFF" fill="none">
				<line x1="-1" y1="1.2" x2="11" y2="1.2" />
			</pattern><mask id="svg-plot-hatch3"><rect x="-422" y="-422" width="844" height="844" fill="url(#svg-plot-hatch3-pattern)" style="transform:rotate(8deg)"/><rect x="-422" y="-422" width="844" height="844" fill="url(#svg-plot-hatch3-pattern)" style="transform:rotate(93deg)"/></mask><pattern id="svg-plot-hatch3-pattern" class="svg-plot-hatch" x="0" y="0" width="10" height="3" patternUnits="userSpaceOnUse" stroke="#FFF" fill="none">
				<line x1="-1" y1="1.5" x2="11" y2="1.5" />
			</pattern></defs><style>.svg-plot{stroke-linecap:butt;}.svg-plot-bg{fill:none;stroke:none;}.svg-plot-axis{stroke:none;fill:rgba(255,255,255,0.85);}.svg-plot-line{stroke:blue;fill:none;stroke-width:1.5px;stroke-linejoin:round;}.svg-plot-fill{stroke:none;opacity:0.25;}.svg-plot-major{stroke:#000;stroke-width:1px;stroke-linecap:square;fill:none;}.svg-plot-minor{stroke:rgba(0,0,0,0.3);stroke-width:0.5px;stroke-dasharray:0.5 1.5;stroke-linecap:round;fill:none;}.svg-plot-tick{stroke:#000;fill:none;stroke-width:1px;stroke-linecap:butt;}.svg-plot-value,.svg-plot-label{font-family:Arial,sans-serif;fill:#000;stroke:rgba(255,255,255,0.7);stroke-width:2px;paint-order:stroke fill;text-anchor:middle;dominant-baseline:central;alignment-baseline:baseline;}.svg-plot-label{font-size:12px;}.svg-plot-value{font-size:10px;}.svg-plot-hatch{stroke:#FFF;stroke-width:1px;}.svg-plot-s0{stroke:#0073E6}.svg-plot-f0,.svg-plot-t0{fill:#0073E6}.svg-plot-s1{stroke:#CC0000}.svg-plot-f1,.svg-plot-t1{fill:#CC0000}.svg-plot-s2{stroke:#00B300}.svg-plot-f2,.svg-plot-t2{fill:#00B300}.svg-plot-s3{stroke:#806600}.svg-plot-f3,.svg-plot-t3{fill:#806600}.svg-plot-s4{stroke:#E69900}.svg-plot-f4,.svg-plot-t4{fill:#E69900}.svg-plot-s5{stroke:#CC00CC}.svg-plot-f5,.svg-plot-t5{fill:#CC00CC}.svg-plot-d0{stroke-width:1.35px}.svg-plot-d1{stroke-dasharray:1.8 1.8}.svg-plot-d2{stroke-dasharray:4.2 2.4}.svg-plot-d3{stroke-dasharray:7.5 6}.svg-plot-d4{stroke-dasharray:6 1.5 1.5 1.5 1.5 1.5}.svg-plot-d5{stroke-dasharray:15 4.5}.svg-plot-d6{stroke-dasharray:6 3 1.5 3}.svg-plot-h0{opacity:0.144338}.svg-plot-h1{mask:url(#svg-plot-hatch1)}.svg-plot-h2{mask:url(#svg-plot-hatch2)}.svg-plot-h3{mask:url(#svg-plot-hatch3)}#svg-plot-hatch2-pattern{stroke-width:0.9px}#svg-plot-hatch3-pattern{stroke-width:0.7px}</style><script>var q={};location.href.replace(/^[^#]*#?/,'').split('\x26').forEach(function(p,D){D=decodeURIComponent;if(p){p=p.split('=');q[D(p.shift())]=D(p.join('='))}});var d=document,r=d.rootElement,s=d.getElementsByTagName('style')[0];if(q.style){s.textContent='@import "'+q.style+'";'+s.textContent}if(q.css){s.textContent+=q.css}</script></svg>