<?xml version="1.0" encoding="utf-8" standalone="no"?>
<!DOCTYPE svg PUBLIC "-//W3C//DTD SVG 1.1//EN" "http://www.w3.org/Graphics/SVG/1.1/DTD/svg11.dtd">
<svg version="1.1" class="svg-plot" xmlns="http://www.w3.org/2000/svg" width="178pt" height="189.6pt" viewBox="-14 -14 178 189.6" preserveAspectRatio="xMidYMid"><rect x="-14" y="-14" width="178" height="189.6" class="svg-plot-bg"/><g class="svg-plot-group"><rect x="0" y="0" width="150" height="150" class="svg-plot-axis"/><clipPath id="clip0"><rect x="-0.75" y="-0.75" width="151.5" height="151.5"/></clipPath><g clip-path="url(#clip0)"><path class="svg-plot-line svg-plot-s4 svg-plot-d0" d="M 150 74.99 149.91 71.24 149.63 67.5 149.16 63.78 148.5 60.09 147.67 56.43 146.65 52.83 145.45 49.27 144.08 45.78 142.53 42.37 140.82 39.03 138.94 35.79 136.9 32.64 134.71 29.6 132.36 26.67 129.88 23.86 127.25 21.18 124.5 18.64 121.62 16.24 118.63 13.98 115.52 11.87 112.32 9.93 109.02 8.14 105.64 6.53 102.18 5.08 98.65 3.81 95.06 2.72 91.42 1.8 87.75 1.08 84.04 0.53 80.3 0.17 76.56 0 72.81 0.02 69.06 0.22 65.34 0.61 61.63 1.18 57.96 1.95 54.33 2.89 50.75 4.01 47.23 5.31 43.79 6.79 40.42 8.43 37.13 10.24 33.95 12.22 30.86 14.35 27.88 16.63 25.03 19.06 22.29 21.63 19.69 24.33 17.23 27.15 14.91 30.1 12.74 33.16 10.73 36.33 8.88 39.59 7.19 42.93 5.67 46.36 4.33 49.87 3.16 53.43 2.18 57.05 1.37 60.71 0.75 64.41 0.31 68.13 0.06 71.87 0 75.62 0.13 79.37 0.44 83.11 0.94 86.82 1.62 90.51 2.49 94.16 3.54 97.76 4.76 101.3 6.17 104.78 7.74 108.18 9.48 111.5 11.39 114.73 13.46 117.86 15.68 120.89 18.04 123.79 20.55 126.58 23.2 129.24 25.97 131.76 28.87 134.14 31.89 136.37 35.01 138.45 38.23 140.37 41.54 142.12 44.94 143.71 48.41 145.13 51.95 146.37 55.54 147.43 59.19 148.31 62.87 149.01 66.59 149.53 70.32 149.85 74.07 149.99 77.82 149.95 81.56 149.71 85.29 149.29 88.99 148.68 92.65 147.89 96.27 146.92 99.84 145.77 103.35 144.44 106.78 142.93 110.14 141.26 113.41 139.42 116.58 137.42 119.65 135.26 122.6 132.96 125.44 130.5 128.15 127.91 130.73 125.19 133.17 122.34 135.46 119.38 137.6 116.3 139.59 113.12 141.41 109.84 143.07 106.48 144.56 103.04 145.88 99.52 147.01 95.95 147.97 92.32 148.75 88.66 149.34 84.95 149.74 81.22 149.96 77.48 149.99 73.73"/><path class="svg-plot-fill svg-plot-f3 svg-plot-h3" d="M 140.62 93.74 140.57 91.4 140.39 89.06 140.1 86.74 139.69 84.43 139.17 82.15 138.53 79.89 137.78 77.67 136.92 75.49 135.96 73.35 134.89 71.27 133.71 69.24 132.44 67.27 131.07 65.37 129.6 63.54 128.05 61.79 126.41 60.11 124.69 58.52 122.89 57.02 121.02 55.61 119.08 54.3 117.07 53.08 115.01 51.96 112.9 50.95 110.73 50.05 108.53 49.26 106.29 48.57 104.02 48 101.72 47.55 99.4 47.21 97.06 46.98 94.72 46.87 92.38 46.88 90.04 47.01 87.71 47.25 85.39 47.61 83.1 48.09 80.83 48.68 78.59 49.38 76.4 50.19 74.24 51.12 72.14 52.14 70.08 53.28 68.09 54.51 66.16 55.84 64.3 57.27 62.52 58.79 60.81 60.39 59.18 62.08 57.64 63.85 56.19 65.69 54.84 67.6 53.58 69.58 52.42 71.62 51.37 73.71 50.42 75.85 49.58 78.04 48.85 80.27 48.23 82.53 47.73 84.82 47.34 87.13 47.07 89.46 46.91 91.79 46.87 94.14 46.95 96.48 47.15 98.82 47.46 101.14 47.89 103.44 48.43 105.72 49.08 107.97 49.85 110.19 50.73 112.36 51.71 114.49 52.8 116.56 53.99 118.58 55.28 120.54 56.67 122.43 58.15 124.25 59.72 125.99 61.37 127.65 63.11 129.22 64.92 130.71 66.8 132.1 68.75 133.4 70.77 134.6 72.84 135.7 74.96 136.69 77.13 137.58 79.34 138.36 81.59 139.02 83.87 139.57 86.17 140.01 88.49 140.33 90.83 140.53 93.17 140.62 95.51 140.59 97.85 140.44 100.18 140.18 102.49 139.8 104.78 139.31 107.05 138.7 109.28 137.98 111.47 137.15 113.61 136.21 115.71 135.16 117.75 134.01 119.74 132.76 121.65 131.41 123.5 129.97 125.27 128.44 126.97 126.82 128.58 125.12 130.1 123.34 131.54 121.48 132.88 119.56 134.12 117.57 135.26 115.52 136.3 113.42 137.23 111.27 138.05 109.08 138.76 106.84 139.36 104.58 139.84 102.28 140.21 99.97 140.46 97.64 140.6 95.3 140.62 92.96"/><path class="svg-plot-fill svg-plot-f2 svg-plot-h2" d="M 140.62 56.24 140.57 53.9 140.39 51.56 140.1 49.23 139.69 46.93 139.17 44.64 138.53 42.39 137.78 40.16 136.92 37.98 135.96 35.85 134.89 33.76 133.71 31.74 132.44 29.77 131.07 27.87 129.6 26.04 128.05 24.28 126.41 22.61 124.69 21.02 122.89 19.52 121.02 18.11 119.08 16.79 117.07 15.58 115.01 14.46 112.9 13.45 110.73 12.55 108.53 11.75 106.29 11.07 104.02 10.5 101.72 10.04 99.4 9.7 97.06 9.48 94.72 9.37 92.38 9.38 90.04 9.51 87.71 9.75 85.39 10.11 83.1 10.59 80.83 11.18 78.59 11.88 76.4 12.69 74.24 13.61 72.14 14.64 70.08 15.77 68.09 17.01 66.16 18.34 64.3 19.76 62.52 21.28 60.81 22.89 59.18 24.57 57.64 26.34 56.19 28.18 54.84 30.1 53.58 32.07 52.42 34.11 51.37 36.2 50.42 38.35 49.58 40.54 48.85 42.76 48.23 45.02 47.73 47.31 47.34 49.62 47.07 51.95 46.91 54.29 46.87 56.63 46.95 58.98 47.15 61.31 47.46 63.63 47.89 65.94 48.43 68.22 49.08 70.47 49.85 72.68 50.73 74.86 51.71 76.99 52.8 79.06 53.99 81.08 55.28 83.03 56.67 84.92 58.15 86.74 59.72 88.48 61.37 90.14 63.11 91.72 64.92 93.21 66.8 94.6 68.75 95.9 70.77 97.1 72.84 98.2 74.96 99.19 77.13 100.08 79.34 100.85 81.59 101.52 83.87 102.07 86.17 102.5 88.49 102.82 90.83 103.03 93.17 103.12 95.51 103.09 97.85 102.94 100.18 102.68 102.49 102.3 104.78 101.8 107.05 101.19 109.28 100.47 111.47 99.64 113.61 98.7 115.71 97.66 117.75 96.51 119.74 95.26 121.65 93.91 123.5 92.47 125.27 90.93 126.97 89.32 128.58 87.61 130.1 85.83 131.54 83.98 132.88 82.06 134.12 80.07 135.26 78.02 136.3 75.92 137.23 73.77 138.05 71.57 138.76 69.34 139.36 67.07 139.84 64.78 140.21 62.47 140.46 60.14 140.6 57.8 140.62 55.45"/><path class="svg-plot-fill svg-plot-f1 svg-plot-h1" d="M 103.12 56.24 103.07 53.9 102.89 51.56 102.6 49.23 102.19 46.93 101.67 44.64 101.03 42.39 100.28 40.16 99.42 37.98 98.46 35.85 97.39 33.76 96.21 31.74 94.94 29.77 93.57 27.87 92.1 26.04 90.55 24.28 88.91 22.61 87.19 21.02 85.39 19.52 83.52 18.11 81.58 16.79 79.57 15.58 77.51 14.46 75.4 13.45 73.23 12.55 71.03 11.75 68.79 11.07 66.51 10.5 64.22 10.04 61.9 9.7 59.56 9.48 57.22 9.37 54.88 9.38 52.54 9.51 50.21 9.75 47.89 10.11 45.6 10.59 43.33 11.18 41.09 11.88 38.9 12.69 36.74 13.61 34.64 14.64 32.58 15.77 30.59 17.01 28.66 18.34 26.8 19.76 25.02 21.28 23.31 22.89 21.68 24.57 20.14 26.34 18.69 28.18 17.34 30.1 16.08 32.07 14.92 34.11 13.87 36.2 12.92 38.35 12.08 40.54 11.35 42.76 10.73 45.02 10.23 47.31 9.84 49.62 9.57 51.95 9.41 54.29 9.37 56.63 9.45 58.98 9.65 61.31 9.96 63.63 10.39 65.94 10.93 68.22 11.58 70.47 12.35 72.68 13.23 74.86 14.21 76.99 15.3 79.06 16.49 81.08 17.78 83.03 19.17 84.92 20.65 86.74 22.22 88.48 23.87 90.14 25.61 91.72 27.42 93.21 29.3 94.6 31.25 95.9 33.27 97.1 35.34 98.2 37.46 99.19 39.63 100.08 41.84 100.85 44.09 101.52 46.37 102.07 48.67 102.5 50.99 102.82 53.33 103.03 55.67 103.12 58.01 103.09 60.35 102.94 62.68 102.68 64.99 102.3 67.28 101.8 69.55 101.19 71.78 100.47 73.97 99.64 76.11 98.7 78.21 97.66 80.25 96.51 82.24 95.26 84.15 93.91 86 92.47 87.77 90.93 89.47 89.32 91.08 87.61 92.6 85.83 94.04 83.98 95.38 82.06 96.62 80.07 97.76 78.02 98.79 75.92 99.72 73.77 100.55 71.57 101.26 69.34 101.86 67.07 102.34 64.78 102.71 62.47 102.96 60.14 103.1 57.8 103.12 55.45"/><path class="svg-plot-fill svg-plot-f0 svg-plot-h0" d="M 103.12 93.74 103.07 91.4 102.89 89.06 102.6 86.74 102.19 84.43 101.67 82.15 101.03 79.89 100.28 77.67 99.42 75.49 98.46 73.35 97.39 71.27 96.21 69.24 94.94 67.27 93.57 65.37 92.1 63.54 90.55 61.79 88.91 60.11 87.19 58.52 85.39 57.02 83.52 55.61 81.58 54.3 79.57 53.08 77.51 51.96 75.4 50.95 73.23 50.05 71.03 49.26 68.79 48.57 66.51 48 64.22 47.55 61.9 47.21 59.56 46.98 57.22 46.87 54.88 46.88 52.54 47.01 50.21 47.25 47.89 47.61 45.6 48.09 43.33 48.68 41.09 49.38 38.9 50.19 36.74 51.12 34.64 52.14 32.58 53.28 30.59 54.51 28.66 55.84 26.8 57.27 25.02 58.79 23.31 60.39 21.68 62.08 20.14 63.85 18.69 65.69 17.34 67.6 16.08 69.58 14.92 71.62 13.87 73.71 12.92 75.85 12.08 78.04 11.35 80.27 10.73 82.53 10.23 84.82 9.84 87.13 9.57 89.46 9.41 91.79 9.37 94.14 9.45 96.48 9.65 98.82 9.96 101.14 10.39 103.44 10.93 105.72 11.58 107.97 12.35 110.19 13.23 112.36 14.21 114.49 15.3 116.56 16.49 118.58 17.78 120.54 19.17 122.43 20.65 124.25 22.22 125.99 23.87 127.65 25.61 129.22 27.42 130.71 29.3 132.1 31.25 133.4 33.27 134.6 35.34 135.7 37.46 136.69 39.63 137.58 41.84 138.36 44.09 139.02 46.37 139.57 48.67 140.01 50.99 140.33 53.33 140.53 55.67 140.62 58.01 140.59 60.35 140.44 62.68 140.18 64.99 139.8 67.28 139.31 69.55 138.7 71.78 137.98 73.97 137.15 76.11 136.21 78.21 135.16 80.25 134.01 82.24 132.76 84.15 131.41 86 129.97 87.77 128.44 89.47 126.82 91.08 125.12 92.6 123.34 94.04 121.48 95.38 119.56 96.62 117.57 97.76 115.52 98.79 113.42 99.72 111.27 100.55 109.08 101.26 106.84 101.86 104.58 102.34 102.28 102.71 99.97 102.96 97.64 103.1 95.3 103.12 92.96"/></g></g><g class="svg-plot-group"><text class="svg-plot-label svg-plot-t4" x="74.9987" y="158.4">outer boundary</text><text class="svg-plot-label svg-plot-t3" x="112.499" y="111.296">D</text><text class="svg-plot-label svg-plot-t2" x="112.499" y="36.2878">C</text><text class="svg-plot-label svg-plot-t1" x="37.498" y="36.2878">B</text><text class="svg-plot-label svg-plot-t0" x="37.498" y="111.296">A</text></g><defs><g id="svg-plot-marker0" class="svg-plot-marker"><circle cx="0" cy="0" r="1" stroke="none"/></g><g id="svg-plot-marker1" class="svg-plot-marker"><path d="M0 0.9 -0.9 0 0 -0.9 0.9 0Z" fill="#FFFA" stroke-linejoin="miter" stroke-width="0.5"/></g><g id="svg-plot-marker2" class="svg-plot-marker"><path fill="none" d="M0 -1.2 0 1.2 M -1.2 0 1.2 0" stroke-width="0.6"/></g><g id="svg-plot-marker3" class="svg-plot-marker"><circle cx="0" cy="0" fill="#FFFA" r="0.82" stroke-width="0.55"/></g><g id="svg-plot-marker4" class="svg-plot-marker"><path stroke="none" d="M0 -1.25 1.25 0.9 -1.25 0.9Z"/></g><mask id="svg-plot-hatch1"><rect x="-235" y="-235" width="470" height="470" fill="url(#svg-plot-hatch1-pattern)" style="transform:rotate(-50deg)"/></mask><pattern patternUnits="userSpaceOnUse" id="svg-plot-hatch1-pattern" class="svg-plot-hatch" x="0" y="0" width="10" height="3"><line x1="-1" x2="11" y1="1.5" y2="1.5" stroke="#FFF" fill="none"/><rect x="-1" y="-1" width="12" height="12" fill="#FFF2" stroke="none"/></pattern><mask id="svg-plot-hatch2"><rect x="-235" y="-235" width="470" height="470" fill="url(#svg-plot-hatch2-pattern)" style="transform:rotate(30deg)"/></mask><pattern patternUnits="userSpaceOnUse" id="svg-plot-hatch2-pattern" class="svg-plot-hatch" x="0" y="0" width="10" height="2.4"><line x1="-1" x2="11" y1="1.2" y2="1.2" stroke="#FFF" fill="none"/><rect x="-1" y="-1" width="12" height="12" fill="#FFF2" stroke="none"/></pattern><mask id="svg-plot-hatch3"><rect x="-235" y="-235" width="470" height="470" fill="url(#svg-plot-hatch3-pattern)" style="transform:rotate(8deg)"/><rect x="-235" y="-235" width="470" height="470" fill="url(#svg-plot-hatch3-pattern)" style="transform:rotate(93deg)"/></mask><pattern patternUnits="userSpaceOnUse" id="svg-plot-hatch3-pattern" class="svg-plot-hatch" x="0" y="0" width="10" height="3"><line x1="-1" x2="11" y1="1.5" y2="1.5" stroke="#FFF" fill="none"/><rect x="-1" y="-1" width="12" height="12" fill="#FFF2" stroke="none"/></pattern></defs><style>.svg-plot{stroke-linecap:butt;stroke-linejoin:round;}.svg-plot-bg{fill:#FFF;stroke:none;}.svg-plot-axis{stroke:none;fill:#FFFFFFD9;}.svg-plot-legend{stroke:none;fill:#FFFFFFE4;}.svg-plot-line{stroke:blue;fill:none;stroke-width:1.5px;stroke-linejoin:round;}.svg-plot-fill{stroke:none;opacity:0.28;}.svg-plot-dot .svg-plot-fill{opacity:0.5;}.svg-plot-major{stroke:#000;stroke-width:1px;stroke-linecap:square;fill:none;}.svg-plot-minor{stroke:#0000004D;stroke-width:0.5px;stroke-dasharray:0.5 1.5;stroke-linecap:round;fill:none;}.svg-plot-tick{stroke:#000;fill:none;stroke-width:1px;stroke-linecap:butt;}.svg-plot-value,.svg-plot-label,.svg-plot-title{font-family:Arial,sans-serif;fill:#000;stroke:#FFFFFF48;stroke-width:2.5px;paint-order:stroke fill;text-anchor:middle;dominant-baseline:central;alignment-baseline:baseline;}.svg-plot-label{font-size:12px;}.svg-plot-value{font-size:10px;}.svg-plot-title{font-size:13px;}.svg-plot-hatch{stroke:#FFF;stroke-width:1px;}.svg-plot-marker{transform:scale(3.25);}.svg-plot-s{stroke:#000;}.svg-plot-f,.svg-plot-t{fill:#000;}.svg-plot-s0{stroke:#0073E6}.svg-plot-f0,.svg-plot-t0{fill:#0073E6}.svg-plot-s1{stroke:#CC0000}.svg-plot-f1,.svg-plot-t1{fill:#CC0000}.svg-plot-s2{stroke:#00B300}.svg-plot-f2,.svg-plot-t2{fill:#00B300}.svg-plot-s3{stroke:#806600}.svg-plot-f3,.svg-plot-t3{fill:#806600}.svg-plot-s4{stroke:#E69900}.svg-plot-f4,.svg-plot-t4{fill:#E69900}.svg-plot-s5{stroke:#CC00CC}.svg-plot-f5,.svg-plot-t5{fill:#CC00CC}.svg-plot-d0{stroke-width:1.35px}.svg-plot-d1{stroke-dasharray:1.8 1.8}.svg-plot-d2{stroke-dasharray:4.2 2.4}.svg-plot-d3{stroke-dasharray:7.5 6}.svg-plot-d4{stroke-dasharray:6 1.5 1.5 1.5 1.5 1.5}.svg-plot-d5{stroke-dasharray:15 4.5}.svg-plot-d6{stroke-dasharray:6 3 1.5 3}.svg-plot-h0{opacity:0.14}.svg-plot-h1{mask:url(#svg-plot-hatch1)}.svg-plot-h2{mask:url(#svg-plot-hatch2)}.svg-plot-h3{mask:url(#svg-plot-hatch3)}#svg-plot-hatch2-pattern{stroke-width:0.9px}#svg-plot-hatch3-pattern{stroke-width:0.7px}</style></svg>