<?xml version="1.0" encoding="utf-8" standalone="no"?>
<!DOCTYPE svg PUBLIC "-//W3C//DTD SVG 1.1//EN" "http://www.w3.org/Graphics/SVG/1.1/DTD/svg11.dtd">
<svg version="1.1" class="svg-plot" xmlns="http://www.w3.org/2000/svg" width="228pt" height="239.6pt" viewBox="-14 -14 228 239.6" preserveAspectRatio="xMidYMid"><rect x="-4" y="-4" width="208" height="219.6" class="svg-plot-bg"/><rect x="0" y="0" width="200" height="200" class="svg-plot-axis"/><clipPath id="clip0"><rect x="-0.75" y="-0.75" width="201.5" height="201.5"/></clipPath><g clip-path="url(#clip0)"><path class="svg-plot-line svg-plot-s4 svg-plot-d0" d="M 200 99.99 199.88 94.99 199.5 90 198.88 85.04 198.01 80.12 196.89 75.25 195.53 70.43 193.94 65.7 192.11 61.04 190.04 56.49 187.76 52.04 185.25 47.71 182.53 43.52 179.61 39.46 176.48 35.56 173.17 31.82 169.67 28.25 166 24.85 162.16 21.65 158.17 18.64 154.03 15.83 149.76 13.24 145.36 10.86 140.85 8.7 136.23 6.78 131.53 5.08 126.75 3.62 121.9 2.41 117 1.43 112.05 0.71 107.07 0.23 102.08 0 97.08 0.02 92.09 0.29 87.11 0.81 82.17 1.58 77.28 2.59 72.44 3.85 67.67 5.35 62.98 7.08 58.38 9.05 53.89 11.24 49.51 13.66 45.26 16.29 41.15 19.13 37.18 22.17 33.37 25.41 29.73 28.83 26.26 32.44 22.97 36.21 19.88 40.14 16.99 44.21 14.31 48.43 11.84 52.78 9.59 57.25 7.57 61.82 5.77 66.49 4.22 71.24 2.9 76.06 1.83 80.94 1 85.88 0.42 90.84 0.08 95.83 0 100.83 0.17 105.83 0.58 110.81 1.25 115.77 2.16 120.68 3.32 125.55 4.71 130.35 6.35 135.07 8.22 139.71 10.32 144.25 12.64 148.67 15.19 152.98 17.94 157.15 20.9 161.18 24.06 165.06 27.4 168.77 30.93 172.32 34.63 175.68 38.5 178.85 42.51 181.83 46.68 184.6 50.97 187.16 55.39 189.5 59.92 191.62 64.55 193.5 69.26 195.16 74.06 196.58 78.92 197.75 83.83 198.68 88.78 199.37 93.76 199.81 98.76 199.99 103.76 199.93 108.75 199.62 113.72 199.05 118.65 198.25 123.54 197.19 128.36 195.89 133.12 194.35 137.8 192.58 142.38 190.58 146.85 188.34 151.21 185.89 155.44 183.22 159.53 180.35 163.47 177.27 167.25 174 170.87 170.55 174.3 166.92 177.56 163.12 180.61 159.17 183.47 155.06 186.12 150.82 188.55 146.45 190.76 141.97 192.75 137.38 194.5 132.7 196.02 127.93 197.29 123.1 198.33 118.21 199.11 113.27 199.65 108.3 199.94 103.31 199.99 98.31"/><path class="svg-plot-fill svg-plot-f3 svg-plot-h3" d="M 187.5 124.99 187.42 121.87 187.19 118.75 186.8 115.65 186.25 112.57 185.56 109.53 184.71 106.52 183.71 103.56 182.57 100.65 181.28 97.8 179.85 95.02 178.28 92.32 176.58 89.7 174.75 87.16 172.8 84.72 170.73 82.38 168.54 80.15 166.25 78.03 163.85 76.03 161.35 74.15 158.77 72.39 156.1 70.77 153.35 69.29 150.53 67.94 147.65 66.73 144.71 65.67 141.72 64.76 138.69 64 135.62 63.39 132.53 62.94 129.42 62.64 126.3 62.5 123.17 62.51 120.05 62.68 116.95 63.01 113.86 63.49 110.8 64.12 107.77 64.91 104.79 65.84 101.86 66.93 98.99 68.15 96.18 69.53 93.45 71.04 90.79 72.68 88.22 74.46 85.74 76.36 83.36 78.38 81.08 80.52 78.91 82.77 76.86 85.13 74.93 87.58 73.12 90.13 71.44 92.77 69.9 95.49 68.49 98.28 67.23 101.14 66.11 104.05 65.14 107.02 64.31 110.04 63.64 113.09 63.12 116.17 62.76 119.27 62.55 122.39 62.5 125.52 62.6 128.64 62.86 131.75 63.28 134.85 63.85 137.92 64.57 140.96 65.45 143.97 66.47 146.92 67.64 149.82 68.95 152.65 70.4 155.42 71.99 158.11 73.71 160.72 75.56 163.24 77.54 165.66 79.63 167.98 81.83 170.2 84.15 172.3 86.56 174.28 89.07 176.14 91.67 177.87 94.36 179.47 97.12 180.93 99.95 182.26 102.84 183.44 105.79 184.47 108.79 185.36 111.82 186.09 114.89 186.68 117.99 187.1 121.1 187.38 124.22 187.49 127.35 187.45 130.47 187.26 133.57 186.91 136.66 186.4 139.71 185.74 142.73 184.93 145.7 183.97 148.62 182.86 151.49 181.61 154.28 180.21 157 178.68 159.65 177.01 162.2 175.22 164.67 173.29 167.03 171.25 169.29 169.09 171.44 166.82 173.47 164.45 175.38 161.98 177.17 159.41 178.82 156.76 180.34 154.03 181.73 151.23 182.97 148.36 184.06 145.44 185.01 142.46 185.81 139.44 186.45 136.38 186.95 133.29 187.28 130.19 187.47 127.07 187.49 123.94"/><path class="svg-plot-fill svg-plot-f2 svg-plot-h2" d="M 187.5 74.99 187.42 71.86 187.19 68.75 186.8 65.65 186.25 62.57 185.56 59.52 184.71 56.51 183.71 53.55 182.57 50.65 181.28 47.8 179.85 45.02 178.28 42.31 176.58 39.69 174.75 37.16 172.8 34.72 170.73 32.38 168.54 30.15 166.25 28.03 163.85 26.02 161.35 24.14 158.77 22.39 156.1 20.77 153.35 19.28 150.53 17.93 147.65 16.73 144.71 15.67 141.72 14.76 138.69 14 135.62 13.39 132.53 12.94 129.42 12.64 126.3 12.49 123.17 12.51 120.05 12.68 116.95 13 113.86 13.48 110.8 14.11 107.77 14.9 104.79 15.84 101.86 16.92 98.99 18.15 96.18 19.52 93.45 21.03 90.79 22.67 88.22 24.45 85.74 26.35 83.36 28.37 81.08 30.51 78.91 32.77 76.86 35.12 74.93 37.58 73.12 40.13 71.44 42.76 69.9 45.48 68.49 48.27 67.23 51.13 66.11 54.05 65.14 57.02 64.31 60.03 63.64 63.08 63.12 66.17 62.76 69.27 62.55 72.39 62.5 75.51 62.6 78.64 62.86 81.75 63.28 84.85 63.85 87.92 64.57 90.96 65.45 93.96 66.47 96.91 67.64 99.81 68.95 102.65 70.4 105.41 71.99 108.1 73.71 110.71 75.56 113.23 77.54 115.65 79.63 117.98 81.83 120.19 84.15 122.29 86.56 124.27 89.07 126.13 91.67 127.87 94.36 129.47 97.12 130.93 99.95 132.25 102.84 133.43 105.79 134.47 108.79 135.35 111.82 136.09 114.89 136.67 117.99 137.1 121.1 137.37 124.22 137.49 127.35 137.45 130.47 137.25 133.57 136.9 136.66 136.4 139.71 135.74 142.73 134.93 145.7 133.96 148.62 132.86 151.49 131.6 154.28 130.21 157 128.68 159.65 127.01 162.2 125.21 164.67 123.29 167.03 121.25 169.29 119.09 171.44 116.82 173.47 114.44 175.38 111.97 177.17 109.41 178.82 106.76 180.34 104.03 181.73 101.22 182.97 98.36 184.06 95.43 185.01 92.45 185.81 89.43 186.45 86.37 186.95 83.29 187.28 80.18 187.47 77.06 187.49 73.94"/><path class="svg-plot-fill svg-plot-f1 svg-plot-h1" d="M 137.5 74.99 137.42 71.86 137.19 68.75 136.8 65.65 136.25 62.57 135.56 59.52 134.71 56.51 133.71 53.55 132.57 50.65 131.28 47.8 129.85 45.02 128.28 42.31 126.58 39.69 124.75 37.16 122.8 34.72 120.73 32.38 118.54 30.15 116.25 28.03 113.85 26.02 111.35 24.14 108.77 22.39 106.1 20.77 103.35 19.28 100.53 17.93 97.65 16.73 94.71 15.67 91.72 14.76 88.69 14 85.62 13.39 82.53 12.94 79.42 12.64 76.3 12.49 73.17 12.51 70.05 12.68 66.94 13 63.86 13.48 60.8 14.11 57.77 14.9 54.79 15.84 51.86 16.92 48.99 18.15 46.18 19.52 43.44 21.03 40.79 22.67 38.22 24.45 35.74 26.35 33.35 28.37 31.08 30.51 28.91 32.77 26.86 35.12 24.93 37.58 23.12 40.13 21.44 42.76 19.9 45.48 18.49 48.27 17.23 51.13 16.11 54.05 15.14 57.02 14.31 60.03 13.64 63.08 13.12 66.17 12.76 69.27 12.55 72.39 12.5 75.51 12.6 78.64 12.86 81.75 13.28 84.85 13.85 87.92 14.57 90.96 15.45 93.96 16.47 96.91 17.64 99.81 18.95 102.65 20.4 105.41 21.99 108.1 23.71 110.71 25.56 113.23 27.53 115.65 29.63 117.98 31.83 120.19 34.14 122.29 36.56 124.27 39.07 126.13 41.67 127.87 44.36 129.47 47.12 130.93 49.95 132.25 52.84 133.43 55.79 134.47 58.79 135.35 61.82 136.09 64.89 136.67 67.99 137.1 71.1 137.37 74.22 137.49 77.35 137.45 80.47 137.25 83.57 136.9 86.66 136.4 89.71 135.74 92.73 134.93 95.7 133.96 98.62 132.86 101.48 131.6 104.28 130.21 107 128.68 109.65 127.01 112.2 125.21 114.67 123.29 117.03 121.25 119.29 119.09 121.44 116.82 123.47 114.44 125.38 111.97 127.17 109.41 128.82 106.76 130.34 104.03 131.73 101.22 132.97 98.36 134.06 95.43 135.01 92.45 135.81 89.43 136.45 86.37 136.95 83.29 137.28 80.18 137.46 77.06 137.49 73.94"/><path class="svg-plot-fill svg-plot-f0 svg-plot-h0" d="M 137.5 124.99 137.42 121.87 137.19 118.75 136.8 115.65 136.25 112.57 135.56 109.53 134.71 106.52 133.71 103.56 132.57 100.65 131.28 97.8 129.85 95.02 128.28 92.32 126.58 89.7 124.75 87.16 122.8 84.72 120.73 82.38 118.54 80.15 116.25 78.03 113.85 76.03 111.35 74.15 108.77 72.39 106.1 70.77 103.35 69.29 100.53 67.94 97.65 66.73 94.71 65.67 91.72 64.76 88.69 64 85.62 63.39 82.53 62.94 79.42 62.64 76.3 62.5 73.17 62.51 70.05 62.68 66.94 63.01 63.86 63.49 60.8 64.12 57.77 64.91 54.79 65.84 51.86 66.93 48.99 68.15 46.18 69.53 43.44 71.04 40.79 72.68 38.22 74.46 35.74 76.36 33.35 78.38 31.08 80.52 28.91 82.77 26.86 85.13 24.93 87.58 23.12 90.13 21.44 92.77 19.9 95.49 18.49 98.28 17.23 101.14 16.11 104.05 15.14 107.02 14.31 110.04 13.64 113.09 13.12 116.17 12.76 119.27 12.55 122.39 12.5 125.52 12.6 128.64 12.86 131.75 13.28 134.85 13.85 137.92 14.57 140.96 15.45 143.97 16.47 146.92 17.64 149.82 18.95 152.65 20.4 155.42 21.99 158.11 23.71 160.72 25.56 163.24 27.53 165.66 29.63 167.98 31.83 170.2 34.14 172.3 36.56 174.28 39.07 176.14 41.67 177.87 44.36 179.47 47.12 180.93 49.95 182.26 52.84 183.44 55.79 184.47 58.79 185.36 61.82 186.09 64.89 186.68 67.99 187.1 71.1 187.38 74.22 187.49 77.35 187.45 80.47 187.26 83.57 186.91 86.66 186.4 89.71 185.74 92.73 184.93 95.7 183.97 98.62 182.86 101.48 181.61 104.28 180.21 107 178.68 109.65 177.01 112.2 175.22 114.67 173.29 117.03 171.25 119.29 169.09 121.44 166.82 123.47 164.45 125.38 161.98 127.17 159.41 128.82 156.76 130.34 154.03 131.73 151.23 132.97 148.36 134.06 145.44 135.01 142.46 135.81 139.44 136.45 136.38 136.95 133.29 137.28 130.19 137.46 127.07 137.49 123.94"/></g><g><text class="svg-plot-label svg-plot-t4" x="99.9982" y="208.4">outer boundary</text><text class="svg-plot-label svg-plot-t3" x="149.999" y="148.795">D</text><text class="svg-plot-label svg-plot-t2" x="149.999" y="48.7838">C</text><text class="svg-plot-label svg-plot-t1" x="49.9973" y="48.7838">B</text><text class="svg-plot-label svg-plot-t0" x="49.9973" y="148.795">A</text></g><defs><g id="svg-plot-marker0" class="svg-plot-marker"><circle cx="0" cy="0" r="1" stroke="none"/></g><g id="svg-plot-marker1" class="svg-plot-marker"><path d="M0 0.9 -0.9 0 0 -0.9 0.9 0Z" fill="#FFFA" stroke-linejoin="miter" stroke-width="0.5"/></g><g id="svg-plot-marker2" class="svg-plot-marker"><path fill="none" d="M0 -1.2 0 1.2 M -1.2 0 1.2 0" stroke-width="0.6"/></g><g id="svg-plot-marker3" class="svg-plot-marker"><circle cx="0" cy="0" fill="#FFFA" r="0.82" stroke-width="0.55"/></g><g id="svg-plot-marker4" class="svg-plot-marker"><path stroke="none" d="M0 -1.25 1.25 0.9 -1.25 0.9Z"/></g><mask id="svg-plot-hatch1"><rect x="-305" y="-305" width="610" height="610" fill="url(#svg-plot-hatch1-pattern)" style="transform:rotate(-50deg)"/></mask><pattern patternUnits="userSpaceOnUse" id="svg-plot-hatch1-pattern" class="svg-plot-hatch" x="0" y="0" width="10" height="3"><line x1="-1" x2="11" y1="1.5" y2="1.5" stroke="#FFF" fill="none"/><rect x="-1" y="-1" width="12" height="12" fill="#FFF2" stroke="none"/></pattern><mask id="svg-plot-hatch2"><rect x="-305" y="-305" width="610" height="610" fill="url(#svg-plot-hatch2-pattern)" style="transform:rotate(30deg)"/></mask><pattern patternUnits="userSpaceOnUse" id="svg-plot-hatch2-pattern" class="svg-plot-hatch" x="0" y="0" width="10" height="2.4"><line x1="-1" x2="11" y1="1.2" y2="1.2" stroke="#FFF" fill="none"/><rect x="-1" y="-1" width="12" height="12" fill="#FFF2" stroke="none"/></pattern><mask id="svg-plot-hatch3"><rect x="-305" y="-305" width="610" height="610" fill="url(#svg-plot-hatch3-pattern)" style="transform:rotate(8deg)"/><rect x="-305" y="-305" width="610" height="610" fill="url(#svg-plot-hatch3-pattern)" style="transform:rotate(93deg)"/></mask><pattern patternUnits="userSpaceOnUse" id="svg-plot-hatch3-pattern" class="svg-plot-hatch" x="0" y="0" width="10" height="3"><line x1="-1" x2="11" y1="1.5" y2="1.5" stroke="#FFF" fill="none"/><rect x="-1" y="-1" width="12" height="12" fill="#FFF2" stroke="none"/></pattern></defs><style>.svg-plot{stroke-linecap:butt;stroke-linejoin:round;}.svg-plot-bg{fill:none;stroke:none;}.svg-plot-axis{stroke:none;fill:#FFFFFFD9;}.svg-plot-legend{stroke:none;fill:#FFFFFFE4;}.svg-plot-line{stroke:blue;fill:none;stroke-width:1.5px;stroke-linejoin:round;}.svg-plot-fill{stroke:none;opacity:0.3;}.svg-plot-major{stroke:#000;stroke-width:1px;stroke-linecap:square;fill:none;}.svg-plot-minor{stroke:#0000004D;stroke-width:0.5px;stroke-dasharray:0.5 1.5;stroke-linecap:round;fill:none;}.svg-plot-tick{stroke:#000;fill:none;stroke-width:1px;stroke-linecap:butt;}.svg-plot-value,.svg-plot-label{font-family:Arial,sans-serif;fill:#000;stroke:#FFFFFF48;stroke-width:2.5px;paint-order:stroke fill;text-anchor:middle;dominant-baseline:central;alignment-baseline:baseline;}.svg-plot-label{font-size:12px;}.svg-plot-value{font-size:10px;}.svg-plot-hatch{stroke:#FFF;stroke-width:1px;}.svg-plot-marker{transform:scale(3.25);}.svg-plot-s{stroke:#000;}.svg-plot-f,.svg-plot-t{fill:#000;}.svg-plot-s0{stroke:#0073E6}.svg-plot-f0,.svg-plot-t0{fill:#0073E6}.svg-plot-s1{stroke:#CC0000}.svg-plot-f1,.svg-plot-t1{fill:#CC0000}.svg-plot-s2{stroke:#00B300}.svg-plot-f2,.svg-plot-t2{fill:#00B300}.svg-plot-s3{stroke:#806600}.svg-plot-f3,.svg-plot-t3{fill:#806600}.svg-plot-s4{stroke:#E69900}.svg-plot-f4,.svg-plot-t4{fill:#E69900}.svg-plot-s5{stroke:#CC00CC}.svg-plot-f5,.svg-plot-t5{fill:#CC00CC}.svg-plot-d0{stroke-width:1.35px}.svg-plot-d1{stroke-dasharray:1.8 1.8}.svg-plot-d2{stroke-dasharray:4.2 2.4}.svg-plot-d3{stroke-dasharray:7.5 6}.svg-plot-d4{stroke-dasharray:6 1.5 1.5 1.5 1.5 1.5}.svg-plot-d5{stroke-dasharray:15 4.5}.svg-plot-d6{stroke-dasharray:6 3 1.5 3}.svg-plot-h0{opacity:0.1}.svg-plot-h1{mask:url(#svg-plot-hatch1)}.svg-plot-h2{mask:url(#svg-plot-hatch2)}.svg-plot-h3{mask:url(#svg-plot-hatch3)}#svg-plot-hatch2-pattern{stroke-width:0.9px}#svg-plot-hatch3-pattern{stroke-width:0.7px}</style></svg>