<?xml version="1.0" encoding="utf-8" standalone="no"?>
<!DOCTYPE svg PUBLIC "-//W3C//DTD SVG 1.1//EN" "http://www.w3.org/Graphics/SVG/1.1/DTD/svg11.dtd">
<svg class="svg-plot" width="228pt" height="230pt" version="1.1" viewBox="-14 -15 228 230" preserveAspectRatio="xMidYMid" xmlns="http://www.w3.org/2000/svg" xmlns:xlink="http://www.w3.org/1999/xlink"><rect class="svg-plot-bg" x="-4" y="-5" width="208" height="210"/><rect class="svg-plot-axis" x="0" y="0" width="200" height="200"/><clipPath id="clip984943658"><rect x="-0.75" y="-0.75" width="201.5" height="201.5" /></clipPath><g clip-path="url(#clip984943658"><path class="svg-plot-fill svg-plot-f3 svg-plot-h3" d="M 200 128.569 199.911 124.999 199.643 121.438 199.198 117.894 198.576 114.377 197.779 110.896 196.81 107.459 195.669 104.074 194.361 100.751 192.889 97.4972 191.256 94.3212 189.466 91.2307 187.524 88.2336 185.434 85.3373 183.203 82.5491 180.835 79.8759 178.336 77.3244 175.713 74.9009 172.972 72.6117 170.12 70.4622 167.164 68.4581 164.112 66.6042 160.971 64.9051 157.749 63.3652 154.454 61.9882 151.094 60.7777 147.678 59.7366 144.214 58.8676 140.711 58.1728 137.178 57.6539 133.623 57.3123 130.056 57.1488 126.485 57.1638 122.919 57.3573 119.367 57.7288 115.839 58.2774 112.342 59.0016 108.885 59.8997 105.478 60.9695 102.129 62.2082 98.8454 63.6128 95.6363 65.1798 92.5096 66.9052 89.4731 68.7847 86.5342 70.8136 83.7004 72.987 80.9788 75.2992 78.3761 77.7446 75.8989 80.317 73.5533 83.01 71.3453 85.817 69.2802 88.7307 67.3634 91.7441 65.5996 94.8494 63.9931 98.0391 62.5481 101.305 61.2681 104.639 60.1563 108.033 59.2155 111.478 58.4481 114.966 57.8559 118.488 57.4405 122.036 57.2028 125.599 57.1436 129.17 57.2629 132.739 57.5604 136.298 58.0354 139.838 58.6867 143.35 59.5126 146.824 60.5112 150.253 61.6799 153.628 63.0158 156.94 64.5155 160.181 66.1754 163.344 67.9912 166.419 69.9584 169.4 72.0721 172.278 74.3271 175.048 76.7176 177.701 79.2377 180.231 81.8811 182.632 84.6412 184.899 87.5112 187.024 90.4837 189.003 93.5515 190.831 96.7067 192.504 99.9417 194.017 103.248 195.366 106.618 196.548 110.043 197.56 113.513 198.4 117.022 199.066 120.56 199.555 124.117 199.866 127.686 200 131.256 199.955 134.821 199.731 138.369 199.33 141.893 198.752 145.384 197.998 148.832 197.071 152.23 195.973 155.569 194.706 158.841 193.274 162.036 191.68 165.149 189.928 168.169 188.023 171.091 185.97 173.906 183.773 176.608 181.438 179.19 178.97 181.646 176.377 183.969 173.665 186.153 170.839 188.194 167.908 190.085 164.879 191.823 161.759 193.402 158.556 194.82 155.278 196.072 151.933 197.155 148.53 198.067 145.077 198.805 141.582 199.367 138.056 199.753 134.505 199.961 130.94" /><path class="svg-plot-fill svg-plot-f2 svg-plot-h2" d="M 200 71.4206 199.911 67.8503 199.643 64.2889 199.198 60.7453 198.576 57.2284 197.779 53.747 196.81 50.3098 195.669 46.9253 194.361 43.6021 192.889 40.3484 191.256 37.1723 189.466 34.0819 187.524 31.0848 185.434 28.1885 183.203 25.4002 180.835 22.727 178.336 20.1755 175.713 17.7521 172.972 15.4628 170.12 13.3134 167.164 11.3092 164.112 9.45531 160.971 7.75627 157.749 6.21635 154.454 4.83941 151.094 3.62889 147.678 2.58781 144.214 1.71878 140.711 1.02397 137.178 0.505108 133.623 0.163501 130.056 0 126.485 0.0150131 122.919 0.208503 119.367 0.579986 115.839 1.12853 112.342 1.85277 108.885 2.7509 105.478 3.82066 102.129 5.05939 98.8454 6.46399 95.6363 8.03094 92.5096 9.75633 89.4731 11.6359 86.5342 13.6648 83.7004 15.8381 80.9788 18.1504 78.3761 20.5958 75.8989 23.1682 73.5533 25.8612 71.3453 28.6681 69.2802 31.5819 67.3634 34.5952 65.5996 37.7006 63.9931 40.8903 62.5481 44.1562 61.2681 47.4904 60.1563 50.8843 59.2155 54.3296 58.4481 57.8176 57.8559 61.3395 57.4405 64.8867 57.2028 68.4502 57.1436 72.0212 57.2629 75.5906 57.5604 79.1496 58.0354 82.6893 58.6867 86.2009 59.5126 89.6754 60.5112 93.1044 61.6799 96.4792 63.0158 99.7913 64.5155 103.033 66.1754 106.195 67.9912 109.27 69.9584 112.251 72.0721 115.129 74.3271 117.899 76.7176 120.552 79.2377 123.082 81.8811 125.484 84.6412 127.75 87.5112 129.875 90.4837 131.854 93.5515 133.683 96.7067 135.355 99.9417 136.868 103.248 138.217 106.618 139.399 110.043 140.412 113.513 141.251 117.022 141.917 120.56 142.406 124.117 142.718 127.686 142.851 131.256 142.806 134.821 142.583 138.369 142.181 141.893 141.603 145.384 140.85 148.832 139.922 152.23 138.824 155.569 137.557 158.841 136.125 162.036 134.531 165.149 132.779 168.169 130.874 171.091 128.821 173.906 126.624 176.608 124.289 179.19 121.822 181.646 119.228 183.969 116.516 186.153 113.69 188.194 110.759 190.085 107.73 191.823 104.61 193.402 101.407 194.82 98.1289 196.072 94.7841 197.155 91.3809 198.067 87.9279 198.805 84.4336 199.367 80.9067 199.753 77.3562 199.961 73.7908" /><path class="svg-plot-fill svg-plot-f1 svg-plot-h1" d="M 142.856 71.4206 142.767 67.8503 142.5 64.2889 142.054 60.7453 141.433 57.2284 140.636 53.747 139.666 50.3098 138.526 46.9253 137.218 43.6021 135.745 40.3484 134.112 37.1723 132.322 34.0819 130.38 31.0848 128.291 28.1885 126.059 25.4002 123.691 22.727 121.192 20.1755 118.569 17.7521 115.828 15.4628 112.976 13.3134 110.02 11.3092 106.968 9.45531 103.827 7.75627 100.605 6.21635 97.31 4.83941 93.9503 3.62889 90.5342 2.58781 87.0705 1.71878 83.5676 1.02397 80.0344 0.505108 76.4797 0.163501 72.9123 0 69.3412 0.0150131 65.7754 0.208503 62.2237 0.579986 58.6949 1.12853 55.198 1.85277 51.7417 2.7509 48.3345 3.82066 44.9851 5.05939 41.7018 6.46399 38.4928 8.03094 35.3661 9.75633 32.3295 11.6359 29.3906 13.6648 26.5568 15.8381 23.8352 18.1504 21.2325 20.5958 18.7553 23.1682 16.4097 25.8612 14.2017 28.6681 12.1367 31.5819 10.2198 34.5952 8.456 37.7006 6.84955 40.8903 5.40452 44.1562 4.1245 47.4904 3.01271 50.8843 2.07192 54.3296 1.30448 57.8176 0.712306 61.3395 0.296885 64.8867 0.0592513 68.4502 0 72.0212 0.119279 75.5906 0.41679 79.1496 0.891789 82.6893 1.54309 86.2009 2.36906 89.6754 3.36765 93.1044 4.53634 96.4792 5.87223 99.7913 7.37197 103.033 9.03181 106.195 10.8476 109.27 12.8148 112.251 14.9285 115.129 17.1835 117.899 19.574 120.552 22.0941 123.082 24.7375 125.484 27.4977 127.75 30.3676 129.875 33.3401 131.854 36.4079 133.683 39.5632 135.355 42.7981 136.868 46.1046 138.217 49.4743 139.399 52.899 140.412 56.3699 141.251 59.8785 141.917 63.416 142.406 66.9734 142.718 70.542 142.851 74.1129 142.806 77.677 142.583 81.2254 142.181 84.7494 141.603 88.2401 140.85 91.6888 139.922 95.0868 138.824 98.4257 137.557 101.697 136.125 104.893 134.531 108.005 132.779 111.026 130.874 113.947 128.821 116.763 126.624 119.465 124.289 122.047 121.822 124.502 119.228 126.825 116.516 129.01 113.69 131.05 110.759 132.941 107.73 134.679 104.61 136.259 101.407 137.676 98.1289 138.928 94.7841 140.011 91.3809 140.923 87.9279 141.661 84.4336 142.224 80.9067 142.609 77.3562 142.817 73.7908" /><path class="svg-plot-fill svg-plot-f0 svg-plot-h0" d="M 142.856 128.569 142.767 124.999 142.5 121.438 142.054 117.894 141.433 114.377 140.636 110.896 139.666 107.459 138.526 104.074 137.218 100.751 135.745 97.4972 134.112 94.3212 132.322 91.2307 130.38 88.2336 128.291 85.3373 126.059 82.5491 123.691 79.8759 121.192 77.3244 118.569 74.9009 115.828 72.6117 112.976 70.4622 110.02 68.4581 106.968 66.6042 103.827 64.9051 100.605 63.3652 97.31 61.9882 93.9503 60.7777 90.5342 59.7366 87.0705 58.8676 83.5676 58.1728 80.0344 57.6539 76.4797 57.3123 72.9123 57.1488 69.3412 57.1638 65.7754 57.3573 62.2237 57.7288 58.6949 58.2774 55.198 59.0016 51.7417 59.8997 48.3345 60.9695 44.9851 62.2082 41.7018 63.6128 38.4928 65.1798 35.3661 66.9052 32.3295 68.7847 29.3906 70.8136 26.5568 72.987 23.8352 75.2992 21.2325 77.7446 18.7553 80.317 16.4097 83.01 14.2017 85.817 12.1367 88.7307 10.2198 91.7441 8.456 94.8494 6.84955 98.0391 5.40452 101.305 4.1245 104.639 3.01271 108.033 2.07192 111.478 1.30448 114.966 0.712306 118.488 0.296885 122.036 0.0592513 125.599 0 129.17 0.119279 132.739 0.41679 136.298 0.891789 139.838 1.54309 143.35 2.36906 146.824 3.36765 150.253 4.53634 153.628 5.87223 156.94 7.37197 160.181 9.03181 163.344 10.8476 166.419 12.8148 169.4 14.9285 172.278 17.1835 175.048 19.574 177.701 22.0941 180.231 24.7375 182.632 27.4977 184.899 30.3676 187.024 33.3401 189.003 36.4079 190.831 39.5632 192.504 42.7981 194.017 46.1046 195.366 49.4743 196.548 52.899 197.56 56.3699 198.4 59.8785 199.066 63.416 199.555 66.9734 199.866 70.542 200 74.1129 199.955 77.677 199.731 81.2254 199.33 84.7494 198.752 88.2401 197.998 91.6888 197.071 95.0868 195.973 98.4257 194.706 101.697 193.274 104.893 191.68 108.005 189.928 111.026 188.023 113.947 185.97 116.763 183.773 119.465 181.438 122.047 178.97 124.502 176.377 126.825 173.665 129.01 170.839 131.05 167.908 132.941 164.879 134.679 161.759 136.259 158.556 137.676 155.278 138.928 151.933 140.011 148.53 140.923 145.077 141.661 141.582 142.224 138.056 142.609 134.505 142.817 130.94" /></g><g><text class="svg-plot-label svg-plot-f3" x="157.142" y="157.144">D</text><text class="svg-plot-label svg-plot-f2" x="157.142" y="42.8462">C</text><text class="svg-plot-label svg-plot-f1" x="42.8552" y="42.8462">B</text><text class="svg-plot-label svg-plot-f0" x="42.8552" y="157.144">A</text></g><defs><mask id="svg-plot-hatch1"><rect x="-290" y="-290" width="580" height="580" fill="url(#svg-plot-hatch1-pattern)" style="transform:rotate(-50deg)"/></mask><pattern id="svg-plot-hatch1-pattern" class="svg-plot-hatch" x="0" y="0" width="10" height="3" patternUnits="userSpaceOnUse" stroke="#FFF" fill="none">
				<line x1="-1" y1="1.5" x2="11" y2="1.5" />
			</pattern><mask id="svg-plot-hatch2"><rect x="-290" y="-290" width="580" height="580" fill="url(#svg-plot-hatch2-pattern)" style="transform:rotate(30deg)"/></mask><pattern id="svg-plot-hatch2-pattern" class="svg-plot-hatch" x="0" y="0" width="10" height="2.4" patternUnits="userSpaceOnUse" stroke="#FFF" fill="none">
				<line x1="-1" y1="1.2" x2="11" y2="1.2" />
			</pattern><mask id="svg-plot-hatch3"><rect x="-290" y="-290" width="580" height="580" fill="url(#svg-plot-hatch3-pattern)" style="transform:rotate(8deg)"/><rect x="-290" y="-290" width="580" height="580" fill="url(#svg-plot-hatch3-pattern)" style="transform:rotate(93deg)"/></mask><pattern id="svg-plot-hatch3-pattern" class="svg-plot-hatch" x="0" y="0" width="10" height="3" patternUnits="userSpaceOnUse" stroke="#FFF" fill="none">
				<line x1="-1" y1="1.5" x2="11" y2="1.5" />
			</pattern></defs><style>.svg-plot{stroke-linecap:butt;}.svg-plot-bg{fill:none;stroke:none;}.svg-plot-axis{stroke:none;fill:rgba(255,255,255,0.85);}.svg-plot-line{stroke:blue;fill:none;stroke-width:1.5px;stroke-linejoin:round;}.svg-plot-fill{stroke:none;opacity:0.25;}.svg-plot-major{stroke:#000;stroke-width:1px;stroke-linecap:square;fill:none;}.svg-plot-minor{stroke:rgba(0,0,0,0.3);stroke-width:0.5px;stroke-dasharray:0.5 1.5;stroke-linecap:round;fill:none;}.svg-plot-tick{stroke:#000;fill:none;stroke-width:1px;stroke-linecap:butt;}.svg-plot-value,.svg-plot-label{font-family:Arial,sans-serif;fill:#000;stroke:rgba(255,255,255,0.7);stroke-width:2px;paint-order:stroke fill;text-anchor:middle;dominant-baseline:central;alignment-baseline:baseline;}.svg-plot-label{font-size:12px;}.svg-plot-value{font-size:10px;}.svg-plot-hatch{stroke:#FFF;stroke-width:1px;}.svg-plot-s0{stroke:#0073E6}.svg-plot-f0,.svg-plot-t0{fill:#0073E6}.svg-plot-s1{stroke:#CC0000}.svg-plot-f1,.svg-plot-t1{fill:#CC0000}.svg-plot-s2{stroke:#00B300}.svg-plot-f2,.svg-plot-t2{fill:#00B300}.svg-plot-s3{stroke:#806600}.svg-plot-f3,.svg-plot-t3{fill:#806600}.svg-plot-s4{stroke:#E69900}.svg-plot-f4,.svg-plot-t4{fill:#E69900}.svg-plot-s5{stroke:#CC00CC}.svg-plot-f5,.svg-plot-t5{fill:#CC00CC}.svg-plot-d0{stroke-width:1.35px}.svg-plot-d1{stroke-dasharray:1.8 1.8}.svg-plot-d2{stroke-dasharray:4.2 2.4}.svg-plot-d3{stroke-dasharray:7.5 6}.svg-plot-d4{stroke-dasharray:6 1.5 1.5 1.5 1.5 1.5}.svg-plot-d5{stroke-dasharray:15 4.5}.svg-plot-d6{stroke-dasharray:6 3 1.5 3}.svg-plot-h0{opacity:0.144338}.svg-plot-h1{mask:url(#svg-plot-hatch1)}.svg-plot-h2{mask:url(#svg-plot-hatch2)}.svg-plot-h3{mask:url(#svg-plot-hatch3)}#svg-plot-hatch2-pattern{stroke-width:0.9px}#svg-plot-hatch3-pattern{stroke-width:0.7px}</style><script>var q={};location.href.replace(/^[^#]*#?/,'').split('\x26').forEach(function(p,D){D=decodeURIComponent;if(p){p=p.split('=');q[D(p.shift())]=D(p.join('='))}});var d=document,r=d.rootElement,s=d.getElementsByTagName('style')[0];if(q.style){s.textContent='@import "'+q.style+'";'+s.textContent}if(q.css){s.textContent+=q.css}</script></svg>