<?xml version="1.0" encoding="utf-8" standalone="no"?>
<!DOCTYPE svg PUBLIC "-//W3C//DTD SVG 1.1//EN" "http://www.w3.org/Graphics/SVG/1.1/DTD/svg11.dtd">
<svg version="1.1" class="svg-plot" xmlns="http://www.w3.org/2000/svg" width="228pt" height="239.4pt" viewBox="-14 -15 228 239.4" preserveAspectRatio="xMidYMid"><rect x="-4" y="-5" width="208" height="219.4" class="svg-plot-bg"/><rect x="0" y="0" width="200" height="200" class="svg-plot-axis"/><clipPath id="clip984943658"><rect x="-0.75" y="-0.75" width="201.5" height="201.5"/></clipPath><g clip-path="url(#clip984943658)"><path class="svg-plot-line svg-plot-s4 svg-plot-d0" d="M 200 99.9892 199.875 94.9907 199.5 90.0048 198.877 85.0438 198.007 80.1201 196.891 75.2461 195.534 70.434 193.937 65.6957 192.106 61.0431 190.045 56.4879 187.758 52.0414 185.252 47.7148 182.533 43.5188 179.608 39.464 176.484 35.5605 173.168 31.8179 169.67 28.2458 165.998 24.853 162.16 21.648 158.168 18.6388 154.029 15.833 149.756 13.2375 145.359 10.8588 140.848 8.70292 136.235 6.7752 131.531 5.08046 126.749 3.62295 121.899 2.4063 116.995 1.43356 112.049 0.707154 107.072 0.228903 102.078 0 97.0782 0.0210184 92.086 0.291905 87.1136 0.811983 82.1733 1.57995 77.2776 2.59389 72.4387 3.85127 67.6687 5.34895 62.9795 7.08317 58.3828 9.04961 53.8901 11.2434 49.5127 13.6589 45.2615 16.2903 41.1471 19.1308 37.1798 22.1735 33.3695 25.4106 29.7257 28.8342 26.2576 32.4356 22.9737 36.2058 19.8825 40.1355 16.9914 44.2148 14.3078 48.4335 11.8385 52.781 9.58942 57.2466 7.56636 61.819 5.77433 66.4867 4.21782 71.2383 2.9007 76.0617 1.82628 80.9449 0.997234 85.8757 0.415641 90.8417 0.0829523 95.8307 0 100.83 0.166991 105.827 0.583509 110.81 1.24851 115.765 2.16034 120.682 3.31671 125.546 4.71473 130.347 6.35091 135.071 8.22116 139.708 10.3208 144.246 12.6446 148.673 15.1867 152.979 17.9408 157.151 20.9001 161.182 24.057 165.059 27.4037 168.773 30.9319 172.316 34.6327 175.678 38.4969 178.85 42.5148 181.826 46.6764 184.597 50.9713 187.156 55.3887 189.498 59.9176 191.616 64.5467 193.505 69.2644 195.16 74.0589 196.577 78.9183 197.753 83.8303 198.684 88.7828 199.369 93.7633 199.805 98.7593 199.992 103.759 199.929 108.748 199.616 113.716 199.055 118.65 198.245 123.537 197.19 128.365 195.892 133.122 194.354 137.797 192.581 142.377 190.576 146.851 188.344 151.208 185.892 155.437 183.225 159.527 180.35 163.469 177.274 167.252 174.005 170.866 170.551 174.304 166.92 177.556 163.123 180.614 159.167 183.471 155.064 186.119 150.823 188.552 146.454 190.763 141.97 192.748 137.381 194.5 132.698 196.017 127.934 197.293 123.099 198.327 118.207 199.114 113.27 199.654 108.299 199.945 103.307 199.986 98.3076"/><path class="svg-plot-fill svg-plot-f3 svg-plot-h3" d="M 187.5 124.992 187.422 121.868 187.188 118.752 186.798 115.651 186.254 112.574 185.557 109.527 184.708 106.52 183.711 103.558 182.566 100.651 181.278 97.8036 179.849 95.0246 178.282 92.3204 176.583 89.6979 174.755 87.1637 172.802 84.7239 170.73 82.3849 168.544 80.1523 166.248 78.0318 163.85 76.0287 161.355 74.1479 158.768 72.3943 156.097 70.7721 153.349 69.2854 150.53 67.938 147.646 66.7331 144.707 65.6739 141.718 64.763 138.687 64.0026 135.622 63.3946 132.53 62.9406 129.42 62.6417 126.298 62.4986 123.174 62.5118 120.054 62.6811 116.946 63.0061 113.858 63.4861 110.798 64.1198 107.774 64.9057 104.793 65.8417 101.862 66.9256 98.989 68.1547 96.1811 69.5257 93.4452 71.0355 90.7882 72.6801 88.2167 74.4554 85.7371 76.3571 83.3557 78.3803 81.0783 80.52 78.9108 82.7709 76.8584 85.1273 74.9263 87.5833 73.1194 90.1329 71.4422 92.7696 69.8988 95.4868 68.4932 98.2778 67.2288 101.135 66.1087 104.053 65.1359 107.023 64.3127 110.037 63.6412 113.089 63.1231 116.171 62.7596 119.275 62.5516 122.393 62.4998 125.517 62.6041 128.641 62.8645 131.755 63.2801 134.852 63.85 137.925 64.5727 140.965 65.4465 143.965 66.4691 146.918 67.638 149.816 68.9503 152.652 70.4027 155.419 71.9915 158.11 73.7128 160.718 75.5623 163.237 77.5354 165.66 79.6271 167.982 81.8322 170.196 84.1452 172.297 86.5603 174.28 89.0715 176.14 91.6725 177.872 94.3568 179.471 97.1177 180.935 99.9483 182.258 102.841 183.439 105.79 184.473 108.787 185.359 111.824 186.094 114.894 186.676 117.989 187.104 121.102 187.377 124.224 187.494 127.349 187.454 130.467 187.259 133.572 186.908 136.656 186.402 139.71 185.742 142.728 184.931 145.701 183.97 148.623 182.862 151.485 181.608 154.281 180.214 157.005 178.681 159.648 177.014 162.204 175.217 164.668 173.295 167.032 171.252 169.291 169.093 171.44 166.824 173.472 164.45 175.384 161.978 177.169 159.413 178.824 156.763 180.345 154.033 181.727 151.23 182.967 148.362 184.063 145.435 185.01 142.457 185.808 139.436 186.454 136.378 186.946 133.292 187.284 130.186 187.465 127.066 187.491 123.941"/><path class="svg-plot-fill svg-plot-f2 svg-plot-h2" d="M 187.5 74.9865 187.422 71.8624 187.188 68.7462 186.798 65.6456 186.254 62.5683 185.557 59.5221 184.708 56.5145 183.711 53.5531 182.566 50.6452 181.278 47.7982 179.849 45.0191 178.282 42.315 176.583 39.6925 174.755 37.1582 172.802 34.7185 170.73 32.3795 168.544 30.1469 166.248 28.0264 163.85 26.0233 161.355 24.1425 158.768 22.3889 156.097 20.7667 153.349 19.28 150.53 17.9326 147.646 16.7277 144.707 15.6685 141.718 14.7576 138.687 13.9972 135.622 13.3892 132.53 12.9352 129.42 12.6363 126.298 12.4932 123.174 12.5064 120.054 12.6757 116.946 13.0007 113.858 13.4807 110.798 14.1144 107.774 14.9003 104.793 15.8363 101.862 16.9202 98.989 18.1492 96.1811 19.5203 93.4452 21.0301 90.7882 22.6747 88.2167 24.45 85.7371 26.3517 83.3557 28.3749 81.0783 30.5146 78.9108 32.7655 76.8584 35.1219 74.9263 37.5779 73.1194 40.1275 71.4422 42.7642 69.8988 45.4814 68.4932 48.2724 67.2288 51.1301 66.1087 54.0475 65.1359 57.0172 64.3127 60.0318 63.6412 63.0838 63.1231 66.1655 62.7596 69.2693 62.5516 72.3874 62.4998 75.512 62.6041 78.6353 62.8645 81.7494 63.2801 84.8467 63.85 87.9193 64.5727 90.9595 65.4465 93.9599 66.4691 96.9128 67.638 99.8109 68.9503 102.647 70.4027 105.414 71.9915 108.105 73.7128 110.713 75.5623 113.232 77.5354 115.655 79.6271 117.977 81.8322 120.191 84.1452 122.292 86.5603 124.275 89.0715 126.134 91.6725 127.866 94.3568 129.466 97.1177 130.929 99.9483 132.253 102.841 133.434 105.79 134.468 108.787 135.354 111.824 136.089 114.894 136.671 117.989 137.099 121.102 137.372 124.224 137.488 127.349 137.449 130.467 137.254 133.572 136.902 136.656 136.396 139.71 135.737 142.728 134.926 145.701 133.965 148.623 132.856 151.485 131.603 154.281 130.208 157.005 128.676 159.648 127.009 162.204 125.212 164.668 123.289 167.032 121.246 169.291 119.088 171.44 116.818 173.472 114.445 175.384 111.973 177.169 109.408 178.824 106.757 180.345 104.027 181.727 101.225 182.967 98.3563 184.063 95.4296 185.01 92.4518 185.808 89.4304 186.454 86.3729 186.946 83.2869 187.284 80.1801 187.465 77.0604 187.491 73.9355"/><path class="svg-plot-fill svg-plot-f1 svg-plot-h1" d="M 137.499 74.9865 137.421 71.8624 137.187 68.7462 136.797 65.6456 136.253 62.5683 135.556 59.5221 134.707 56.5145 133.71 53.5531 132.565 50.6452 131.277 47.7982 129.848 45.0191 128.282 42.315 126.582 39.6925 124.754 37.1582 122.801 34.7185 120.729 32.3795 118.543 30.1469 116.247 28.0264 113.849 26.0233 111.354 24.1425 108.767 22.3889 106.097 20.7667 103.348 19.28 100.529 17.9326 97.6456 16.7277 94.7058 15.6685 91.7168 14.7576 88.686 13.9972 85.6209 13.3892 82.5293 12.9352 79.4189 12.6363 76.2975 12.4932 73.1728 12.5064 70.0526 12.6757 66.9449 13.0007 63.8572 13.4807 60.7974 14.1144 57.7731 14.9003 54.7918 15.8363 51.8611 16.9202 48.9882 18.1492 46.1802 19.5203 43.4444 21.0301 40.7873 22.6747 38.2158 24.45 35.7362 26.3517 33.3548 28.3749 31.0774 30.5146 28.9099 32.7655 26.8575 35.1219 24.9254 37.5779 23.1185 40.1275 21.4413 42.7642 19.8979 45.4814 18.4923 48.2724 17.2279 51.1301 16.1079 54.0475 15.135 57.0172 14.3118 60.0318 13.6403 63.0838 13.1222 66.1655 12.7587 69.2693 12.5507 72.3874 12.4989 75.512 12.6033 78.6353 12.8636 81.7494 13.2792 84.8467 13.8491 87.9193 14.5718 90.9595 15.4456 93.9599 16.4682 96.9128 17.6371 99.8109 18.9494 102.647 20.4018 105.414 21.9906 108.105 23.7119 110.713 25.5614 113.232 27.5345 115.655 29.6262 117.977 31.8313 120.191 34.1443 122.292 36.5595 124.275 39.0707 126.134 41.6717 127.866 44.3559 129.466 47.1168 130.929 49.9474 132.253 52.8406 133.434 55.7891 134.468 58.7857 135.354 61.8228 136.089 64.8928 136.671 67.9881 137.099 71.1009 137.372 74.2235 137.488 77.348 137.449 80.4666 137.254 83.5715 136.902 86.655 136.396 89.7094 135.737 92.727 134.926 95.7003 133.965 98.6218 132.856 101.484 131.603 104.281 130.208 107.004 128.676 109.647 127.009 112.203 125.212 114.667 123.289 117.031 121.246 119.29 119.088 121.439 116.818 123.472 114.445 125.383 111.973 127.168 109.408 128.823 106.757 130.344 104.027 131.726 101.225 132.966 98.3563 134.062 95.4296 135.009 92.4518 135.807 89.4304 136.453 86.3729 136.945 83.2869 137.283 80.1801 137.464 77.0604 137.49 73.9355"/><path class="svg-plot-fill svg-plot-f0 svg-plot-h0" d="M 137.499 124.992 137.421 121.868 137.187 118.752 136.797 115.651 136.253 112.574 135.556 109.527 134.707 106.52 133.71 103.558 132.565 100.651 131.277 97.8036 129.848 95.0246 128.282 92.3204 126.582 89.6979 124.754 87.1637 122.801 84.7239 120.729 82.3849 118.543 80.1523 116.247 78.0318 113.849 76.0287 111.354 74.1479 108.767 72.3943 106.097 70.7721 103.348 69.2854 100.529 67.938 97.6456 66.7331 94.7058 65.6739 91.7168 64.763 88.686 64.0026 85.6209 63.3946 82.5293 62.9406 79.4189 62.6417 76.2975 62.4986 73.1728 62.5118 70.0526 62.6811 66.9449 63.0061 63.8572 63.4861 60.7974 64.1198 57.7731 64.9057 54.7918 65.8417 51.8611 66.9256 48.9882 68.1547 46.1802 69.5257 43.4444 71.0355 40.7873 72.6801 38.2158 74.4554 35.7362 76.3571 33.3548 78.3803 31.0774 80.52 28.9099 82.7709 26.8575 85.1273 24.9254 87.5833 23.1185 90.1329 21.4413 92.7696 19.8979 95.4868 18.4923 98.2778 17.2279 101.135 16.1079 104.053 15.135 107.023 14.3118 110.037 13.6403 113.089 13.1222 116.171 12.7587 119.275 12.5507 122.393 12.4989 125.517 12.6033 128.641 12.8636 131.755 13.2792 134.852 13.8491 137.925 14.5718 140.965 15.4456 143.965 16.4682 146.918 17.6371 149.816 18.9494 152.652 20.4018 155.419 21.9906 158.11 23.7119 160.718 25.5614 163.237 27.5345 165.66 29.6262 167.982 31.8313 170.196 34.1443 172.297 36.5595 174.28 39.0707 176.14 41.6717 177.872 44.3559 179.471 47.1168 180.935 49.9474 182.258 52.8406 183.439 55.7891 184.473 58.7857 185.359 61.8228 186.094 64.8928 186.676 67.9881 187.104 71.1009 187.377 74.2235 187.494 77.348 187.454 80.4666 187.259 83.5715 186.908 86.655 186.402 89.7094 185.742 92.727 184.931 95.7003 183.97 98.6218 182.862 101.484 181.608 104.281 180.214 107.004 178.681 109.647 177.014 112.203 175.217 114.667 173.295 117.031 171.252 119.29 169.093 121.439 166.824 123.472 164.45 125.383 161.978 127.168 159.413 128.823 156.763 130.344 154.033 131.726 151.23 132.966 148.362 134.062 145.435 135.009 142.457 135.807 139.436 136.453 136.378 136.945 133.292 137.283 130.186 137.464 127.066 137.49 123.941"/></g><g><text class="svg-plot-label svg-plot-t4" x="99.9982" y="208.4">outer boundary</text><text class="svg-plot-label svg-plot-t3" x="149.999" y="149.995">D</text><text class="svg-plot-label svg-plot-t2" x="149.999" y="49.9838">C</text><text class="svg-plot-label svg-plot-t1" x="49.9973" y="49.9838">B</text><text class="svg-plot-label svg-plot-t0" x="49.9973" y="149.995">A</text></g><defs><mask id="svg-plot-hatch1"><rect x="-304" y="-304" width="608" height="608" fill="url(#svg-plot-hatch1-pattern)" style="transform:rotate(-50deg)"/></mask><pattern patternUnits="userSpaceOnUse" id="svg-plot-hatch1-pattern" class="svg-plot-hatch" x="0" y="0" width="10" height="3" stroke="#FFF" fill="none"><line x1="-1" x2="11" y1="1.5" y2="1.5"/></pattern><mask id="svg-plot-hatch2"><rect x="-304" y="-304" width="608" height="608" fill="url(#svg-plot-hatch2-pattern)" style="transform:rotate(30deg)"/></mask><pattern patternUnits="userSpaceOnUse" id="svg-plot-hatch2-pattern" class="svg-plot-hatch" x="0" y="0" width="10" height="2.4" stroke="#FFF" fill="none"><line x1="-1" x2="11" y1="1.2" y2="1.2"/></pattern><mask id="svg-plot-hatch3"><rect x="-304" y="-304" width="608" height="608" fill="url(#svg-plot-hatch3-pattern)" style="transform:rotate(8deg)"/><rect x="-304" y="-304" width="608" height="608" fill="url(#svg-plot-hatch3-pattern)" style="transform:rotate(93deg)"/></mask><pattern patternUnits="userSpaceOnUse" id="svg-plot-hatch3-pattern" class="svg-plot-hatch" x="0" y="0" width="10" height="3" stroke="#FFF" fill="none"><line x1="-1" x2="11" y1="1.5" y2="1.5"/></pattern></defs><style>.svg-plot{stroke-linecap:butt;}.svg-plot-bg{fill:none;stroke:none;}.svg-plot-axis{stroke:none;fill:rgba(255,255,255,0.85);}.svg-plot-line{stroke:blue;fill:none;stroke-width:1.5px;stroke-linejoin:round;}.svg-plot-fill{stroke:none;opacity:0.25;}.svg-plot-major{stroke:#000;stroke-width:1px;stroke-linecap:square;fill:none;}.svg-plot-minor{stroke:rgba(0,0,0,0.3);stroke-width:0.5px;stroke-dasharray:0.5 1.5;stroke-linecap:round;fill:none;}.svg-plot-tick{stroke:#000;fill:none;stroke-width:1px;stroke-linecap:butt;}.svg-plot-value,.svg-plot-label{font-family:Arial,sans-serif;fill:#000;stroke:rgba(255,255,255,0.7);stroke-width:2px;paint-order:stroke fill;text-anchor:middle;dominant-baseline:central;alignment-baseline:baseline;}.svg-plot-label{font-size:12px;}.svg-plot-value{font-size:10px;}.svg-plot-hatch{stroke:#FFF;stroke-width:1px;}.svg-plot-s0{stroke:#0073E6}.svg-plot-f0,.svg-plot-t0{fill:#0073E6}.svg-plot-s1{stroke:#CC0000}.svg-plot-f1,.svg-plot-t1{fill:#CC0000}.svg-plot-s2{stroke:#00B300}.svg-plot-f2,.svg-plot-t2{fill:#00B300}.svg-plot-s3{stroke:#806600}.svg-plot-f3,.svg-plot-t3{fill:#806600}.svg-plot-s4{stroke:#E69900}.svg-plot-f4,.svg-plot-t4{fill:#E69900}.svg-plot-s5{stroke:#CC00CC}.svg-plot-f5,.svg-plot-t5{fill:#CC00CC}.svg-plot-d0{stroke-width:1.35px}.svg-plot-d1{stroke-dasharray:1.8 1.8}.svg-plot-d2{stroke-dasharray:4.2 2.4}.svg-plot-d3{stroke-dasharray:7.5 6}.svg-plot-d4{stroke-dasharray:6 1.5 1.5 1.5 1.5 1.5}.svg-plot-d5{stroke-dasharray:15 4.5}.svg-plot-d6{stroke-dasharray:6 3 1.5 3}.svg-plot-h0{opacity:0.144338}.svg-plot-h1{mask:url(#svg-plot-hatch1)}.svg-plot-h2{mask:url(#svg-plot-hatch2)}.svg-plot-h3{mask:url(#svg-plot-hatch3)}#svg-plot-hatch2-pattern{stroke-width:0.9px}#svg-plot-hatch3-pattern{stroke-width:0.7px}</style></svg>