<?xml version="1.0" encoding="utf-8" standalone="no"?>
<!DOCTYPE svg PUBLIC "-//W3C//DTD SVG 1.1//EN" "http://www.w3.org/Graphics/SVG/1.1/DTD/svg11.dtd">
<svg version="1.1" class="svg-plot" xmlns="http://www.w3.org/2000/svg" width="187.1pt" height="193pt" viewBox="-10 -10 187.1 193" preserveAspectRatio="xMidYMid"><rect x="-10" y="-10" width="187.1" height="193" class="svg-plot-bg"/><g transform="translate(52 54)"><g class="svg-plot-group"><rect x="0" y="0" width="100" height="100" class="svg-plot-axis"/><line x1="0" x2="0" y1="0" y2="100" class="svg-plot-minor"/><line x1="50" x2="50" y1="0" y2="100" class="svg-plot-minor"/><line x1="100" x2="100" y1="0" y2="100" class="svg-plot-minor"/><line x1="0" x2="100" y1="100" y2="100" class="svg-plot-minor"/><line x1="0" x2="100" y1="50" y2="50" class="svg-plot-minor"/><line x1="0" x2="100" y1="0" y2="0" class="svg-plot-minor"/><clipPath id="clip0"><rect x="-0.75" y="-0.75" width="101.5" height="101.5"/></clipPath><g clip-path="url(#clip0)"><path class="svg-plot-line svg-plot-s0 svg-plot-d0" d="M 100 50 99.98 48.59 99.92 47.17 99.82 45.76 99.68 44.35 99.5 42.95 99.28 41.55 99.02 40.16 98.72 38.78 98.39 37.4 98.01 36.04 97.6 34.69 97.14 33.34 96.65 32.02 96.13 30.7 95.56 29.41 94.96 28.13 94.32 26.86 93.65 25.62 92.94 24.39 92.2 23.19 91.43 22 90.62 20.84 89.78 19.7 88.9 18.59 88 17.5 87.06 16.44 86.1 15.41 85.11 14.4 84.09 13.42 83.04 12.47 81.96 11.55 80.86 10.66 79.74 9.8 78.59 8.98 77.41 8.18 76.22 7.43 75 6.7 73.77 6.01 72.51 5.36 71.24 4.74 69.95 4.15 68.65 3.61 67.33 3.1 65.99 2.63 64.65 2.19 63.29 1.8 61.92 1.44 60.54 1.12 59.15 0.84 57.76 0.61 56.36 0.41 54.95 0.25 53.54 0.13 52.13 0.05 50.71 0.01 49.3 0 47.89 0.04 46.47 0.12 45.06 0.24 43.66 0.4 42.26 0.6 40.86 0.84 39.47 1.12 38.1 1.44 36.73 1.79 35.37 2.19 34.02 2.62 32.69 3.09 31.37 3.6 30.06 4.15 28.77 4.73 27.5 5.35 26.24 6 25.01 6.69 23.79 7.42 22.6 8.18 21.43 8.97 20.28 9.79 19.15 10.65 18.05 11.54 16.97 12.46 15.93 13.41 14.9 14.39 13.91 15.4 12.95 16.43 12.01 17.49 11.11 18.58 10.23 19.69 9.39 20.83 8.58 21.99 7.81 23.17 7.06 24.38 6.36 25.6 5.68 26.85 5.05 28.11 4.44 29.39 3.88 30.69 3.35 32 2.86 33.33 2.41 34.67 1.99 36.02 1.62 37.39 1.28 38.76 0.98 40.15 0.72 41.54 0.5 42.93 0.32 44.34 0.18 45.75 0.08 47.16 0.02 48.57 0 49.99 0.02 51.4 0.08 52.81 0.18 54.23 0.32 55.63 0.5 57.04 0.72 58.43 0.98 59.83 1.27 61.21 1.61 62.58 1.98 63.95 2.4 65.3 2.85 66.64 3.34 67.97 3.87 69.28 4.43 70.58 5.03 71.86 5.67 73.12 6.34 74.37 7.05 75.6 7.79 76.8 8.56 77.98 9.37 79.15 10.21 80.28 11.09 81.4 11.99 82.49 12.93 83.55 13.89 84.58 14.88 85.59 15.9 86.57 16.95 87.52 18.03 88.44 19.13 89.33 20.25 90.19 21.4 91.01 22.57 91.81 23.77 92.57 24.98 93.29 26.22 93.98 27.47 94.64 28.74 95.26 30.03 95.84 31.34 96.39 32.66 96.9 33.99 97.37 35.34 97.8 36.7 98.2 38.07 98.56 39.45 98.87 40.83 99.15 42.23 99.39 43.63 99.59 45.03 99.75 46.44 99.87 47.86 99.95 49.27 99.99 50.69 100 52.1 99.96 53.51 99.88 54.92 99.76 56.33 99.6 57.73 99.4 59.12 99.16 60.51 98.88 61.89 98.57 63.26 98.21 64.62 97.82 65.97 97.38 67.3 96.91 68.62 96.4 69.93 95.86 71.22 95.28 72.49 94.66 73.74 94 74.98 93.31 76.19 92.59 77.39 91.83 78.56 91.04 79.71 90.21 80.84 89.36 81.94 88.47 83.01 87.55 84.06 86.6 85.09 85.62 86.08 84.62 87.05 83.58 87.98 82.52 88.89 81.43 89.76 80.32 90.6 79.18 91.41 78.02 92.19 76.84 92.93 75.63 93.64 74.41 94.31 73.16 94.95 71.9 95.55 70.62 96.12 69.32 96.64 68.01 97.13 66.68 97.59 65.34 98 63.99 98.38 62.63 98.72 61.25 99.02 59.87 99.28 58.48 99.5 57.08 99.68 55.68 99.82 54.27 99.92 52.86 99.98 51.44 100 50.03 99.98 48.61 99.92 47.2 99.82 45.79 99.68 44.38 99.5 42.98 99.29 41.58 99.03 40.19 98.73 38.8 98.39 37.43 98.02 36.07 97.61 34.71 97.55 34.55"/></g></g></g><g transform="translate(52 5)"><g class="svg-plot-group"><rect x="0" y="0" width="100" height="30" class="svg-plot-axis"/><line x1="0" x2="0" y1="0" y2="30" class="svg-plot-minor"/><line x1="50" x2="50" y1="0" y2="30" class="svg-plot-minor"/><line x1="100" x2="100" y1="0" y2="30" class="svg-plot-minor"/><line x1="0" x2="100" y1="30" y2="30" class="svg-plot-minor"/><line x1="0" x2="100" y1="0" y2="0" class="svg-plot-minor"/><clipPath id="clip1"><rect x="-0.75" y="-0.75" width="101.5" height="31.5"/></clipPath><g clip-path="url(#clip1)"><path class="svg-plot-fill svg-plot-f0 svg-plot-h0" d="M 0 30 0.02 29.15 0.08 28.3 0.18 27.46 0.32 26.61 0.5 25.76 0.72 24.92 0.99 24.07 1.29 23.23 1.64 22.38 2.03 21.54 2.46 20.7 2.94 19.86 3.46 19.03 4.03 18.2 4.64 17.38 5.3 16.56 6.01 15.74 6.76 14.94 7.56 14.14 8.41 13.34 9.31 12.57 10.26 11.8 11.25 11.04 12.3 10.3 13.39 9.57 14.53 8.85 15.72 8.16 16.96 7.48 18.24 6.83 19.57 6.19 20.95 5.58 22.37 5 23.83 4.44 25.33 3.91 26.87 3.4 28.44 2.93 30.06 2.49 31.7 2.08 33.38 1.71 35.09 1.37 36.81 1.06 38.56 0.8 40.34 0.57 42.12 0.37 43.93 0.22 45.74 0.11 47.56 0.04 49.38 0 51.2 0.01 53.02 0.05 54.84 0.14 56.65 0.27 58.45 0.43 60.23 0.63 62 0.88 63.75 1.16 65.47 1.47 67.17 1.82 68.84 2.21 70.48 2.63 72.08 3.08 73.65 3.57 75.17 4.08 76.67 4.62 78.12 5.19 79.52 5.79 80.89 6.41 82.2 7.05 83.48 7.72 84.7 8.4 85.87 9.1 87 9.82 88.08 10.56 89.11 11.31 90.09 12.07 91.02 12.85 91.91 13.64 92.74 14.43 93.53 15.24 94.27 16.05 94.96 16.87 95.6 17.69 96.2 18.52 96.75 19.36 97.25 20.19 97.72 21.03 98.13 21.87 98.5 22.72 98.83 23.56 99.12 24.41 99.37 25.26 99.58 26.1 99.74 26.95 99.87 27.8 99.95 28.65 99.99 29.5 100 30 0 30"/><path class="svg-plot-line svg-plot-s0 svg-plot-d0" d="M 0 30 0.02 29.15 0.08 28.3 0.18 27.46 0.32 26.61 0.5 25.76 0.72 24.92 0.99 24.07 1.29 23.23 1.64 22.38 2.03 21.54 2.46 20.7 2.94 19.86 3.46 19.03 4.03 18.2 4.64 17.38 5.3 16.56 6.01 15.74 6.76 14.94 7.56 14.14 8.41 13.34 9.31 12.57 10.26 11.8 11.25 11.04 12.3 10.3 13.39 9.57 14.53 8.85 15.72 8.16 16.96 7.48 18.24 6.83 19.57 6.19 20.95 5.58 22.37 5 23.83 4.44 25.33 3.91 26.87 3.4 28.44 2.93 30.06 2.49 31.7 2.08 33.38 1.71 35.09 1.37 36.81 1.06 38.56 0.8 40.34 0.57 42.12 0.37 43.93 0.22 45.74 0.11 47.56 0.04 49.38 0 51.2 0.01 53.02 0.05 54.84 0.14 56.65 0.27 58.45 0.43 60.23 0.63 62 0.88 63.75 1.16 65.47 1.47 67.17 1.82 68.84 2.21 70.48 2.63 72.08 3.08 73.65 3.57 75.17 4.08 76.67 4.62 78.12 5.19 79.52 5.79 80.89 6.41 82.2 7.05 83.48 7.72 84.7 8.4 85.87 9.1 87 9.82 88.08 10.56 89.11 11.31 90.09 12.07 91.02 12.85 91.91 13.64 92.74 14.43 93.53 15.24 94.27 16.05 94.96 16.87 95.6 17.69 96.2 18.52 96.75 19.36 97.25 20.19 97.72 21.03 98.13 21.87 98.5 22.72 98.83 23.56 99.12 24.41 99.37 25.26 99.58 26.1 99.74 26.95 99.87 27.8 99.95 28.65 99.99 29.5 100 30"/></g></g></g><g transform="translate(4 54)"><g class="svg-plot-group"><rect x="0" y="0" width="30" height="100" class="svg-plot-axis"/><line x1="30" x2="30" y1="0" y2="100" class="svg-plot-minor"/><line x1="0" x2="0" y1="0" y2="100" class="svg-plot-minor"/><line x1="0" x2="30" y1="100" y2="100" class="svg-plot-minor"/><line x1="0" x2="30" y1="50" y2="50" class="svg-plot-minor"/><line x1="0" x2="30" y1="0" y2="0" class="svg-plot-minor"/><clipPath id="clip2"><rect x="-0.75" y="-0.75" width="31.5" height="101.5"/></clipPath><g clip-path="url(#clip2)"><path class="svg-plot-fill svg-plot-f0 svg-plot-h0" d="M 30 100 29.15 99.98 28.3 99.92 27.46 99.82 26.61 99.68 25.76 99.5 24.92 99.28 24.07 99.01 23.23 98.71 22.38 98.36 21.54 97.97 20.7 97.54 19.86 97.06 19.03 96.54 18.2 95.97 17.38 95.36 16.56 94.7 15.74 93.99 14.94 93.24 14.14 92.44 13.34 91.59 12.57 90.69 11.8 89.74 11.04 88.75 10.3 87.7 9.57 86.61 8.85 85.47 8.16 84.28 7.48 83.04 6.83 81.76 6.19 80.43 5.58 79.05 5 77.63 4.44 76.17 3.91 74.67 3.4 73.13 2.93 71.56 2.49 69.94 2.08 68.3 1.71 66.62 1.37 64.91 1.06 63.19 0.8 61.44 0.57 59.66 0.37 57.88 0.22 56.07 0.11 54.26 0.04 52.44 0 50.62 0.01 48.8 0.05 46.98 0.14 45.16 0.27 43.35 0.43 41.55 0.63 39.77 0.88 38 1.16 36.25 1.47 34.53 1.82 32.83 2.21 31.16 2.63 29.52 3.08 27.92 3.57 26.35 4.08 24.83 4.62 23.33 5.19 21.88 5.79 20.48 6.41 19.11 7.05 17.8 7.72 16.52 8.4 15.3 9.1 14.13 9.82 13 10.56 11.92 11.31 10.89 12.07 9.91 12.85 8.98 13.64 8.09 14.43 7.26 15.24 6.47 16.05 5.73 16.87 5.04 17.69 4.4 18.52 3.8 19.36 3.25 20.19 2.75 21.03 2.28 21.87 1.87 22.72 1.5 23.56 1.17 24.41 0.88 25.26 0.63 26.1 0.42 26.95 0.26 27.8 0.13 28.65 0.05 29.5 0.01 30 0 30 100"/><path class="svg-plot-line svg-plot-s0 svg-plot-d0" d="M 30 100 29.15 99.98 28.3 99.92 27.46 99.82 26.61 99.68 25.76 99.5 24.92 99.28 24.07 99.01 23.23 98.71 22.38 98.36 21.54 97.97 20.7 97.54 19.86 97.06 19.03 96.54 18.2 95.97 17.38 95.36 16.56 94.7 15.74 93.99 14.94 93.24 14.14 92.44 13.34 91.59 12.57 90.69 11.8 89.74 11.04 88.75 10.3 87.7 9.57 86.61 8.85 85.47 8.16 84.28 7.48 83.04 6.83 81.76 6.19 80.43 5.58 79.05 5 77.63 4.44 76.17 3.91 74.67 3.4 73.13 2.93 71.56 2.49 69.94 2.08 68.3 1.71 66.62 1.37 64.91 1.06 63.19 0.8 61.44 0.57 59.66 0.37 57.88 0.22 56.07 0.11 54.26 0.04 52.44 0 50.62 0.01 48.8 0.05 46.98 0.14 45.16 0.27 43.35 0.43 41.55 0.63 39.77 0.88 38 1.16 36.25 1.47 34.53 1.82 32.83 2.21 31.16 2.63 29.52 3.08 27.92 3.57 26.35 4.08 24.83 4.62 23.33 5.19 21.88 5.79 20.48 6.41 19.11 7.05 17.8 7.72 16.52 8.4 15.3 9.1 14.13 9.82 13 10.56 11.92 11.31 10.89 12.07 9.91 12.85 8.98 13.64 8.09 14.43 7.26 15.24 6.47 16.05 5.73 16.87 5.04 17.69 4.4 18.52 3.8 19.36 3.25 20.19 2.75 21.03 2.28 21.87 1.87 22.72 1.5 23.56 1.17 24.41 0.88 25.26 0.63 26.1 0.42 26.95 0.26 27.8 0.13 28.65 0.05 29.5 0.01 30 0"/></g></g></g><g transform="translate(52 54)"><g class="svg-plot-group"></g></g><g transform="translate(52 5)"><g class="svg-plot-group"><line x1="100" x2="104" y1="30" y2="30" class="svg-plot-tick"/><line x1="100" x2="104" y1="0" y2="0" class="svg-plot-tick"/><text class="svg-plot-value" style="text-anchor:start" x="109" y="-1">1</text><text class="svg-plot-value" style="text-anchor:start" x="109" y="29">0</text></g></g><g transform="translate(4 54)"><g class="svg-plot-group"><line x1="30" x2="30" y1="100" y2="104" class="svg-plot-tick"/><line x1="0" x2="0" y1="100" y2="104" class="svg-plot-tick"/><text class="svg-plot-value" x="0" y="113">1</text><text class="svg-plot-value" x="30" y="113">0</text></g></g><defs><g id="svg-plot-marker0" class="svg-plot-marker"><circle cx="0" cy="0" r="1" stroke="none"/></g><g id="svg-plot-marker1" class="svg-plot-marker"><path d="M0 0.9 -0.9 0 0 -0.9 0.9 0Z" fill="#FFFA" stroke-linejoin="miter" stroke-width="0.5"/></g><g id="svg-plot-marker2" class="svg-plot-marker"><path fill="none" d="M0 -1.2 0 1.2 M -1.2 0 1.2 0" stroke-width="0.6"/></g><g id="svg-plot-marker3" class="svg-plot-marker"><circle cx="0" cy="0" fill="#FFFA" r="0.82" stroke-width="0.55"/></g><g id="svg-plot-marker4" class="svg-plot-marker"><path stroke="none" d="M0 -1.25 1.25 0.9 -1.25 0.9Z"/></g><mask id="svg-plot-hatch1"><rect x="-245" y="-245" width="490" height="490" fill="url(#svg-plot-hatch1-pattern)" style="transform:rotate(-50deg)"/></mask><pattern patternUnits="userSpaceOnUse" id="svg-plot-hatch1-pattern" class="svg-plot-hatch" x="0" y="0" width="10" height="3"><line x1="-1" x2="11" y1="1.5" y2="1.5" stroke="#FFF" fill="none"/><rect x="-1" y="-1" width="12" height="12" fill="#FFF2" stroke="none"/></pattern><mask id="svg-plot-hatch2"><rect x="-245" y="-245" width="490" height="490" fill="url(#svg-plot-hatch2-pattern)" style="transform:rotate(30deg)"/></mask><pattern patternUnits="userSpaceOnUse" id="svg-plot-hatch2-pattern" class="svg-plot-hatch" x="0" y="0" width="10" height="2.4"><line x1="-1" x2="11" y1="1.2" y2="1.2" stroke="#FFF" fill="none"/><rect x="-1" y="-1" width="12" height="12" fill="#FFF2" stroke="none"/></pattern><mask id="svg-plot-hatch3"><rect x="-245" y="-245" width="490" height="490" fill="url(#svg-plot-hatch3-pattern)" style="transform:rotate(8deg)"/><rect x="-245" y="-245" width="490" height="490" fill="url(#svg-plot-hatch3-pattern)" style="transform:rotate(93deg)"/></mask><pattern patternUnits="userSpaceOnUse" id="svg-plot-hatch3-pattern" class="svg-plot-hatch" x="0" y="0" width="10" height="3"><line x1="-1" x2="11" y1="1.5" y2="1.5" stroke="#FFF" fill="none"/><rect x="-1" y="-1" width="12" height="12" fill="#FFF2" stroke="none"/></pattern></defs><style>.svg-plot{stroke-linecap:butt;stroke-linejoin:round;}.svg-plot-bg{fill:#FFF;stroke:none;}.svg-plot-axis{stroke:none;fill:#FFFFFFD9;}.svg-plot-legend{stroke:none;fill:#FFFFFFE4;}.svg-plot-line{stroke:blue;fill:none;stroke-width:1.5px;stroke-linejoin:round;}.svg-plot-fill{stroke:none;opacity:0.35;}.svg-plot-major{stroke:#000;stroke-width:1px;stroke-linecap:square;fill:none;}.svg-plot-minor{stroke:#0000004D;stroke-width:0.5px;stroke-dasharray:0.5 1.5;stroke-linecap:round;fill:none;}.svg-plot-tick{stroke:#000;fill:none;stroke-width:1px;stroke-linecap:butt;}.svg-plot-value,.svg-plot-label,.svg-plot-title{font-family:Arial,sans-serif;fill:#000;stroke:#FFFFFF48;stroke-width:2.5px;paint-order:stroke fill;text-anchor:middle;dominant-baseline:central;alignment-baseline:baseline;}.svg-plot-label{font-size:12px;}.svg-plot-value{font-size:10px;}.svg-plot-title{font-size:13px;}.svg-plot-hatch{stroke:#FFF;stroke-width:1px;}.svg-plot-marker{transform:scale(3.25);}.svg-plot-s{stroke:#000;}.svg-plot-f,.svg-plot-t{fill:#000;}.svg-plot-s0{stroke:#007AB0}.svg-plot-f0,.svg-plot-t0{fill:#007AB0}.svg-plot-s1{stroke:#BB102B}.svg-plot-f1,.svg-plot-t1{fill:#BB102B}.svg-plot-s2{stroke:#44A730}.svg-plot-f2,.svg-plot-t2{fill:#44A730}.svg-plot-s3{stroke:#87694F}.svg-plot-f3,.svg-plot-t3{fill:#87694F}.svg-plot-s4{stroke:#EDA720}.svg-plot-f4,.svg-plot-t4{fill:#EDA720}.svg-plot-s5{stroke:#A64D99}.svg-plot-f5,.svg-plot-t5{fill:#A64D99}.svg-plot-d0{stroke-width:1.35px}.svg-plot-d1{stroke-dasharray:1.8 1.8}.svg-plot-d2{stroke-dasharray:4.2 2.4}.svg-plot-d3{stroke-dasharray:7.5 6}.svg-plot-d4{stroke-dasharray:6 1.5 1.5 1.5 1.5 1.5}.svg-plot-d5{stroke-dasharray:15 4.5}.svg-plot-d6{stroke-dasharray:6 3 1.5 3}.svg-plot-h0{opacity:0.175}.svg-plot-h1{mask:url(#svg-plot-hatch1)}.svg-plot-h2{mask:url(#svg-plot-hatch2)}.svg-plot-h3{mask:url(#svg-plot-hatch3)}#svg-plot-hatch2-pattern{stroke-width:0.9px}#svg-plot-hatch3-pattern{stroke-width:0.7px}</style><style>@import"/style/svg-plot/style.css";svg{font-family:"Transport New",Arial,sans-serif;font-weight:300;}.svg-plot-label,.svg-plot-value{font-family:inherit;}.svg-plot-title{font-size:14px;font-family:"PT Sans";opacity:0.65;}.svg-plot-fill:hover{opacity:55%;}.svg-plot-h0{opacity:15%;}.svg-plot-fill.svg-plot-h0:hover{opacity:20%;}.svg-plot-fill.svg-plot-f0{fill:#005AB0;}text.svg-plot-f0{fill:#006AA0;}.svg-plot-fill.svg-plot-f4{fill:#EDB410;}</style><script href="/style/svg-plot/style.js"/></svg>