<?xml version="1.0" encoding="utf-8" standalone="no"?>
<!DOCTYPE svg PUBLIC "-//W3C//DTD SVG 1.1//EN" "http://www.w3.org/Graphics/SVG/1.1/DTD/svg11.dtd">
<svg version="1.1" class="svg-plot" xmlns="http://www.w3.org/2000/svg" width="298.2pt" height="210pt" viewBox="-28.3 -15 298.2 210" preserveAspectRatio="xMidYMid"><rect x="-28.3" y="-15" width="298.2" height="210" class="svg-plot-bg"/><g class="svg-plot-group"><rect x="0" y="0" width="250" height="150" class="svg-plot-axis"/><line x1="0" x2="0" y1="0" y2="150" class="svg-plot-major"/><line x1="250" x2="250" y1="0" y2="150" class="svg-plot-minor"/><line x1="0" x2="250" y1="75" y2="75" class="svg-plot-major"/><clipPath id="clip0"><rect x="-0.75" y="-0.75" width="251.5" height="151.5"/></clipPath><g clip-path="url(#clip0)"><path class="svg-plot-fill svg-plot-f0 svg-plot-h0" d="M 0 75 2.5 67.59 3.75 63.96 5 60.4 6.25 56.91 7.5 53.5 8.75 50.18 10 46.96 11.25 43.85 12.5 40.84 13.75 37.95 15 35.19 16.25 32.56 17.5 30.07 18.75 27.71 20 25.5 21.25 23.44 22.5 21.54 23.75 19.79 25 18.2 26.25 16.77 27.5 15.51 28.75 14.42 30 13.49 31.25 12.72 32.5 12.13 33.75 11.7 35 11.44 36.25 11.34 37.5 11.41 38.75 11.64 40 12.03 41.25 12.57 42.5 13.27 43.75 14.12 45 15.11 46.25 16.24 47.5 17.51 48.75 18.91 50 20.44 51.25 22.09 52.5 23.85 53.75 25.73 55 27.7 56.25 29.77 57.5 31.94 58.75 34.18 60 36.5 61.25 38.89 62.5 41.34 63.75 43.84 66.25 48.98 68.75 54.25 75 67.59 77.5 72.85 80 77.98 81.25 80.48 82.5 82.93 83.75 85.32 85 87.65 86.25 89.91 87.5 92.1 88.75 94.21 90 96.24 91.25 98.18 92.5 100.03 93.75 101.79 95 103.45 96.25 105.01 97.5 106.47 98.75 107.81 100 109.06 101.25 110.19 102.5 111.21 103.75 112.12 105 112.91 106.25 113.6 107.5 114.17 108.75 114.62 110 114.97 111.25 115.2 112.5 115.32 113.75 115.34 115 115.24 116.25 115.05 117.5 114.75 118.75 114.35 120 113.85 121.25 113.26 122.5 112.58 123.75 111.81 125 110.96 126.25 110.03 127.5 109.02 128.75 107.95 130 106.8 131.25 105.6 132.5 104.34 133.75 103.02 135 101.66 136.25 100.26 137.5 98.81 140 95.83 142.5 92.76 148.75 84.93 151.25 81.85 153.75 78.83 155 77.37 156.25 75.93 157.5 74.53 158.75 73.17 160 71.85 161.25 70.58 162.5 69.35 163.75 68.18 165 67.06 166.25 65.99 167.5 64.98 168.75 64.03 170 63.14 171.25 62.31 172.5 61.55 173.75 60.85 175 60.22 176.25 59.65 177.5 59.14 178.75 58.71 180 58.33 181.25 58.02 182.5 57.78 183.75 57.6 185 57.48 186.25 57.41 187.5 57.41 188.75 57.47 190 57.58 191.25 57.74 192.5 57.95 193.75 58.22 195 58.52 196.25 58.88 197.5 59.27 198.75 59.7 200 60.16 201.25 60.66 202.5 61.18 203.75 61.73 206.25 62.89 208.75 64.12 215 67.29 217.5 68.54 220 69.74 222.5 70.87 223.75 71.4 225 71.91 226.25 72.39 227.5 72.85 228.75 73.27 230 73.66 231.25 74.02 232.5 74.35 233.75 74.64 235 74.89 236.25 75.1 237.5 75.28 238.75 75.42 240 75.52 241.25 75.59 242.5 75.61 243.75 75.6 245 75.55 246.25 75.46 247.5 75.34 248.75 75.19"/><path class="svg-plot-line svg-plot-s0 svg-plot-d0" d="M 0 75 3.75 63.79 6.25 56.44 8.75 49.28 10 45.79 11.25 42.38 12.5 39.04 13.75 35.8 15 32.65 16.25 29.61 17.5 26.68 18.75 23.88 20 21.2 21.25 18.65 22.5 16.25 23.75 13.99 25 11.89 26.25 9.94 27.5 8.16 28.75 6.54 30 5.1 31.25 3.83 32.5 2.73 33.75 1.82 35 1.09 36.25 0.55 37.5 0.19 38.75 0.02 40 0.03 41.25 0.24 42.5 0.63 43.75 1.2 45 1.96 46.25 2.9 47.5 4.03 48.75 5.33 50 6.8 51.25 8.45 52.5 10.26 53.75 12.23 55 14.36 56.25 16.64 57.5 19.07 58.75 21.64 60 24.34 61.25 27.17 62.5 30.11 63.75 33.17 65 36.34 66.25 39.6 67.5 42.95 68.75 46.38 70 49.88 72.5 57.06 75 64.42 81.25 83.11 83.75 90.52 86.25 97.77 87.5 101.31 88.75 104.79 90 108.19 91.25 111.51 92.5 114.74 93.75 117.87 95 120.89 96.25 123.8 97.5 126.58 98.75 129.24 100 131.76 101.25 134.14 102.5 136.37 103.75 138.45 105 140.37 106.25 142.12 107.5 143.71 108.75 145.13 110 146.37 111.25 147.43 112.5 148.31 113.75 149.01 115 149.53 116.25 149.85 117.5 149.99 118.75 149.95 120 149.71 121.25 149.29 122.5 148.68 123.75 147.89 125 146.92 126.25 145.77 127.5 144.44 128.75 142.93 130 141.26 131.25 139.42 132.5 137.42 133.75 135.26 135 132.96 136.25 130.51 137.5 127.92 138.75 125.19 140 122.34 141.25 119.38 142.5 116.3 143.75 113.12 145 109.85 146.25 106.48 147.5 103.04 148.75 99.53 151.25 92.33 153.75 84.96 160 66.26 162.5 58.87 165 51.63 166.25 48.1 167.5 44.64 168.75 41.25 170 37.94 171.25 34.73 172.5 31.62 173.75 28.61 175 25.73 176.25 22.96 177.5 20.33 178.75 17.83 180 15.47 181.25 13.27 182.5 11.22 183.75 9.32 185 7.6 186.25 6.04 187.5 4.65 188.75 3.44 190 2.41 191.25 1.55 192.5 0.89 193.75 0.41 195 0.11 196.25 0 197.5 0.08 198.75 0.35 200 0.8 201.25 1.44 202.5 2.26 203.75 3.26 205 4.45 206.25 5.8 207.5 7.34 208.75 9.04 210 10.91 211.25 12.93 212.5 15.11 213.75 17.44 215 19.92 216.25 22.53 217.5 25.28 218.75 28.15 220 31.13 221.25 34.23 222.5 37.42 223.75 40.71 225 44.09 226.25 47.55 228.75 54.65 231.25 61.96 235 73.14 238.75 84.37 241.25 91.75 243.75 98.96 245 102.49 246.25 105.94 247.5 109.32 248.75 112.61"/><path class="svg-plot-fill svg-plot-f1 svg-plot-h1" d="M 0 75 1.25 71.29 2.5 67.66 3.75 64.13 5 60.69 6.25 57.36 7.5 54.15 8.75 51.05 10 48.08 11.25 45.25 12.5 42.55 13.75 39.99 15 37.58 16.25 35.32 17.5 33.21 18.75 31.26 20 29.46 21.25 27.83 22.5 26.35 23.75 25.03 25 23.88 26.25 22.89 27.5 22.06 28.75 21.38 30 20.87 31.25 20.51 32.5 20.3 33.75 20.25 35 20.34 36.25 20.57 37.5 20.95 38.75 21.46 40 22.1 41.25 22.87 42.5 23.76 43.75 24.77 45 25.89 46.25 27.11 47.5 28.43 48.75 29.85 50 31.35 51.25 32.94 52.5 34.6 53.75 36.32 55 38.11 56.25 39.95 57.5 41.84 60 45.74 62.5 49.75 68.75 59.95 71.25 63.98 73.75 67.9 75 69.81 76.25 71.69 77.5 73.52 78.75 75.3 80 77.02 81.25 78.7 82.5 80.31 83.75 81.86 85 83.35 86.25 84.77 87.5 86.12 88.75 87.39 90 88.59 91.25 89.72 92.5 90.77 93.75 91.74 95 92.64 96.25 93.46 97.5 94.19 98.75 94.85 100 95.43 101.25 95.94 102.5 96.36 103.75 96.71 105 96.99 106.25 97.19 107.5 97.32 108.75 97.39 110 97.38 111.25 97.31 112.5 97.18 113.75 96.98 115 96.73 116.25 96.43 117.5 96.07 118.75 95.66 120 95.2 121.25 94.7 122.5 94.17 123.75 93.59 125 92.98 126.25 92.34 127.5 91.67 130 90.27 132.5 88.79 136.25 86.49 141.25 83.4 143.75 81.89 146.25 80.42 148.75 79.02 151.25 77.7 152.5 77.08 153.75 76.48 155 75.9 156.25 75.35 157.5 74.83 158.75 74.33 160 73.87 161.25 73.43 162.5 73.02 163.75 72.65 165 72.3 166.25 71.98 167.5 71.69 168.75 71.43 170 71.21 171.25 71 172.5 70.83 173.75 70.68 175 70.57 176.25 70.47 177.5 70.4 178.75 70.36 180 70.33 181.25 70.33 183.75 70.39 186.25 70.52 188.75 70.7 191.25 70.94 193.75 71.22 197.5 71.7 206.25 72.88 210 73.36 213.75 73.79 216.25 74.04 218.75 74.27 221.25 74.46 223.75 74.62 226.25 74.75 228.75 74.85 232.5 74.95 236.25 75.01 241.25 75.02 248.75 75"/></g></g><g class="svg-plot-group"><line x1="0" x2="0" y1="150" y2="154" class="svg-plot-tick"/><line x1="250" x2="250" y1="150" y2="154" class="svg-plot-tick"/><line x1="0" x2="-4" y1="75" y2="75" class="svg-plot-tick"/><line x1="0" x2="-4" y1="150" y2="150" class="svg-plot-tick"/><line x1="0" x2="-4" y1="0" y2="0" class="svg-plot-tick"/><text class="svg-plot-value" style="text-anchor:end" x="-9" y="-1">1</text><text class="svg-plot-value" style="text-anchor:end" x="-9" y="149">-1</text><text class="svg-plot-value" style="text-anchor:end" x="-9" y="74">0</text><text class="svg-plot-label svg-plot-t" x="125" y="179">time</text><text class="svg-plot-value" x="250" y="163">max</text><text class="svg-plot-value" x="0" y="163">min</text><rect x="4" y="92.8" width="95.52" height="53.2" class="svg-plot-legend"/><line x1="9" x2="27" y1="105" y2="105" class="svg-plot-line svg-plot-l0 svg-plot-s0 svg-plot-d0"/><rect x="9" y="113.4" width="18" height="12" class="svg-plot-fill svg-plot-l1 svg-plot-f0 svg-plot-h0"/><rect x="9" y="127.8" width="18" height="12" class="svg-plot-fill svg-plot-l2 svg-plot-f1 svg-plot-h1"/><text class="svg-plot-label svg-plot-l2" style="text-anchor:start" x="32" y="132.6">fast decay</text><text class="svg-plot-label svg-plot-l1" style="text-anchor:start" x="32" y="118.2">slow decay</text><text class="svg-plot-label svg-plot-l0" style="text-anchor:start" x="32" y="103.8">signal</text></g><defs><g id="svg-plot-marker0" class="svg-plot-marker"><circle cx="0" cy="0" r="1" stroke="none"/></g><g id="svg-plot-marker1" class="svg-plot-marker"><path d="M0 0.9 -0.9 0 0 -0.9 0.9 0Z" fill="#FFFA" stroke-linejoin="miter" stroke-width="0.5"/></g><g id="svg-plot-marker2" class="svg-plot-marker"><path fill="none" d="M0 -1.2 0 1.2 M -1.2 0 1.2 0" stroke-width="0.6"/></g><g id="svg-plot-marker3" class="svg-plot-marker"><circle cx="0" cy="0" fill="#FFFA" r="0.82" stroke-width="0.55"/></g><g id="svg-plot-marker4" class="svg-plot-marker"><path stroke="none" d="M0 -1.25 1.25 0.9 -1.25 0.9Z"/></g><mask id="svg-plot-hatch1"><rect x="-368" y="-368" width="736" height="736" fill="url(#svg-plot-hatch1-pattern)" style="transform:rotate(-50deg)"/></mask><pattern patternUnits="userSpaceOnUse" id="svg-plot-hatch1-pattern" class="svg-plot-hatch" x="0" y="0" width="10" height="3"><line x1="-1" x2="11" y1="1.5" y2="1.5" stroke="#FFF" fill="none"/><rect x="-1" y="-1" width="12" height="12" fill="#FFF2" stroke="none"/></pattern><mask id="svg-plot-hatch2"><rect x="-368" y="-368" width="736" height="736" fill="url(#svg-plot-hatch2-pattern)" style="transform:rotate(30deg)"/></mask><pattern patternUnits="userSpaceOnUse" id="svg-plot-hatch2-pattern" class="svg-plot-hatch" x="0" y="0" width="10" height="2.4"><line x1="-1" x2="11" y1="1.2" y2="1.2" stroke="#FFF" fill="none"/><rect x="-1" y="-1" width="12" height="12" fill="#FFF2" stroke="none"/></pattern><mask id="svg-plot-hatch3"><rect x="-368" y="-368" width="736" height="736" fill="url(#svg-plot-hatch3-pattern)" style="transform:rotate(8deg)"/><rect x="-368" y="-368" width="736" height="736" fill="url(#svg-plot-hatch3-pattern)" style="transform:rotate(93deg)"/></mask><pattern patternUnits="userSpaceOnUse" id="svg-plot-hatch3-pattern" class="svg-plot-hatch" x="0" y="0" width="10" height="3"><line x1="-1" x2="11" y1="1.5" y2="1.5" stroke="#FFF" fill="none"/><rect x="-1" y="-1" width="12" height="12" fill="#FFF2" stroke="none"/></pattern></defs><style>.svg-plot{stroke-linecap:butt;stroke-linejoin:round;}.svg-plot-bg{fill:#FFF;stroke:none;}.svg-plot-axis{stroke:none;fill:#FFFFFFD9;}.svg-plot-legend{stroke:none;fill:#FFFFFFE4;}.svg-plot-line{stroke:blue;fill:none;stroke-width:1.5px;stroke-linejoin:round;}.svg-plot-fill{stroke:none;opacity:0.6;}.svg-plot-major{stroke:#000;stroke-width:1px;stroke-linecap:square;fill:none;}.svg-plot-minor{stroke:#0000004D;stroke-width:0.5px;stroke-dasharray:0.5 1.5;stroke-linecap:round;fill:none;}.svg-plot-tick{stroke:#000;fill:none;stroke-width:1px;stroke-linecap:butt;}.svg-plot-value,.svg-plot-label,.svg-plot-title{font-family:Arial,sans-serif;fill:#000;stroke:#FFFFFF48;stroke-width:2.5px;paint-order:stroke fill;text-anchor:middle;dominant-baseline:central;alignment-baseline:baseline;}.svg-plot-label{font-size:12px;}.svg-plot-value{font-size:10px;}.svg-plot-title{font-size:13px;}.svg-plot-hatch{stroke:#FFF;stroke-width:1px;}.svg-plot-marker{transform:scale(3.25);}.svg-plot-s{stroke:#000;}.svg-plot-f,.svg-plot-t{fill:#000;}.svg-plot-s0{stroke:#007AB0}.svg-plot-f0,.svg-plot-t0{fill:#007AB0}.svg-plot-s1{stroke:#BB102B}.svg-plot-f1,.svg-plot-t1{fill:#BB102B}.svg-plot-s2{stroke:#44A730}.svg-plot-f2,.svg-plot-t2{fill:#44A730}.svg-plot-s3{stroke:#87694F}.svg-plot-f3,.svg-plot-t3{fill:#87694F}.svg-plot-s4{stroke:#EDA720}.svg-plot-f4,.svg-plot-t4{fill:#EDA720}.svg-plot-s5{stroke:#A64D99}.svg-plot-f5,.svg-plot-t5{fill:#A64D99}.svg-plot-d0{stroke-width:1.35px}.svg-plot-d1{stroke-dasharray:1.8 1.8}.svg-plot-d2{stroke-dasharray:4.2 2.4}.svg-plot-d3{stroke-dasharray:7.5 6}.svg-plot-d4{stroke-dasharray:6 1.5 1.5 1.5 1.5 1.5}.svg-plot-d5{stroke-dasharray:15 4.5}.svg-plot-d6{stroke-dasharray:6 3 1.5 3}.svg-plot-h0{opacity:0.3}.svg-plot-h1{mask:url(#svg-plot-hatch1)}.svg-plot-h2{mask:url(#svg-plot-hatch2)}.svg-plot-h3{mask:url(#svg-plot-hatch3)}#svg-plot-hatch2-pattern{stroke-width:0.9px}#svg-plot-hatch3-pattern{stroke-width:0.7px}</style><style>.svg-plot-legend{fill:none}</style><script href="/style/svg-plot/style.js"/></svg>