<?xml version="1.0" encoding="utf-8" standalone="no"?>
<!DOCTYPE svg PUBLIC "-//W3C//DTD SVG 1.1//EN" "http://www.w3.org/Graphics/SVG/1.1/DTD/svg11.dtd">
<svg version="1.1" class="svg-plot" xmlns="http://www.w3.org/2000/svg" width="239.1pt" height="163pt" viewBox="-25.1 -14 239.1 163" preserveAspectRatio="xMidYMid"><rect x="-25.1" y="-14" width="239.1" height="163" class="svg-plot-bg"/><g class="svg-plot-group"><rect x="0" y="0" width="200" height="120" class="svg-plot-axis"/><line x1="0" x2="0" y1="0" y2="120" class="svg-plot-major"/><line x1="0" x2="200" y1="60" y2="60" class="svg-plot-major"/><clipPath id="clip0"><rect x="-0.75" y="-0.75" width="201.5" height="121.5"/></clipPath><g clip-path="url(#clip0)"><path class="svg-plot-fill svg-plot-f3 svg-plot-h0" d="M 0 60 0 0 0.65 0.01 1.29 0.05 1.94 0.11 2.58 0.19 3.23 0.3 3.87 0.43 4.52 0.59 5.16 0.77 5.81 0.97 6.45 1.2 7.1 1.45 7.74 1.72 8.39 2.02 9.03 2.34 9.68 2.68 10.97 3.43 12.26 4.28 13.55 5.21 14.84 6.24 16.13 7.35 17.42 8.54 18.71 9.81 20 11.17 21.29 12.6 22.58 14.11 23.87 15.69 25.16 17.35 25.16 60M 38.71 60 38.71 38.26 40.65 41.65 43.23 46.27 45.81 50.99 49.68 58.15 54.84 67.73 57.42 72.46 60 77.11 61.94 80.53 63.87 83.87 65.81 87.13 67.74 90.29 69.03 92.34 70.32 94.33 71.61 96.27 72.9 98.16 74.19 99.98 75.48 101.73 76.77 103.42 78.06 105.05 79.35 106.59 80.65 108.07 81.94 109.47 83.23 110.78 84.52 112.02 85.81 113.18 87.1 114.24 88.39 115.23 89.68 116.12 89.68 60M 100 60 100 119.95 100.65 119.99 101.29 120 101.94 119.99 102.58 119.96 103.23 119.9 103.87 119.82 104.52 119.71 104.52 60M 110.97 60 110.97 117.35 112.26 116.6 113.55 115.76 114.84 114.82 116.13 113.81 117.42 112.7 118.71 111.51 120 110.24 121.29 108.89 122.58 107.46 123.87 105.95 125.16 104.37 126.45 102.72 127.74 101 129.03 99.22 130.32 97.37 131.61 95.46 132.9 93.5 134.19 91.48 136.13 88.36 138.06 85.14 140 81.83 141.94 78.44 144.52 73.82 147.1 69.11 150.97 61.94 154.84 54.75 154.84 60M 161.29 60 161.29 42.98 163.23 39.56 165.16 36.21 167.1 32.95 169.03 29.79 170.32 27.74 171.61 25.75 172.9 23.8 174.19 21.92 175.48 20.09 176.77 18.33 178.06 16.64 179.35 15.02 180.65 13.47 181.94 11.99 183.23 10.59 184.52 9.27 185.81 8.03 187.1 6.87 188.39 5.8 189.68 4.81 190.97 3.91 192.26 3.11 192.9 2.74 193.55 2.39 194.19 2.07 194.84 1.77 195.48 1.49 196.13 1.23 196.77 1 197.42 0.8 198.06 0.61 198.71 0.45 199.35 0.32 200 0.21 200 60"/><path class="svg-plot-line svg-plot-s3 svg-plot-d0" d="M 0 0 0.65 0.01 1.29 0.05 1.94 0.11 2.58 0.19 3.23 0.3 3.87 0.43 4.52 0.59 5.16 0.77 5.81 0.97 6.45 1.2 7.1 1.45 7.74 1.72 8.39 2.02 9.03 2.34 9.68 2.68 10.97 3.43 12.26 4.28 13.55 5.21 14.84 6.24 16.13 7.35 17.42 8.54 18.71 9.81 20 11.17 21.29 12.6 22.58 14.11 23.87 15.69 25.16 17.35M 38.71 38.26 40.65 41.65 43.23 46.27 45.81 50.99 49.68 58.15 54.84 67.73 57.42 72.46 60 77.11 61.94 80.53 63.87 83.87 65.81 87.13 67.74 90.29 69.03 92.34 70.32 94.33 71.61 96.27 72.9 98.16 74.19 99.98 75.48 101.73 76.77 103.42 78.06 105.05 79.35 106.59 80.65 108.07 81.94 109.47 83.23 110.78 84.52 112.02 85.81 113.18 87.1 114.24 88.39 115.23 89.68 116.12M 100 119.95 100.65 119.99 101.29 120 101.94 119.99 102.58 119.96 103.23 119.9 103.87 119.82 104.52 119.71M 110.97 117.35 112.26 116.6 113.55 115.76 114.84 114.82 116.13 113.81 117.42 112.7 118.71 111.51 120 110.24 121.29 108.89 122.58 107.46 123.87 105.95 125.16 104.37 126.45 102.72 127.74 101 129.03 99.22 130.32 97.37 131.61 95.46 132.9 93.5 134.19 91.48 136.13 88.36 138.06 85.14 140 81.83 141.94 78.44 144.52 73.82 147.1 69.11 150.97 61.94 154.84 54.75M 161.29 42.98 163.23 39.56 165.16 36.21 167.1 32.95 169.03 29.79 170.32 27.74 171.61 25.75 172.9 23.8 174.19 21.92 175.48 20.09 176.77 18.33 178.06 16.64 179.35 15.02 180.65 13.47 181.94 11.99 183.23 10.59 184.52 9.27 185.81 8.03 187.1 6.87 188.39 5.8 189.68 4.81 190.97 3.91 192.26 3.11 192.9 2.74 193.55 2.39 194.19 2.07 194.84 1.77 195.48 1.49 196.13 1.23 196.77 1 197.42 0.8 198.06 0.61 198.71 0.45 199.35 0.32 200 0.21"/></g></g><g class="svg-plot-group"><line x1="0" x2="0" y1="120" y2="124" class="svg-plot-tick"/><line x1="0" x2="-4" y1="60" y2="60" class="svg-plot-tick"/><text class="svg-plot-value" style="text-anchor:end" x="-9" y="59">0</text><text class="svg-plot-value" x="0" y="133">0</text><line x1="45.8527" x2="34.977" y1="20.6607" y2="25.7322" class="svg-plot-tick svg-plot-s3"/><text class="svg-plot-label svg-plot-t3" style="text-anchor:start" x="48.8527" y="17.9393">missing data</text></g><defs><g id="svg-plot-marker0" class="svg-plot-marker"><circle cx="0" cy="0" r="1" stroke="none"/></g><g id="svg-plot-marker1" class="svg-plot-marker"><path d="M0 0.9 -0.9 0 0 -0.9 0.9 0Z" fill="#FFFA" stroke-linejoin="miter" stroke-width="0.5"/></g><g id="svg-plot-marker2" class="svg-plot-marker"><path fill="none" d="M0 -1.2 0 1.2 M -1.2 0 1.2 0" stroke-width="0.6"/></g><g id="svg-plot-marker3" class="svg-plot-marker"><circle cx="0" cy="0" fill="#FFFA" r="0.82" stroke-width="0.55"/></g><g id="svg-plot-marker4" class="svg-plot-marker"><path stroke="none" d="M0 -1.25 1.25 0.9 -1.25 0.9Z"/></g><mask id="svg-plot-hatch1"><rect x="-289" y="-289" width="578" height="578" fill="url(#svg-plot-hatch1-pattern)" style="transform:rotate(-50deg)"/></mask><pattern patternUnits="userSpaceOnUse" id="svg-plot-hatch1-pattern" class="svg-plot-hatch" x="0" y="0" width="10" height="3"><line x1="-1" x2="11" y1="1.5" y2="1.5" stroke="#FFF" fill="none"/><rect x="-1" y="-1" width="12" height="12" fill="#FFF2" stroke="none"/></pattern><mask id="svg-plot-hatch2"><rect x="-289" y="-289" width="578" height="578" fill="url(#svg-plot-hatch2-pattern)" style="transform:rotate(30deg)"/></mask><pattern patternUnits="userSpaceOnUse" id="svg-plot-hatch2-pattern" class="svg-plot-hatch" x="0" y="0" width="10" height="2.4"><line x1="-1" x2="11" y1="1.2" y2="1.2" stroke="#FFF" fill="none"/><rect x="-1" y="-1" width="12" height="12" fill="#FFF2" stroke="none"/></pattern><mask id="svg-plot-hatch3"><rect x="-289" y="-289" width="578" height="578" fill="url(#svg-plot-hatch3-pattern)" style="transform:rotate(8deg)"/><rect x="-289" y="-289" width="578" height="578" fill="url(#svg-plot-hatch3-pattern)" style="transform:rotate(93deg)"/></mask><pattern patternUnits="userSpaceOnUse" id="svg-plot-hatch3-pattern" class="svg-plot-hatch" x="0" y="0" width="10" height="3"><line x1="-1" x2="11" y1="1.5" y2="1.5" stroke="#FFF" fill="none"/><rect x="-1" y="-1" width="12" height="12" fill="#FFF2" stroke="none"/></pattern></defs><style>.svg-plot{stroke-linecap:butt;stroke-linejoin:round;}.svg-plot-bg{fill:#FFF;stroke:none;}.svg-plot-axis{stroke:none;fill:#FFFFFFD9;}.svg-plot-legend{stroke:none;fill:#FFFFFFE4;}.svg-plot-line{stroke:blue;fill:none;stroke-width:1.5px;stroke-linejoin:round;}.svg-plot-fill{stroke:none;opacity:0.28;}.svg-plot-dot .svg-plot-fill{opacity:0.5;}.svg-plot-major{stroke:#000;stroke-width:1px;stroke-linecap:square;fill:none;}.svg-plot-minor{stroke:#0000004D;stroke-width:0.5px;stroke-dasharray:0.5 1.5;stroke-linecap:round;fill:none;}.svg-plot-tick{stroke:#000;fill:none;stroke-width:1px;stroke-linecap:butt;}.svg-plot-value,.svg-plot-label,.svg-plot-title{font-family:Arial,sans-serif;fill:#000;stroke:#FFFFFF48;stroke-width:2.5px;paint-order:stroke fill;text-anchor:middle;dominant-baseline:central;alignment-baseline:baseline;}.svg-plot-label{font-size:12px;}.svg-plot-value{font-size:10px;}.svg-plot-title{font-size:13px;}.svg-plot-hatch{stroke:#FFF;stroke-width:1px;}.svg-plot-marker{transform:scale(3.25);}.svg-plot-s{stroke:#000;}.svg-plot-f,.svg-plot-t{fill:#000;}.svg-plot-s0{stroke:#0073E6}.svg-plot-f0,.svg-plot-t0{fill:#0073E6}.svg-plot-s1{stroke:#CC0000}.svg-plot-f1,.svg-plot-t1{fill:#CC0000}.svg-plot-s2{stroke:#00B300}.svg-plot-f2,.svg-plot-t2{fill:#00B300}.svg-plot-s3{stroke:#806600}.svg-plot-f3,.svg-plot-t3{fill:#806600}.svg-plot-s4{stroke:#E69900}.svg-plot-f4,.svg-plot-t4{fill:#E69900}.svg-plot-s5{stroke:#CC00CC}.svg-plot-f5,.svg-plot-t5{fill:#CC00CC}.svg-plot-d0{stroke-width:1.35px}.svg-plot-d1{stroke-dasharray:1.8 1.8}.svg-plot-d2{stroke-dasharray:4.2 2.4}.svg-plot-d3{stroke-dasharray:7.5 6}.svg-plot-d4{stroke-dasharray:6 1.5 1.5 1.5 1.5 1.5}.svg-plot-d5{stroke-dasharray:15 4.5}.svg-plot-d6{stroke-dasharray:6 3 1.5 3}.svg-plot-h0{opacity:0.14}.svg-plot-h1{mask:url(#svg-plot-hatch1)}.svg-plot-h2{mask:url(#svg-plot-hatch2)}.svg-plot-h3{mask:url(#svg-plot-hatch3)}#svg-plot-hatch2-pattern{stroke-width:0.9px}#svg-plot-hatch3-pattern{stroke-width:0.7px}</style></svg>