<?xml version="1.0" encoding="utf-8" standalone="no"?>
<!DOCTYPE svg PUBLIC "-//W3C//DTD SVG 1.1//EN" "http://www.w3.org/Graphics/SVG/1.1/DTD/svg11.dtd">
<svg version="1.1" class="svg-plot" xmlns="http://www.w3.org/2000/svg" width="305.8pt" height="211pt" viewBox="-49.5 -46 305.8 211" preserveAspectRatio="xMidYMid"><rect x="-39.5" y="-36" width="285.8" height="191" class="svg-plot-bg"/><rect x="0" y="0" width="200" height="150" class="svg-plot-axis"/><line x1="0" x2="0" y1="0" y2="150" class="svg-plot-major"/><line x1="200" x2="200" y1="0" y2="150" class="svg-plot-minor"/><line x1="0" x2="200" y1="75" y2="75" class="svg-plot-major"/><clipPath id="clip0"><rect x="-0.75" y="-0.75" width="201.5" height="151.5"/></clipPath><g clip-path="url(#clip0)"><path class="svg-plot-line svg-plot-s2 svg-plot-d2" d="M 0 67.5 40 65.25 50 91.88 110 54.38 160 36 200 101.44"/><path class="svg-plot-line svg-plot-s1 svg-plot-d1" d="M 0 75 40 75 50 100 110 75 160 75 200 100"/><path class="svg-plot-fill svg-plot-f1 svg-plot-h1" d="M 0 100 40 125 50 125 110 100 160 100 200 150 200 100 160 75 110 75 50 100 40 75 0 75"/><path class="svg-plot-line svg-plot-s1 svg-plot-d1" d="M 0 100 40 125 50 125 110 100 160 100 200 150"/><path class="svg-plot-fill svg-plot-f0 svg-plot-h0" d="M 0 42.39 40 16.3 50 26.09 110 26.09 160 3.26 200 14.67 200 75 0 75"/><path class="svg-plot-line svg-plot-s0 svg-plot-d0" d="M 0 42.39 40 16.3 50 26.09 110 26.09 160 3.26 200 14.67"/></g><g><text class="svg-plot-label " x="0" y="0" transform="rotate(-90) translate(-74 241.3)">scrimbles (net)</text><text class="svg-plot-label svg-plot-t1" x="0" y="0" transform="rotate(-90) translate(-111.5 -34.5)">tork</text><text class="svg-plot-label svg-plot-t0" x="0" y="0" transform="rotate(-90) translate(-36.5 -34.5)">bink</text><text class="svg-plot-value" style="text-anchor:start" x="209" y="-1">+100</text><text class="svg-plot-value" style="text-anchor:start" x="209" y="74">0</text><text class="svg-plot-value" style="text-anchor:start" x="209" y="149">-100</text><text class="svg-plot-value" style="text-anchor:end" x="-9" y="149">3</text><text class="svg-plot-value" style="text-anchor:end" x="-9" y="124">2</text><text class="svg-plot-value" style="text-anchor:end" x="-9" y="99">1</text><text class="svg-plot-value" style="text-anchor:end" x="-9" y="8.78261">200</text><text class="svg-plot-value" style="text-anchor:end" x="-9" y="41.3913">100</text><text class="svg-plot-value" style="text-anchor:end" x="-9" y="74">0</text><text class="svg-plot-label " x="100" y="-32">day</text><text class="svg-plot-value" x="200" y="-16">100</text><text class="svg-plot-value" x="0" y="-16">0</text><text class="svg-plot-label svg-plot-t2" style="text-anchor:start" x="163" y="34.8">estimate</text><line x1="0" x2="0" y1="0" y2="-5" class="svg-plot-tick"/><line x1="200" x2="200" y1="0" y2="-5" class="svg-plot-tick"/><line x1="0" x2="-5" y1="75" y2="75" class="svg-plot-tick"/><line x1="0" x2="-5" y1="42.3913" y2="42.3913" class="svg-plot-tick"/><line x1="0" x2="-5" y1="9.78261" y2="9.78261" class="svg-plot-tick"/><line x1="0" x2="-5" y1="100" y2="100" class="svg-plot-tick"/><line x1="0" x2="-5" y1="125" y2="125" class="svg-plot-tick"/><line x1="0" x2="-5" y1="150" y2="150" class="svg-plot-tick"/><line x1="200" x2="204" y1="150" y2="150" class="svg-plot-tick"/><line x1="200" x2="204" y1="75" y2="75" class="svg-plot-tick"/><line x1="200" x2="204" y1="0" y2="0" class="svg-plot-tick"/></g><defs><mask id="svg-plot-hatch1"><rect x="-349" y="-349" width="698" height="698" fill="url(#svg-plot-hatch1-pattern)" style="transform:rotate(-50deg)"/></mask><pattern patternUnits="userSpaceOnUse" id="svg-plot-hatch1-pattern" class="svg-plot-hatch" x="0" y="0" width="10" height="3" stroke="#FFF" fill="none"><line x1="-1" x2="11" y1="1.5" y2="1.5"/></pattern><mask id="svg-plot-hatch2"><rect x="-349" y="-349" width="698" height="698" fill="url(#svg-plot-hatch2-pattern)" style="transform:rotate(30deg)"/></mask><pattern patternUnits="userSpaceOnUse" id="svg-plot-hatch2-pattern" class="svg-plot-hatch" x="0" y="0" width="10" height="2.4" stroke="#FFF" fill="none"><line x1="-1" x2="11" y1="1.2" y2="1.2"/></pattern><mask id="svg-plot-hatch3"><rect x="-349" y="-349" width="698" height="698" fill="url(#svg-plot-hatch3-pattern)" style="transform:rotate(8deg)"/><rect x="-349" y="-349" width="698" height="698" fill="url(#svg-plot-hatch3-pattern)" style="transform:rotate(93deg)"/></mask><pattern patternUnits="userSpaceOnUse" id="svg-plot-hatch3-pattern" class="svg-plot-hatch" x="0" y="0" width="10" height="3" stroke="#FFF" fill="none"><line x1="-1" x2="11" y1="1.5" y2="1.5"/></pattern></defs><style>.svg-plot{stroke-linecap:butt;stroke-linejoin:round;}.svg-plot-bg{fill:none;stroke:none;}.svg-plot-axis{stroke:none;fill:#FFFFFFD9;}.svg-plot-legend{stroke:none;fill:#FFFFFFE4;}.svg-plot-line{stroke:blue;fill:none;stroke-width:1.5px;stroke-linejoin:round;}.svg-plot-fill{stroke:none;opacity:0.3;}.svg-plot-major{stroke:#000;stroke-width:1px;stroke-linecap:square;fill:none;}.svg-plot-minor{stroke:#0000004D;stroke-width:0.5px;stroke-dasharray:0.5 1.5;stroke-linecap:round;fill:none;}.svg-plot-tick{stroke:#000;fill:none;stroke-width:1px;stroke-linecap:butt;}.svg-plot-value,.svg-plot-label{font-family:Arial,sans-serif;fill:#000;stroke:#FFFFFF80;stroke-width:2px;paint-order:stroke fill;text-anchor:middle;dominant-baseline:central;alignment-baseline:baseline;}.svg-plot-label{font-size:12px;}.svg-plot-value{font-size:10px;}.svg-plot-hatch{stroke:#FFF;stroke-width:1px;}.svg-plot-s0{stroke:#0073E6}.svg-plot-f0,.svg-plot-t0{fill:#0073E6}.svg-plot-s1{stroke:#CC0000}.svg-plot-f1,.svg-plot-t1{fill:#CC0000}.svg-plot-s2{stroke:#00B300}.svg-plot-f2,.svg-plot-t2{fill:#00B300}.svg-plot-s3{stroke:#806600}.svg-plot-f3,.svg-plot-t3{fill:#806600}.svg-plot-s4{stroke:#E69900}.svg-plot-f4,.svg-plot-t4{fill:#E69900}.svg-plot-s5{stroke:#CC00CC}.svg-plot-f5,.svg-plot-t5{fill:#CC00CC}.svg-plot-d0{stroke-width:1.35px}.svg-plot-d1{stroke-dasharray:1.8 1.8}.svg-plot-d2{stroke-dasharray:4.2 2.4}.svg-plot-d3{stroke-dasharray:7.5 6}.svg-plot-d4{stroke-dasharray:6 1.5 1.5 1.5 1.5 1.5}.svg-plot-d5{stroke-dasharray:15 4.5}.svg-plot-d6{stroke-dasharray:6 3 1.5 3}.svg-plot-h0{opacity:0.1}.svg-plot-h1{mask:url(#svg-plot-hatch1)}.svg-plot-h2{mask:url(#svg-plot-hatch2)}.svg-plot-h3{mask:url(#svg-plot-hatch3)}#svg-plot-hatch2-pattern{stroke-width:0.9px}#svg-plot-hatch3-pattern{stroke-width:0.7px}</style></svg>