<?xml version="1.0" encoding="utf-8" standalone="no"?>
<!DOCTYPE svg PUBLIC "-//W3C//DTD SVG 1.1//EN" "http://www.w3.org/Graphics/SVG/1.1/DTD/svg11.dtd">
<svg version="1.1" class="svg-plot" xmlns="http://www.w3.org/2000/svg" width="248pt" height="205pt" viewBox="-10 -10 248 205" preserveAspectRatio="xMidYMid"><rect x="-10" y="-10" width="248" height="205" class="svg-plot-bg"/><g transform="translate(4 0)"><g class="svg-plot-group"><rect x="0" y="0" width="220" height="40" class="svg-plot-axis"/><clipPath id="clip0"><rect x="-0.75" y="-0.75" width="221.5" height="41.5"/></clipPath><g clip-path="url(#clip0)"><path class="svg-plot-fill svg-plot-f3 svg-plot-h3" d="M 165 40 220 0 220 40"/><path class="svg-plot-line svg-plot-s3 svg-plot-d3" d="M 165 40 220 0"/><path class="svg-plot-fill svg-plot-f2 svg-plot-h2" d="M 110 40 165 0 165 40"/><path class="svg-plot-line svg-plot-s2 svg-plot-d2" d="M 110 40 165 0"/><path class="svg-plot-fill svg-plot-f1 svg-plot-h1" d="M 55 40 110 0 110 40"/><path class="svg-plot-line svg-plot-s1 svg-plot-d1" d="M 55 40 110 0"/><path class="svg-plot-fill svg-plot-f0 svg-plot-h0" d="M 0 40 55 0 55 40"/><path class="svg-plot-line svg-plot-s0 svg-plot-d0" d="M 0 40 55 0"/></g></g></g><g transform="translate(4 65)"><g class="svg-plot-group"><rect x="0" y="0" width="220" height="40" class="svg-plot-axis"/><clipPath id="clip1"><rect x="-0.75" y="-0.75" width="221.5" height="41.5"/></clipPath><g clip-path="url(#clip1)"><path class="svg-plot-fill svg-plot-f1 svg-plot-h3" d="M 165 40 220 0 220 40"/><path class="svg-plot-line svg-plot-s1 svg-plot-d0" d="M 165 40 220 0"/><path class="svg-plot-fill svg-plot-f0 svg-plot-h2" d="M 110 40 165 0 165 40"/><path class="svg-plot-line svg-plot-s0 svg-plot-d6" d="M 110 40 165 0"/><path class="svg-plot-fill svg-plot-f5 svg-plot-h1" d="M 55 40 110 0 110 40"/><path class="svg-plot-line svg-plot-s5 svg-plot-d5" d="M 55 40 110 0"/><path class="svg-plot-fill svg-plot-f4 svg-plot-h0" d="M 0 40 55 0 55 40"/><path class="svg-plot-line svg-plot-s4 svg-plot-d4" d="M 0 40 55 0"/></g></g></g><g transform="translate(4 130)"><g class="svg-plot-group"><rect x="0" y="0" width="220" height="40" class="svg-plot-axis"/><clipPath id="clip2"><rect x="-0.75" y="-0.75" width="221.5" height="41.5"/></clipPath><g clip-path="url(#clip2)"><path class="svg-plot-fill svg-plot-f5 svg-plot-h3" d="M 165 40 220 0 220 40"/><path class="svg-plot-line svg-plot-s5 svg-plot-d4" d="M 165 40 220 0"/><path class="svg-plot-fill svg-plot-f4 svg-plot-h2" d="M 110 40 165 0 165 40"/><path class="svg-plot-line svg-plot-s4 svg-plot-d3" d="M 110 40 165 0"/><path class="svg-plot-fill svg-plot-f3 svg-plot-h1" d="M 55 40 110 0 110 40"/><path class="svg-plot-line svg-plot-s3 svg-plot-d2" d="M 55 40 110 0"/><path class="svg-plot-fill svg-plot-f2 svg-plot-h0" d="M 0 40 55 0 55 40"/><path class="svg-plot-line svg-plot-s2 svg-plot-d1" d="M 0 40 55 0"/></g></g></g><g transform="translate(4 0)"><g class="svg-plot-group"><text class="svg-plot-value" x="192.5" y="49">3</text><text class="svg-plot-value" x="137.5" y="49">2</text><text class="svg-plot-value" x="82.5" y="49">1</text><text class="svg-plot-value" x="27.5" y="49">0</text><use href="#svg-plot-marker3" class="svg-plot-f3 svg-plot-s3" transform="translate(192.5 20)"/><use href="#svg-plot-marker2" class="svg-plot-f2 svg-plot-s2" transform="translate(137.5 20)"/><use href="#svg-plot-marker1" class="svg-plot-f1 svg-plot-s1" transform="translate(82.5 20)"/><use href="#svg-plot-marker0" class="svg-plot-f0 svg-plot-s0" transform="translate(27.5 20)"/></g></g><g transform="translate(4 65)"><g class="svg-plot-group"><text class="svg-plot-value" x="192.5" y="49">7</text><text class="svg-plot-value" x="137.5" y="49">6</text><text class="svg-plot-value" x="82.5" y="49">5</text><text class="svg-plot-value" x="27.5" y="49">4</text><use href="#svg-plot-marker2" class="svg-plot-f1 svg-plot-s1" transform="translate(192.5 20)"/><use href="#svg-plot-marker1" class="svg-plot-f0 svg-plot-s0" transform="translate(137.5 20)"/><use href="#svg-plot-marker0" class="svg-plot-f5 svg-plot-s5" transform="translate(82.5 20)"/><use href="#svg-plot-marker4" class="svg-plot-f4 svg-plot-s4" transform="translate(27.5 20)"/></g></g><g transform="translate(4 130)"><g class="svg-plot-group"><text class="svg-plot-value" x="192.5" y="49">11</text><text class="svg-plot-value" x="137.5" y="49">10</text><text class="svg-plot-value" x="82.5" y="49">9</text><text class="svg-plot-value" x="27.5" y="49">8</text><use href="#svg-plot-marker1" class="svg-plot-f5 svg-plot-s5" transform="translate(192.5 20)"/><use href="#svg-plot-marker0" class="svg-plot-f4 svg-plot-s4" transform="translate(137.5 20)"/><use href="#svg-plot-marker4" class="svg-plot-f3 svg-plot-s3" transform="translate(82.5 20)"/><use href="#svg-plot-marker3" class="svg-plot-f2 svg-plot-s2" transform="translate(27.5 20)"/></g></g><defs><g id="svg-plot-marker0" class="svg-plot-marker"><circle cx="0" cy="0" r="1" stroke="none"/></g><g id="svg-plot-marker1" class="svg-plot-marker"><path d="M0 0.9 -0.9 0 0 -0.9 0.9 0Z" fill="#FFFA" stroke-linejoin="miter" stroke-width="0.5"/></g><g id="svg-plot-marker2" class="svg-plot-marker"><path fill="none" d="M0 -1.2 0 1.2 M -1.2 0 1.2 0" stroke-width="0.6"/></g><g id="svg-plot-marker3" class="svg-plot-marker"><circle cx="0" cy="0" fill="#FFFA" r="0.82" stroke-width="0.55"/></g><g id="svg-plot-marker4" class="svg-plot-marker"><path stroke="none" d="M0 -1.25 1.25 0.9 -1.25 0.9Z"/></g><mask id="svg-plot-hatch1"><rect x="-323" y="-323" width="646" height="646" fill="url(#svg-plot-hatch1-pattern)" style="transform:rotate(-50deg)"/></mask><pattern patternUnits="userSpaceOnUse" id="svg-plot-hatch1-pattern" class="svg-plot-hatch" x="0" y="0" width="10" height="3"><line x1="-1" x2="11" y1="1.5" y2="1.5" stroke="#FFF" fill="none"/><rect x="-1" y="-1" width="12" height="12" fill="#FFF2" stroke="none"/></pattern><mask id="svg-plot-hatch2"><rect x="-323" y="-323" width="646" height="646" fill="url(#svg-plot-hatch2-pattern)" style="transform:rotate(30deg)"/></mask><pattern patternUnits="userSpaceOnUse" id="svg-plot-hatch2-pattern" class="svg-plot-hatch" x="0" y="0" width="10" height="2.4"><line x1="-1" x2="11" y1="1.2" y2="1.2" stroke="#FFF" fill="none"/><rect x="-1" y="-1" width="12" height="12" fill="#FFF2" stroke="none"/></pattern><mask id="svg-plot-hatch3"><rect x="-323" y="-323" width="646" height="646" fill="url(#svg-plot-hatch3-pattern)" style="transform:rotate(8deg)"/><rect x="-323" y="-323" width="646" height="646" fill="url(#svg-plot-hatch3-pattern)" style="transform:rotate(93deg)"/></mask><pattern patternUnits="userSpaceOnUse" id="svg-plot-hatch3-pattern" class="svg-plot-hatch" x="0" y="0" width="10" height="3"><line x1="-1" x2="11" y1="1.5" y2="1.5" stroke="#FFF" fill="none"/><rect x="-1" y="-1" width="12" height="12" fill="#FFF2" stroke="none"/></pattern></defs><style>.svg-plot{stroke-linecap:butt;stroke-linejoin:round;}.svg-plot-bg{fill:#FFF;stroke:none;}.svg-plot-axis{stroke:none;fill:#FFFFFFD9;}.svg-plot-legend{stroke:none;fill:#FFFFFFE4;}.svg-plot-line{stroke:blue;fill:none;stroke-width:1.5px;stroke-linejoin:round;}.svg-plot-fill{stroke:none;opacity:0.28;}.svg-plot-dot .svg-plot-fill{opacity:0.5;}.svg-plot-major{stroke:#000;stroke-width:1px;stroke-linecap:square;fill:none;}.svg-plot-minor{stroke:#0000004D;stroke-width:0.5px;stroke-dasharray:0.5 1.5;stroke-linecap:round;fill:none;}.svg-plot-tick{stroke:#000;fill:none;stroke-width:1px;stroke-linecap:butt;}.svg-plot-value,.svg-plot-label,.svg-plot-title{font-family:Arial,sans-serif;fill:#000;stroke:#FFFFFF48;stroke-width:2.5px;paint-order:stroke fill;text-anchor:middle;dominant-baseline:central;alignment-baseline:baseline;}.svg-plot-label{font-size:12px;}.svg-plot-value{font-size:10px;}.svg-plot-title{font-size:13px;}.svg-plot-hatch{stroke:#FFF;stroke-width:1px;}.svg-plot-marker{transform:scale(3.25);}.svg-plot-s{stroke:#000;}.svg-plot-f,.svg-plot-t{fill:#000;}.svg-plot-s0{stroke:#0073E6}.svg-plot-f0,.svg-plot-t0{fill:#0073E6}.svg-plot-s1{stroke:#CC0000}.svg-plot-f1,.svg-plot-t1{fill:#CC0000}.svg-plot-s2{stroke:#00B300}.svg-plot-f2,.svg-plot-t2{fill:#00B300}.svg-plot-s3{stroke:#806600}.svg-plot-f3,.svg-plot-t3{fill:#806600}.svg-plot-s4{stroke:#E69900}.svg-plot-f4,.svg-plot-t4{fill:#E69900}.svg-plot-s5{stroke:#CC00CC}.svg-plot-f5,.svg-plot-t5{fill:#CC00CC}.svg-plot-d0{stroke-width:1.35px}.svg-plot-d1{stroke-dasharray:1.8 1.8}.svg-plot-d2{stroke-dasharray:4.2 2.4}.svg-plot-d3{stroke-dasharray:7.5 6}.svg-plot-d4{stroke-dasharray:6 1.5 1.5 1.5 1.5 1.5}.svg-plot-d5{stroke-dasharray:15 4.5}.svg-plot-d6{stroke-dasharray:6 3 1.5 3}.svg-plot-h0{opacity:0.14}.svg-plot-h1{mask:url(#svg-plot-hatch1)}.svg-plot-h2{mask:url(#svg-plot-hatch2)}.svg-plot-h3{mask:url(#svg-plot-hatch3)}#svg-plot-hatch2-pattern{stroke-width:0.9px}#svg-plot-hatch3-pattern{stroke-width:0.7px}</style></svg>