<?xml version="1.0" encoding="utf-8" standalone="no"?>
<!DOCTYPE svg PUBLIC "-//W3C//DTD SVG 1.1//EN" "http://www.w3.org/Graphics/SVG/1.1/DTD/svg11.dtd">
<svg version="1.1" class="svg-plot" xmlns="http://www.w3.org/2000/svg" width="388pt" height="115pt" viewBox="-14 -10 388 115" preserveAspectRatio="xMidYMid"><rect x="-4" y="0" width="368" height="95" class="svg-plot-bg"/><rect x="0" y="0" width="360" height="80" class="svg-plot-axis"/><clipPath id="clip0"><rect x="-0.75" y="-0.75" width="361.5" height="81.5"/></clipPath><g clip-path="url(#clip0)"><path class="svg-plot-fill svg-plot-f3 svg-plot-h1" d="M 324 80 360 0 360 80 324 80"/><path class="svg-plot-line svg-plot-s3 svg-plot-d2" d="M 324 80 360 0"/><path class="svg-plot-fill svg-plot-f2 svg-plot-h0" d="M 288 80 324 0 324 80 288 80"/><path class="svg-plot-line svg-plot-s2 svg-plot-d1" d="M 288 80 324 0"/><path class="svg-plot-fill svg-plot-f1 svg-plot-h3" d="M 252 80 288 0 288 80 252 80"/><path class="svg-plot-line svg-plot-s1 svg-plot-d0" d="M 252 80 288 0"/><path class="svg-plot-fill svg-plot-f0 svg-plot-h2" d="M 216 80 252 0 252 80 216 80"/><path class="svg-plot-line svg-plot-s0 svg-plot-d6" d="M 216 80 252 0"/><path class="svg-plot-fill svg-plot-f5 svg-plot-h1" d="M 180 80 216 0 216 80 180 80"/><path class="svg-plot-line svg-plot-s5 svg-plot-d5" d="M 180 80 216 0"/><path class="svg-plot-fill svg-plot-f4 svg-plot-h0" d="M 144 80 180 0 180 80 144 80"/><path class="svg-plot-line svg-plot-s4 svg-plot-d4" d="M 144 80 180 0"/><path class="svg-plot-fill svg-plot-f3 svg-plot-h3" d="M 108 80 144 0 144 80 108 80"/><path class="svg-plot-line svg-plot-s3 svg-plot-d3" d="M 108 80 144 0"/><path class="svg-plot-fill svg-plot-f2 svg-plot-h2" d="M 72 80 108 0 108 80 72 80"/><path class="svg-plot-line svg-plot-s2 svg-plot-d2" d="M 72 80 108 0"/><path class="svg-plot-fill svg-plot-f1 svg-plot-h1" d="M 36 80 72 0 72 80 36 80"/><path class="svg-plot-line svg-plot-s1 svg-plot-d1" d="M 36 80 72 0"/><path class="svg-plot-fill svg-plot-f0 svg-plot-h0" d="M 0 80 36 0 36 80 0 80"/><path class="svg-plot-line svg-plot-s0 svg-plot-d0" d="M 0 80 36 0"/></g><g><text class="svg-plot-value" x="342" y="90">9</text><text class="svg-plot-value" x="306" y="90">8</text><text class="svg-plot-value" x="270" y="90">7</text><text class="svg-plot-value" x="234" y="90">6</text><text class="svg-plot-value" x="198" y="90">5</text><text class="svg-plot-value" x="162" y="90">4</text><text class="svg-plot-value" x="126" y="90">3</text><text class="svg-plot-value" x="90" y="90">2</text><text class="svg-plot-value" x="54" y="90">1</text><text class="svg-plot-value" x="18" y="90">0</text></g><defs><mask id="svg-plot-hatch1"><rect x="-515" y="-515" width="1030" height="1030" fill="url(#svg-plot-hatch1-pattern)" style="transform:rotate(-50deg)"/></mask><pattern patternUnits="userSpaceOnUse" id="svg-plot-hatch1-pattern" class="svg-plot-hatch" x="0" y="0" width="10" height="3" stroke="#FFF" fill="none"><line x1="-1" x2="11" y1="1.5" y2="1.5"/></pattern><mask id="svg-plot-hatch2"><rect x="-515" y="-515" width="1030" height="1030" fill="url(#svg-plot-hatch2-pattern)" style="transform:rotate(30deg)"/></mask><pattern patternUnits="userSpaceOnUse" id="svg-plot-hatch2-pattern" class="svg-plot-hatch" x="0" y="0" width="10" height="2.4" stroke="#FFF" fill="none"><line x1="-1" x2="11" y1="1.2" y2="1.2"/></pattern><mask id="svg-plot-hatch3"><rect x="-515" y="-515" width="1030" height="1030" fill="url(#svg-plot-hatch3-pattern)" style="transform:rotate(8deg)"/><rect x="-515" y="-515" width="1030" height="1030" fill="url(#svg-plot-hatch3-pattern)" style="transform:rotate(93deg)"/></mask><pattern patternUnits="userSpaceOnUse" id="svg-plot-hatch3-pattern" class="svg-plot-hatch" x="0" y="0" width="10" height="3" stroke="#FFF" fill="none"><line x1="-1" x2="11" y1="1.5" y2="1.5"/></pattern></defs><style>.svg-plot{stroke-linecap:butt;}.svg-plot-bg{fill:none;stroke:none;}.svg-plot-axis{stroke:none;fill:rgba(255,255,255,0.85);}.svg-plot-line{stroke:blue;fill:none;stroke-width:1.5px;stroke-linejoin:round;}.svg-plot-fill{stroke:none;opacity:0.25;}.svg-plot-major{stroke:#000;stroke-width:1px;stroke-linecap:square;fill:none;}.svg-plot-minor{stroke:rgba(0,0,0,0.3);stroke-width:0.5px;stroke-dasharray:0.5 1.5;stroke-linecap:round;fill:none;}.svg-plot-tick{stroke:#000;fill:none;stroke-width:1px;stroke-linecap:butt;}.svg-plot-value,.svg-plot-label{font-family:Arial,sans-serif;fill:#000;stroke:rgba(255,255,255,0.7);stroke-width:2px;paint-order:stroke fill;text-anchor:middle;dominant-baseline:central;alignment-baseline:baseline;}.svg-plot-label{font-size:12px;}.svg-plot-value{font-size:10px;}.svg-plot-hatch{stroke:#FFF;stroke-width:1px;}.svg-plot-s0{stroke:#0073E6}.svg-plot-f0,.svg-plot-t0{fill:#0073E6}.svg-plot-s1{stroke:#CC0000}.svg-plot-f1,.svg-plot-t1{fill:#CC0000}.svg-plot-s2{stroke:#00B300}.svg-plot-f2,.svg-plot-t2{fill:#00B300}.svg-plot-s3{stroke:#806600}.svg-plot-f3,.svg-plot-t3{fill:#806600}.svg-plot-s4{stroke:#E69900}.svg-plot-f4,.svg-plot-t4{fill:#E69900}.svg-plot-s5{stroke:#CC00CC}.svg-plot-f5,.svg-plot-t5{fill:#CC00CC}.svg-plot-d0{stroke-width:1.35px}.svg-plot-d1{stroke-dasharray:1.8 1.8}.svg-plot-d2{stroke-dasharray:4.2 2.4}.svg-plot-d3{stroke-dasharray:7.5 6}.svg-plot-d4{stroke-dasharray:6 1.5 1.5 1.5 1.5 1.5}.svg-plot-d5{stroke-dasharray:15 4.5}.svg-plot-d6{stroke-dasharray:6 3 1.5 3}.svg-plot-h0{opacity:0.144338}.svg-plot-h1{mask:url(#svg-plot-hatch1)}.svg-plot-h2{mask:url(#svg-plot-hatch2)}.svg-plot-h3{mask:url(#svg-plot-hatch3)}#svg-plot-hatch2-pattern{stroke-width:0.9px}#svg-plot-hatch3-pattern{stroke-width:0.7px}</style></svg>