<?xml version="1.0" encoding="utf-8" standalone="no"?>
<!DOCTYPE svg PUBLIC "-//W3C//DTD SVG 1.1//EN" "http://www.w3.org/Graphics/SVG/1.1/DTD/svg11.dtd">
<svg class="svg-plot" width="348pt" height="125pt" version="1.1" viewBox="-14 -15 348 125" preserveAspectRatio="xMidYMid" xmlns="http://www.w3.org/2000/svg" xmlns:xlink="http://www.w3.org/1999/xlink"><rect class="svg-plot-bg" x="-4" y="-5" width="328" height="105"/><rect class="svg-plot-axis" x="0" y="0" width="320" height="80"/><clipPath id="clip282475249"><rect x="-0.75" y="-0.75" width="321.5" height="81.5" /></clipPath><g clip-path="url(#clip282475249"><path class="svg-plot-fill svg-plot-f3 svg-plot-h1" d="M 288 80 320 0 320 80 288 80" /><path class="svg-plot-line svg-plot-s3 svg-plot-d2" d="M 288 80 320 0" /><path class="svg-plot-fill svg-plot-f2 svg-plot-h0" d="M 256 80 288 0 288 80 256 80" /><path class="svg-plot-line svg-plot-s2 svg-plot-d1" d="M 256 80 288 0" /><path class="svg-plot-fill svg-plot-f1 svg-plot-h3" d="M 224 80 256 0 256 80 224 80" /><path class="svg-plot-line svg-plot-s1 svg-plot-d0" d="M 224 80 256 0" /><path class="svg-plot-fill svg-plot-f0 svg-plot-h2" d="M 192 80 224 0 224 80 192 80" /><path class="svg-plot-line svg-plot-s0 svg-plot-d6" d="M 192 80 224 0" /><path class="svg-plot-fill svg-plot-f5 svg-plot-h1" d="M 160 80 192 0 192 80 160 80" /><path class="svg-plot-line svg-plot-s5 svg-plot-d5" d="M 160 80 192 0" /><path class="svg-plot-fill svg-plot-f4 svg-plot-h0" d="M 128 80 160 0 160 80 128 80" /><path class="svg-plot-line svg-plot-s4 svg-plot-d4" d="M 128 80 160 0" /><path class="svg-plot-fill svg-plot-f3 svg-plot-h3" d="M 96 80 128 0 128 80 96 80" /><path class="svg-plot-line svg-plot-s3 svg-plot-d3" d="M 96 80 128 0" /><path class="svg-plot-fill svg-plot-f2 svg-plot-h2" d="M 64 80 96 0 96 80 64 80" /><path class="svg-plot-line svg-plot-s2 svg-plot-d2" d="M 64 80 96 0" /><path class="svg-plot-fill svg-plot-f1 svg-plot-h1" d="M 32 80 64 0 64 80 32 80" /><path class="svg-plot-line svg-plot-s1 svg-plot-d1" d="M 32 80 64 0" /><path class="svg-plot-fill svg-plot-f0 svg-plot-h0" d="M 0 80 32 0 32 80 0 80" /><path class="svg-plot-line svg-plot-s0 svg-plot-d0" d="M 0 80 32 0" /></g><g><text class="svg-plot-value" x="304" y="95">9</text><text class="svg-plot-value" x="272" y="95">8</text><text class="svg-plot-value" x="240" y="95">7</text><text class="svg-plot-value" x="208" y="95">6</text><text class="svg-plot-value" x="176" y="95">5</text><text class="svg-plot-value" x="144" y="95">4</text><text class="svg-plot-value" x="112" y="95">3</text><text class="svg-plot-value" x="80" y="95">2</text><text class="svg-plot-value" x="48" y="95">1</text><text class="svg-plot-value" x="16" y="95">0</text><line class="svg-plot-tick" y1="80" y2="85" x1="16" x2="16"/><line class="svg-plot-tick" y1="80" y2="85" x1="48" x2="48"/><line class="svg-plot-tick" y1="80" y2="85" x1="80" x2="80"/><line class="svg-plot-tick" y1="80" y2="85" x1="112" x2="112"/><line class="svg-plot-tick" y1="80" y2="85" x1="144" x2="144"/><line class="svg-plot-tick" y1="80" y2="85" x1="176" x2="176"/><line class="svg-plot-tick" y1="80" y2="85" x1="208" x2="208"/><line class="svg-plot-tick" y1="80" y2="85" x1="240" x2="240"/><line class="svg-plot-tick" y1="80" y2="85" x1="272" x2="272"/><line class="svg-plot-tick" y1="80" y2="85" x1="304" x2="304"/></g><defs><mask id="svg-plot-hatch1"><rect x="-459" y="-459" width="918" height="918" fill="url(#svg-plot-hatch1-pattern)" style="transform:rotate(-50deg)"/></mask><pattern id="svg-plot-hatch1-pattern" class="svg-plot-hatch" x="0" y="0" width="10" height="3" patternUnits="userSpaceOnUse" stroke="#FFF" fill="none"><line x1="-1" y1="1.5" x2="11" y2="1.5" /></pattern><mask id="svg-plot-hatch2"><rect x="-459" y="-459" width="918" height="918" fill="url(#svg-plot-hatch2-pattern)" style="transform:rotate(30deg)"/></mask><pattern id="svg-plot-hatch2-pattern" class="svg-plot-hatch" x="0" y="0" width="10" height="2.4" patternUnits="userSpaceOnUse" stroke="#FFF" fill="none"><line x1="-1" y1="1.2" x2="11" y2="1.2" /></pattern><mask id="svg-plot-hatch3"><rect x="-459" y="-459" width="918" height="918" fill="url(#svg-plot-hatch3-pattern)" style="transform:rotate(8deg)"/><rect x="-459" y="-459" width="918" height="918" fill="url(#svg-plot-hatch3-pattern)" style="transform:rotate(93deg)"/></mask><pattern id="svg-plot-hatch3-pattern" class="svg-plot-hatch" x="0" y="0" width="10" height="3" patternUnits="userSpaceOnUse" stroke="#FFF" fill="none"><line x1="-1" y1="1.5" x2="11" y2="1.5" /></pattern></defs><style>.svg-plot{stroke-linecap:butt;}.svg-plot-bg{fill:none;stroke:none;}.svg-plot-axis{stroke:none;fill:rgba(255,255,255,0.85);}.svg-plot-line{stroke:blue;fill:none;stroke-width:1.5px;stroke-linejoin:round;}.svg-plot-fill{stroke:none;opacity:0.25;}.svg-plot-major{stroke:#000;stroke-width:1px;stroke-linecap:square;fill:none;}.svg-plot-minor{stroke:rgba(0,0,0,0.3);stroke-width:0.5px;stroke-dasharray:0.5 1.5;stroke-linecap:round;fill:none;}.svg-plot-tick{stroke:#000;fill:none;stroke-width:1px;stroke-linecap:butt;}.svg-plot-value,.svg-plot-label{font-family:Arial,sans-serif;fill:#000;stroke:rgba(255,255,255,0.7);stroke-width:2px;paint-order:stroke fill;text-anchor:middle;dominant-baseline:central;alignment-baseline:baseline;}.svg-plot-label{font-size:12px;}.svg-plot-value{font-size:10px;}.svg-plot-hatch{stroke:#FFF;stroke-width:1px;}.svg-plot-s0{stroke:#0073E6}.svg-plot-f0,.svg-plot-t0{fill:#0073E6}.svg-plot-s1{stroke:#CC0000}.svg-plot-f1,.svg-plot-t1{fill:#CC0000}.svg-plot-s2{stroke:#00B300}.svg-plot-f2,.svg-plot-t2{fill:#00B300}.svg-plot-s3{stroke:#806600}.svg-plot-f3,.svg-plot-t3{fill:#806600}.svg-plot-s4{stroke:#E69900}.svg-plot-f4,.svg-plot-t4{fill:#E69900}.svg-plot-s5{stroke:#CC00CC}.svg-plot-f5,.svg-plot-t5{fill:#CC00CC}.svg-plot-d0{stroke-width:1.35px}.svg-plot-d1{stroke-dasharray:1.8 1.8}.svg-plot-d2{stroke-dasharray:4.2 2.4}.svg-plot-d3{stroke-dasharray:7.5 6}.svg-plot-d4{stroke-dasharray:6 1.5 1.5 1.5 1.5 1.5}.svg-plot-d5{stroke-dasharray:15 4.5}.svg-plot-d6{stroke-dasharray:6 3 1.5 3}.svg-plot-h0{opacity:0.144338}.svg-plot-h1{mask:url(#svg-plot-hatch1)}.svg-plot-h2{mask:url(#svg-plot-hatch2)}.svg-plot-h3{mask:url(#svg-plot-hatch3)}#svg-plot-hatch2-pattern{stroke-width:0.9px}#svg-plot-hatch3-pattern{stroke-width:0.7px}</style></svg>